<svg xmlns="http://www.w3.org/2000/svg" width="74.929" height="28.796" viewBox="0 0 74.929 28.796">
  <g id="이노비즈" transform="translate(-262 -147.204)">
    <g id="그룹_261" data-name="그룹 261" transform="translate(262 168.257)">
      <path id="패스_1097" data-name="패스 1097" d="M281.953,319.116v1h-2.294c0,.086.07.186.207.3a2.653,2.653,0,0,0,.557.351,4.052,4.052,0,0,0,.821.271,4.217,4.217,0,0,0,1,.1,3.632,3.632,0,0,0-.35.47,3.455,3.455,0,0,0-.272.486,6.154,6.154,0,0,1-1.648-.47,2.444,2.444,0,0,1-1.131-.844,2.907,2.907,0,0,1-1.227.876,6.41,6.41,0,0,1-1.577.43c-.1-.17-.2-.327-.3-.47a4.027,4.027,0,0,0-.366-.47,3.8,3.8,0,0,0,.972-.1,4.319,4.319,0,0,0,.844-.271,2.336,2.336,0,0,0,.59-.351c.154-.122.231-.229.231-.318h-2.27v-1Zm.677,3.365v.987h-3.218v.391a4.476,4.476,0,0,1,2.031.51,1.084,1.084,0,0,1,.629.932,1.156,1.156,0,0,1-.765,1.012,5.55,5.55,0,0,1-2.493.446,5.424,5.424,0,0,1-2.46-.446,1.166,1.166,0,0,1-.757-1.012,1.1,1.1,0,0,1,.621-.932,4.42,4.42,0,0,1,2.023-.51v-.391h-3.249v-.987Zm-5.368,2.4c-.3.1-.454.247-.454.438s.151.337.454.454a4.617,4.617,0,0,0,1.553.2,4.906,4.906,0,0,0,1.6-.2q.454-.176.454-.454t-.454-.438a5.626,5.626,0,0,0-1.6-.167A5.341,5.341,0,0,0,277.262,324.878Z" transform="translate(-274.992 -319.014)" fill="#595959"/>
      <path id="패스_1098" data-name="패스 1098" d="M297.355,319.716c.063.063.04.178-.072.342a1.141,1.141,0,0,0,.215.558,3.491,3.491,0,0,0,.622.733,4.6,4.6,0,0,0,.972.677,4.531,4.531,0,0,0,1.3.422,4.017,4.017,0,0,0-.39.446c-.128.165-.252.337-.375.518a5.355,5.355,0,0,1-1.808-.852,3.4,3.4,0,0,1-1.163-1.259,3.145,3.145,0,0,1-1.1,1.3,5.556,5.556,0,0,1-1.705.908,5.909,5.909,0,0,0-.4-.47,5.238,5.238,0,0,0-.454-.446,4.107,4.107,0,0,0,2.119-1.155,2.608,2.608,0,0,0,.9-1.816h.844A.791.791,0,0,1,297.355,319.716Zm-.137,3.5q.07.049,0,.215c-.027.069-.046.123-.056.16a1,1,0,0,0-.024.215v1.211h3.385v1.019h-7.641v-1.019h3.075v-1.856h.663A1.806,1.806,0,0,1,297.218,323.212Z" transform="translate(-285.347 -319.306)" fill="#595959"/>
      <path id="패스_1099" data-name="패스 1099" d="M315,319.528a7.4,7.4,0,0,1-.781,3.648,6.571,6.571,0,0,1-2.445,2.309q-.207-.262-.423-.494a4.584,4.584,0,0,0-.47-.454,3.678,3.678,0,0,0,2.046-1.521,4.235,4.235,0,0,0,.789-2.461H311.28v-1.027Zm2.937-.613c.043.021.045.076.008.167a.823.823,0,0,0-.04.136.777.777,0,0,0-.023.191v7.112H316.7v-7.646h.71A1.871,1.871,0,0,1,317.938,318.915Z" transform="translate(-295.768 -318.875)" fill="#595959"/>
      <path id="패스_1100" data-name="패스 1100" d="M335.938,318.883a.69.69,0,0,1,.223.048.08.08,0,0,1,.056.079,1.029,1.029,0,0,1-.048.143,1.365,1.365,0,0,0-.055.168.916.916,0,0,0-.033.239v3.648H334.9v-1.64h-1.354v-.224a1.745,1.745,0,0,1-.605,1.116,2.231,2.231,0,0,1-1.49.478,2.182,2.182,0,0,1-1.617-.574,1.828,1.828,0,0,1-.518-1.354,1.847,1.847,0,0,1,.518-1.354,2.151,2.151,0,0,1,1.617-.59,2.234,2.234,0,0,1,1.473.462,1.768,1.768,0,0,1,.622,1.123v-.08H334.9v-1.7h.572C335.678,318.875,335.832,318.878,335.938,318.883Zm-5.209,1.434a1,1,0,0,0-.223.693,1.008,1.008,0,0,0,.223.7,1.116,1.116,0,0,0,1.458,0,.989.989,0,0,0,.231-.7.978.978,0,0,0-.231-.693.957.957,0,0,0-.732-.271A.934.934,0,0,0,330.729,320.317Zm.549,5.168h3.629v-.545h-3.629Zm.056-2.154c.037.016.04.064.008.144a.767.767,0,0,0-.047.112.5.5,0,0,0-.016.135v.35h3.629v-.781h.782a1.314,1.314,0,0,1,.48.048c.037.021.035.072-.008.151-.021.048-.037.085-.048.111a.393.393,0,0,0-.024.136v2.782h-1.182v-.166h-3.629v.166H330.1V323.29h.759A1.578,1.578,0,0,1,331.333,323.331Z" transform="translate(-306.44 -318.875)" fill="#595959"/>
      <path id="패스_1101" data-name="패스 1101" d="M350.779,319.528a7.4,7.4,0,0,1-.781,3.648,6.551,6.551,0,0,1-2.445,2.309q-.206-.262-.421-.494a4.5,4.5,0,0,0-.47-.454,3.68,3.68,0,0,0,2.047-1.521,4.241,4.241,0,0,0,.789-2.461H347.06v-1.027Zm2.938-.613c.042.021.044.076.008.167a.735.735,0,0,0-.04.136.758.758,0,0,0-.024.191v7.112h-1.182v-7.646h.711A1.88,1.88,0,0,1,353.717,318.915Z" transform="translate(-316.479 -318.875)" fill="#595959"/>
      <path id="패스_1102" data-name="패스 1102" d="M368.9,318.947q.1.071-.048.31a.638.638,0,0,0,.2.4,2.357,2.357,0,0,0,.581.43,4.431,4.431,0,0,0,.908.358,6.454,6.454,0,0,0,1.227.191,5.147,5.147,0,0,0-.327.454,4.221,4.221,0,0,0-.3.51,7.17,7.17,0,0,1-1.752-.518,2.6,2.6,0,0,1-1.114-.812,3.028,3.028,0,0,1-1.171.82,6.827,6.827,0,0,1-1.689.542c-.1-.139-.21-.29-.342-.454s-.271-.321-.414-.47a4.618,4.618,0,0,0,2.119-.6,1.481,1.481,0,0,0,.876-1.234h.733A1.1,1.1,0,0,1,368.9,318.947Zm3.178,4.014h-3.226v.318h2.429v1.936h-4.85v.414h4.993v.8h-6.148v-1.991H370.1v-.366h-4.818v-.789h2.405v-.318H364.44v-.908h7.639Z" transform="translate(-326.771 -318.875)" fill="#595959"/>
      <path id="패스_1103" data-name="패스 1103" d="M386.649,318.923v.853h-2.39v-.853Zm1.185,1.068v.549h.772v-1.664h.709a1.515,1.515,0,0,1,.59.063c.042.033.034.109-.024.232a1.285,1.285,0,0,0-.056.135.711.711,0,0,0-.04.167v4.11h-1.179v-.526h-.836v-.988h.836v-.541h-.836v-.685h-4.715v-.852Zm-.906,1.41a.957.957,0,0,1,.509.82.971.971,0,0,1-.509.821,2.776,2.776,0,0,1-1.546.374,2.451,2.451,0,0,1-1.434-.374.988.988,0,0,1-.486-.821.975.975,0,0,1,.486-.82,2.49,2.49,0,0,1,1.434-.366A2.822,2.822,0,0,1,386.928,321.4Zm-2.087.494a.4.4,0,0,0-.2.334.37.37,0,0,0,.2.318,1.072,1.072,0,0,0,.613.152,1.058,1.058,0,0,0,.605-.152.37.37,0,0,0,.208-.318.4.4,0,0,0-.208-.334,1.109,1.109,0,0,0-.605-.144A1.124,1.124,0,0,0,384.842,321.894Zm4.952,2.1v2.525h-1.182v-1.537h-4.986V324Z" transform="translate(-337.547 -318.875)" fill="#595959"/>
      <path id="패스_1104" data-name="패스 1104" d="M403.492,319.13c.031.032.026.1-.016.214-.021.064-.037.115-.048.152a.8.8,0,0,0-.024.192,2.843,2.843,0,0,0,.478,1.489,3.242,3.242,0,0,0,1.458,1.3,4.988,4.988,0,0,0-.454.39,4.128,4.128,0,0,0-.4.462,4.4,4.4,0,0,1-.98-.844,2.805,2.805,0,0,1-.621-1.019,2.907,2.907,0,0,1-.566,1.067,4.83,4.83,0,0,1-1.147,1,4.468,4.468,0,0,0-.422-.415,4.252,4.252,0,0,0-.486-.382,3.413,3.413,0,0,0,1.474-1.3,4.516,4.516,0,0,0,.558-2.374h.725A.977.977,0,0,1,403.492,319.13Zm3.852-.208c.043.021.043.083,0,.183-.016.053-.029.1-.04.128a.854.854,0,0,0-.016.167v5.106h-1.182v-5.631h.71A1.592,1.592,0,0,1,407.344,318.923Zm-4.9,5.01c.043.032.046.1.008.207a.824.824,0,0,0-.04.136.888.888,0,0,0-.016.159v.884h4.978v1h-6.16v-2.439h.695A1.446,1.446,0,0,1,402.443,323.932Z" transform="translate(-347.509 -318.875)" fill="#595959"/>
      <path id="패스_1105" data-name="패스 1105" d="M422.428,318.923v.853h-2.389v-.853Zm1.186,1.068v.549h.772v-1.664h.709a1.514,1.514,0,0,1,.589.063c.043.033.035.109-.024.232-.027.059-.046.1-.056.135a.67.67,0,0,0-.04.167v4.11h-1.178v-.526h-.837v-.988h.837v-.541h-.837v-.685h-4.715v-.852Zm-.908,1.41a.957.957,0,0,1,.51.82.97.97,0,0,1-.51.821,2.776,2.776,0,0,1-1.546.374,2.456,2.456,0,0,1-1.434-.374.989.989,0,0,1-.485-.821.976.976,0,0,1,.485-.82,2.5,2.5,0,0,1,1.434-.366A2.821,2.821,0,0,1,422.707,321.4Zm-2.088.494a.4.4,0,0,0-.2.334.371.371,0,0,0,.2.318,1.078,1.078,0,0,0,.614.152,1.06,1.06,0,0,0,.606-.152.369.369,0,0,0,.207-.318.394.394,0,0,0-.207-.334,1.111,1.111,0,0,0-.606-.144A1.13,1.13,0,0,0,420.62,321.894Zm.43,1.74c.037.016.039.064.008.144a.994.994,0,0,0-.048.111.615.615,0,0,0-.016.136v.167h3.4v-.6h.782a1.574,1.574,0,0,1,.478.039c.037.022.035.072-.007.152-.021.043-.037.077-.048.1a.429.429,0,0,0-.023.136v2.494h-1.182v-.166h-3.4v.166h-1.182v-2.924h.758A1.58,1.58,0,0,1,421.049,323.634Zm-.056,1.86h3.4v-.434h-3.4Z" transform="translate(-358.259 -318.875)" fill="#595959"/>
      <path id="패스_1106" data-name="패스 1106" d="M441.631,320.173v.908h-4.923v-.908Zm-3.083,1.991a.484.484,0,0,0-.192.414.468.468,0,0,0,.192.4,1.077,1.077,0,0,0,.645.159,1.027,1.027,0,0,0,.629-.159.463.463,0,0,0,.2-.4.479.479,0,0,0-.2-.414,1.066,1.066,0,0,0-.629-.151A1.1,1.1,0,0,0,438.548,322.164Zm1.951-3.17v.9H437.99v-.9Zm2.923-.079c.042.021.045.076.008.167a1.108,1.108,0,0,0-.064.327v7.112h-1.179v-7.646h.709A1.864,1.864,0,0,1,443.422,318.915Zm-5.9,5.686c.4-.005.759-.019,1.067-.04v-.725a2.142,2.142,0,0,1-.971-.382,1.056,1.056,0,0,1-.43-.876,1.135,1.135,0,0,1,.67-1.052,2.931,2.931,0,0,1,1.337-.279,2.862,2.862,0,0,1,1.322.279,1.135,1.135,0,0,1,.678,1.052,1.061,1.061,0,0,1-.438.884,2.08,2.08,0,0,1-.988.374v.685q.582-.04,1.083-.08c.42-.027.728-.05.925-.072l.136.717.031.144-1.346.1q-.461.032-1.417.088l-1.578.112a1.817,1.817,0,0,0-.3.024c-.059.01-.128.026-.207.047a.54.54,0,0,1-.216.024c-.048-.016-.09-.072-.128-.168l-.174-.836C436.912,324.618,437.229,324.612,437.521,324.6Z" transform="translate(-368.527 -318.875)" fill="#595959"/>
    </g>
    <g id="그룹_262" data-name="그룹 262" transform="translate(262 147.204)">
      <path id="패스_1069" data-name="패스 1069" d="M176.787,163.578h1.561v15.773h-1.561Z" transform="translate(-176.787 -163.199)" fill="#595959"/>
      <path id="패스_1070" data-name="패스 1070" d="M256.7,162.693a8.181,8.181,0,0,1,5.993,2.384,8.274,8.274,0,0,1-5.865,14.147,8.065,8.065,0,0,1-5.919-2.4,7.866,7.866,0,0,1-2.413-5.8,8.385,8.385,0,0,1,1.1-4.2,8.118,8.118,0,0,1,7.1-4.131Zm.069,1.524a6.766,6.766,0,0,0-5.788,3.366,6.808,6.808,0,0,0-.884,3.442,6.645,6.645,0,0,0,6.673,6.678,6.818,6.818,0,0,0,3.412-.891,6.406,6.406,0,0,0,2.447-2.435,6.811,6.811,0,0,0,.878-3.431,6.65,6.65,0,0,0-.878-3.39,6.556,6.556,0,0,0-2.473-2.428A6.715,6.715,0,0,0,256.769,164.217Z" transform="translate(-217.768 -162.693)" fill="#fc4128"/>
      <path id="패스_1071" data-name="패스 1071" d="M292.8,163.578h3.117a7.449,7.449,0,0,1,2.891.444,3.536,3.536,0,0,1,1.6,1.368,3.862,3.862,0,0,1,.081,3.954A3.76,3.76,0,0,1,299,170.738a5.657,5.657,0,0,1,1.865.986,3.921,3.921,0,0,1,1.017,1.361,4.15,4.15,0,0,1,.363,1.735,4.255,4.255,0,0,1-1.389,3.215,5.2,5.2,0,0,1-3.726,1.316H292.8Zm1.561,1.562v5.031h.91a7.194,7.194,0,0,0,2.434-.3,2.619,2.619,0,0,0,1.233-.965,2.507,2.507,0,0,0,.454-1.457,2.059,2.059,0,0,0-.762-1.692,3.882,3.882,0,0,0-2.43-.614Zm0,6.593v6.054h1.96a7,7,0,0,0,2.54-.337,2.885,2.885,0,0,0,1.3-1.057,2.768,2.768,0,0,0-.194-3.394,3.509,3.509,0,0,0-1.881-1.073,13.918,13.918,0,0,0-2.823-.192Z" transform="translate(-243.084 -163.199)" fill="#595959"/>
      <path id="패스_1072" data-name="패스 1072" d="M321.578,163.578h1.562v15.773h-1.562Z" transform="translate(-259.533 -163.199)" fill="#595959"/>
      <path id="패스_1073" data-name="패스 1073" d="M331.39,165.14v-1.562h8.266l-6.546,14.209h6.2v1.564h-8.648l6.588-14.211Z" transform="translate(-264.726 -163.199)" fill="#595959"/>
      <path id="패스_1074" data-name="패스 1074" d="M224.984,163.59v11.993L214.548,163.59l-.344-.011.06,14.44,1.1,1.333h.476V167.458l10.349,11.893h.355V163.578Z" transform="translate(-198.17 -163.199)" fill="#595959"/>
      <path id="패스_1075" data-name="패스 1075" d="M200.14,163.586l-.374,0v11.993L189.33,163.59l-.346-.011v15.773h1.639V167.458l10.349,11.893h.355L201.3,165Z" transform="translate(-183.758 -163.199)" fill="#595959"/>
    </g>
  </g>
</svg>
