<svg xmlns="http://www.w3.org/2000/svg" width="41.616" height="29.824" viewBox="0 0 41.616 29.824">
  <path id="합치기_3" data-name="합치기 3" d="M2765.877-829.516a14.438,14.438,0,0,1,14.413-14.413c.481,0,.958.026,1.43.072v4.271a10.208,10.208,0,0,0-1.43-.1,10.2,10.2,0,0,0-9.932,7.973h8.326v4.4h-8.326a10.2,10.2,0,0,0,9.932,7.968,10.159,10.159,0,0,0,1.43-.1v4.271c-.471.046-.948.072-1.43.072A14.438,14.438,0,0,1,2765.877-829.516Zm-24.773,0a14.443,14.443,0,0,1,14.417-14.413c.482,0,.958.026,1.426.072v4.271a10.1,10.1,0,0,0-1.426-.1,10.2,10.2,0,0,0-10.177,10.173,10.2,10.2,0,0,0,10.177,10.172,10.11,10.11,0,0,0,1.426-.1v4.271c-.467.046-.944.072-1.426.072A14.442,14.442,0,0,1,2741.1-829.516Z" transform="translate(-2740.604 844.428)" stroke="rgba(0,0,0,0)" stroke-miterlimit="10" stroke-width="1"/>
</svg>
