<svg id="환경부" xmlns="http://www.w3.org/2000/svg" width="29.701" height="28.824" viewBox="0 0 29.701 28.824">
  <path id="패스_90" data-name="패스 90" d="M154.256,195.214a5.2,5.2,0,0,0-7.392,1.55,5.2,5.2,0,0,1-9.4-1.43h0c-.006-.019-.008-.034-.016-.055a.4.4,0,0,0-.016-.066,6.648,6.648,0,0,1-.267-2.066c0-4.661,4.782-9.851,11.671-9.851a13.136,13.136,0,0,1,12.129,8.354c-.015-.051-.031-.1-.052-.159a14.853,14.853,0,0,0-28.9,4.82c0,7.332,5.286,13.608,12.623,13.608a11.929,11.929,0,0,0,11.585-7.8,5.726,5.726,0,0,0-1.959-6.9" transform="translate(-132.007 -181.459)" fill="#002a56"/>
  <path id="패스_91" data-name="패스 91" d="M167.15,194.116a13.1,13.1,0,0,0-12.223-8.645c-6.888,0-11.67,5.19-11.67,9.85a6.65,6.65,0,0,0,.266,2.067,4.36,4.36,0,0,1-.138-1.057c0-4.856,4.861-8.219,9.858-8.219a12.245,12.245,0,0,1,12.247,12.246,13.5,13.5,0,0,1-7.485,12.095v0a14.86,14.86,0,0,0,9.8-13.971,14.667,14.667,0,0,0-.654-4.37" transform="translate(-138.103 -183.633)" fill="#dc0021"/>
</svg>
