<svg xmlns="http://www.w3.org/2000/svg" width="40.709" height="28.796" viewBox="0 0 40.709 28.796">
  <g id="KAB" transform="translate(-294.14 -698.204)">
    <g id="그룹_211" data-name="그룹 211" transform="translate(300.062 699.245)">
      <path id="패스_1016" data-name="패스 1016" d="M301.368,705.423l-1.075-1.362.166-.124.532.677.088-1.146.228-.172-.092.949,1.184.4-.214.165-.987-.349-.036.376.371.466Z" transform="translate(-300.293 -699.437)" fill="#00337d"/>
      <path id="패스_1017" data-name="패스 1017" d="M302.351,703.971a.671.671,0,0,1-.132-.529.508.508,0,0,1,.225-.3.5.5,0,0,1,.417-.057.685.685,0,0,1,.379.318.836.836,0,0,1,.145.351.455.455,0,0,1-.041.281.511.511,0,0,1-.189.21.518.518,0,0,1-.421.061A.747.747,0,0,1,302.351,703.971Zm.167-.107a.58.58,0,0,0,.275.25.293.293,0,0,0,.268-.023.279.279,0,0,0,.134-.22.558.558,0,0,0-.12-.36.569.569,0,0,0-.269-.248.275.275,0,0,0-.262.023.282.282,0,0,0-.139.225A.538.538,0,0,0,302.518,703.865Z" transform="translate(-300.365 -699.428)" fill="#00337d"/>
      <path id="패스_1018" data-name="패스 1018" d="M304,703.714l-.6-1.1.153-.083.092.165a.489.489,0,0,1,.025-.209.184.184,0,0,1,.089-.1.342.342,0,0,1,.207-.032l.03.2a.255.255,0,0,0-.144.025.152.152,0,0,0-.073.09.214.214,0,0,0-.012.138.8.8,0,0,0,.091.228l.314.576Z" transform="translate(-300.41 -699.402)" fill="#00337d"/>
      <path id="패스_1019" data-name="패스 1019" d="M305.412,702.576l.19-.057a.514.514,0,0,1-.034.343.475.475,0,0,1-.249.231.5.5,0,0,1-.436.012.859.859,0,0,1-.406-.871.478.478,0,0,1,.277-.314.443.443,0,0,1,.411,0,.725.725,0,0,1,.338.375.193.193,0,0,1,.022.051l-.775.349a.486.486,0,0,0,.23.24.318.318,0,0,0,.265,0,.3.3,0,0,0,.143-.13A.474.474,0,0,0,305.412,702.576Zm-.731-.04.591-.267a.556.556,0,0,0-.169-.187.3.3,0,0,0-.272-.007.287.287,0,0,0-.169.181A.4.4,0,0,0,304.68,702.536Z" transform="translate(-300.45 -699.383)" fill="#00337d"/>
      <path id="패스_1020" data-name="패스 1020" d="M306.857,702.276a.681.681,0,0,1-.144.2.543.543,0,0,1-.184.115.43.43,0,0,1-.311.009.365.365,0,0,1-.186-.208.343.343,0,0,1-.024-.168.293.293,0,0,1,.05-.147.44.44,0,0,1,.108-.113.982.982,0,0,1,.15-.092,1.6,1.6,0,0,0,.3-.185.542.542,0,0,1-.02-.053.259.259,0,0,0-.118-.152.4.4,0,0,0-.4.128.306.306,0,0,0-.021.209l-.2.042a.686.686,0,0,1,.012-.233.31.31,0,0,1,.115-.176.618.618,0,0,1,.227-.133.6.6,0,0,1,.235-.047.285.285,0,0,1,.162.043.311.311,0,0,1,.107.113.92.92,0,0,1,.079.181l.1.261a2.352,2.352,0,0,0,.145.344.467.467,0,0,0,.1.123l-.186.07A.461.461,0,0,1,306.857,702.276Zm-.182-.434a1.313,1.313,0,0,1-.268.186.777.777,0,0,0-.145.1.146.146,0,0,0-.045.092.17.17,0,0,0,.008.1.2.2,0,0,0,.108.113.243.243,0,0,0,.182,0,.424.424,0,0,0,.17-.121.3.3,0,0,0,.063-.181.5.5,0,0,0-.047-.211Z" transform="translate(-300.502 -699.361)" fill="#00337d"/>
      <path id="패스_1021" data-name="패스 1021" d="M308.155,702l.133-1.814.221-.064,1.074,1.51-.232.057-.316-.461-.639.166-.03.549Zm.253-.8.521-.132-.28-.422c-.09-.123-.158-.231-.211-.318a2.027,2.027,0,0,1,0,.342Z" transform="translate(-300.589 -699.317)" fill="#00337d"/>
      <path id="패스_1022" data-name="패스 1022" d="M310.613,700.975l.2-.008a.541.541,0,0,1-.091.358.419.419,0,0,1-.289.179.454.454,0,0,1-.395-.094.689.689,0,0,1-.233-.438.836.836,0,0,1-.011-.36.425.425,0,0,1,.135-.258.547.547,0,0,1,.255-.127.434.434,0,0,1,.315.047.482.482,0,0,1,.208.261l-.18.061a.432.432,0,0,0-.13-.168.242.242,0,0,0-.176-.031.293.293,0,0,0-.208.157.57.57,0,0,0-.014.373.618.618,0,0,0,.152.339.285.285,0,0,0,.25.069.268.268,0,0,0,.171-.108A.384.384,0,0,0,310.613,700.975Z" transform="translate(-300.65 -699.321)" fill="#00337d"/>
      <path id="패스_1023" data-name="패스 1023" d="M311.976,700.771h.2a.537.537,0,0,1-.111.353.443.443,0,0,1-.3.166.475.475,0,0,1-.395-.115.724.724,0,0,1-.209-.454.9.9,0,0,1,.011-.359.457.457,0,0,1,.153-.25.5.5,0,0,1,.258-.112.437.437,0,0,1,.312.06.493.493,0,0,1,.192.274l-.182.052a.375.375,0,0,0-.121-.173.239.239,0,0,0-.169-.042.284.284,0,0,0-.217.144.6.6,0,0,0-.037.371.611.611,0,0,0,.135.35.276.276,0,0,0,.243.079.263.263,0,0,0,.178-.1A.4.4,0,0,0,311.976,700.771Z" transform="translate(-300.701 -699.313)" fill="#00337d"/>
      <path id="패스_1024" data-name="패스 1024" d="M312.645,701.157l-.122-1.243.175-.014.019.187a.608.608,0,0,1,.106-.183.207.207,0,0,1,.119-.053.373.373,0,0,1,.2.047l-.05.2a.317.317,0,0,0-.144-.028.158.158,0,0,0-.107.053.238.238,0,0,0-.061.12.767.767,0,0,0-.006.249l.059.649Z" transform="translate(-300.753 -699.307)" fill="#00337d"/>
      <path id="패스_1025" data-name="패스 1025" d="M314.387,700.632l.193.015a.507.507,0,0,1-.159.309.558.558,0,0,1-.726-.028.673.673,0,0,1-.169-.466.7.7,0,0,1,.124-.492.509.509,0,0,1,.757-.041.748.748,0,0,1,.171.472v.056l-.856.043a.515.515,0,0,0,.123.306.31.31,0,0,0,.247.1.3.3,0,0,0,.183-.069A.462.462,0,0,0,314.387,700.632Zm-.667-.305.654-.032a.485.485,0,0,0-.087-.233.3.3,0,0,0-.25-.113.316.316,0,0,0-.225.109A.413.413,0,0,0,313.72,700.327Z" transform="translate(-300.79 -699.305)" fill="#00337d"/>
      <path id="패스_1026" data-name="패스 1026" d="M315.843,701.006l0-.159a.358.358,0,0,1-.32.186.444.444,0,0,1-.254-.085.5.5,0,0,1-.175-.233.81.81,0,0,1-.064-.337.841.841,0,0,1,.064-.339.468.468,0,0,1,.168-.23.42.42,0,0,1,.261-.078.372.372,0,0,1,.18.048.32.32,0,0,1,.128.125l.009-.619h.193l-.007,1.723Zm-.613-.628a.58.58,0,0,0,.094.36.285.285,0,0,0,.216.119.28.28,0,0,0,.22-.111.563.563,0,0,0,.092-.347.612.612,0,0,0-.09-.376.273.273,0,0,0-.222-.118.279.279,0,0,0-.219.113A.591.591,0,0,0,315.23,700.378Z" transform="translate(-300.847 -699.286)" fill="#00337d"/>
      <path id="패스_1027" data-name="패스 1027" d="M316.61,701.032l.061-1.249.193.01-.062,1.244Zm.071-1.483.01-.241.2.012-.011.241Z" transform="translate(-300.906 -699.287)" fill="#00337d"/>
      <path id="패스_1028" data-name="패스 1028" d="M317.771,700.921l.013.187a.7.7,0,0,1-.151.008.327.327,0,0,1-.162-.049.205.205,0,0,1-.071-.1.816.816,0,0,1,0-.249l.055-.715-.143-.011.013-.163.145.009.025-.311.2-.107-.036.433.191.016-.013.163-.192-.016-.061.721a.754.754,0,0,0,0,.119.1.1,0,0,0,.032.044.121.121,0,0,0,.064.018A.709.709,0,0,1,317.771,700.921Z" transform="translate(-300.933 -699.291)" fill="#00337d"/>
      <path id="패스_1029" data-name="패스 1029" d="M318.944,701.1a.948.948,0,0,1-.222.12.668.668,0,0,1-.219.007.372.372,0,0,1-.273-.132.338.338,0,0,1-.07-.264.49.49,0,0,1,.057-.162.307.307,0,0,1,.117-.111.607.607,0,0,1,.146-.05,1.235,1.235,0,0,1,.177-.011,1.418,1.418,0,0,0,.353-.033l.006-.048a.271.271,0,0,0-.028-.193.306.306,0,0,0-.211-.1.322.322,0,0,0-.209.027.339.339,0,0,0-.116.176l-.192-.052a.553.553,0,0,1,.113-.2.4.4,0,0,1,.185-.1.667.667,0,0,1,.265-.015.675.675,0,0,1,.233.066.292.292,0,0,1,.123.111.373.373,0,0,1,.042.151,1.035,1.035,0,0,1-.019.194l-.034.274a3.421,3.421,0,0,0-.032.374.466.466,0,0,0,.028.153l-.2-.024A.4.4,0,0,1,318.944,701.1Zm.044-.469a1.1,1.1,0,0,1-.326.04.531.531,0,0,0-.173.024.157.157,0,0,0-.083.056.231.231,0,0,0-.042.1.192.192,0,0,0,.042.144.222.222,0,0,0,.166.079.406.406,0,0,0,.2-.027.337.337,0,0,0,.15-.133.679.679,0,0,0,.05-.2Z" transform="translate(-300.964 -699.311)" fill="#00337d"/>
      <path id="패스_1030" data-name="패스 1030" d="M320.119,701.232v.189a.794.794,0,0,1-.151-.006.279.279,0,0,1-.159-.065.166.166,0,0,1-.061-.106.719.719,0,0,1,.018-.25l.123-.707-.141-.025.029-.159.141.02.053-.3.215-.09-.071.429.19.028-.03.166-.194-.031-.123.714a.433.433,0,0,0-.012.115.13.13,0,0,0,.028.042c.013.017.035.019.063.027Z" transform="translate(-301.024 -699.303)" fill="#00337d"/>
      <path id="패스_1031" data-name="패스 1031" d="M320.521,701.5l.257-1.226.191.042-.259,1.219Zm.3-1.453.051-.235.19.038-.05.236Z" transform="translate(-301.053 -699.306)" fill="#00337d"/>
      <path id="패스_1032" data-name="패스 1032" d="M321.311,701.041a.7.7,0,0,1,.3-.453.528.528,0,0,1,.383-.046.485.485,0,0,1,.331.256.664.664,0,0,1,.025.484.883.883,0,0,1-.159.349.534.534,0,0,1-.242.164.56.56,0,0,1-.282.006.482.482,0,0,1-.331-.254A.738.738,0,0,1,321.311,701.041Zm.192.05a.606.606,0,0,0,0,.369.3.3,0,0,0,.2.173.293.293,0,0,0,.258-.059.6.6,0,0,0,.186-.333.56.56,0,0,0,0-.362.3.3,0,0,0-.2-.17.3.3,0,0,0-.263.056A.576.576,0,0,0,321.5,701.091Z" transform="translate(-301.082 -699.333)" fill="#00337d"/>
      <path id="패스_1033" data-name="패스 1033" d="M322.663,702.034l.384-1.184.171.052-.054.171a.425.425,0,0,1,.574.011.3.3,0,0,1,.089.138.4.4,0,0,1,.011.169,1.6,1.6,0,0,1-.057.2l-.241.729-.185-.059.236-.722a.769.769,0,0,0,.039-.192.2.2,0,0,0-.039-.121.265.265,0,0,0-.118-.076.293.293,0,0,0-.229.018.457.457,0,0,0-.185.285l-.215.647Z" transform="translate(-301.134 -699.345)" fill="#00337d"/>
      <path id="패스_1034" data-name="패스 1034" d="M324.876,702.8l.729-1.567.542.242a.654.654,0,0,1,.24.166.425.425,0,0,1,.089.218.451.451,0,0,1-.18.4.453.453,0,0,1-.219.076.376.376,0,0,1,.135.232.43.43,0,0,1-.038.267.535.535,0,0,1-.136.188.516.516,0,0,1-.175.1.455.455,0,0,1-.191,0,.882.882,0,0,1-.245-.078Zm.275-.1.359.164.136.05a.4.4,0,0,0,.129.007.259.259,0,0,0,.114-.053.39.39,0,0,0,.087-.121.268.268,0,0,0,.029-.171.22.22,0,0,0-.074-.141.62.62,0,0,0-.2-.121l-.331-.149Zm.339-.722.309.141a.8.8,0,0,0,.191.064.24.24,0,0,0,.146-.031.264.264,0,0,0,.1-.12.322.322,0,0,0,.026-.154.2.2,0,0,0-.056-.121,1.028,1.028,0,0,0-.209-.122l-.287-.127Z" transform="translate(-301.217 -699.359)" fill="#00337d"/>
      <path id="패스_1035" data-name="패스 1035" d="M326.68,702.962a.7.7,0,0,1,.4-.36.511.511,0,0,1,.384.051.483.483,0,0,1,.248.332.647.647,0,0,1-.1.473.788.788,0,0,1-.244.3.5.5,0,0,1-.272.1.581.581,0,0,1-.276-.064.5.5,0,0,1-.256-.333A.744.744,0,0,1,326.68,702.962Zm.171.1a.609.609,0,0,0-.1.36.283.283,0,0,0,.15.219.3.3,0,0,0,.263.009.587.587,0,0,0,.268-.272.558.558,0,0,0,.091-.35.285.285,0,0,0-.146-.219.3.3,0,0,0-.268-.013A.585.585,0,0,0,326.851,703.059Z" transform="translate(-301.28 -699.41)" fill="#00337d"/>
      <path id="패스_1036" data-name="패스 1036" d="M328.412,704.555a.661.661,0,0,1-.249,0,.564.564,0,0,1-.2-.083.423.423,0,0,1-.185-.243.371.371,0,0,1,.066-.271.407.407,0,0,1,.128-.113.323.323,0,0,1,.148-.047.387.387,0,0,1,.158.023,1.384,1.384,0,0,1,.162.068,1.983,1.983,0,0,0,.327.134c.018-.029.032-.043.034-.048a.264.264,0,0,0,.062-.185.3.3,0,0,0-.144-.177.257.257,0,0,0-.382.033l-.146-.129a.476.476,0,0,1,.193-.13.343.343,0,0,1,.215-.011.672.672,0,0,1,.243.106.614.614,0,0,1,.174.164.261.261,0,0,1,.057.152.373.373,0,0,1-.032.153,1.412,1.412,0,0,1-.1.166l-.16.234c-.115.164-.18.267-.206.313a.5.5,0,0,0-.043.153l-.167-.113A.568.568,0,0,1,328.412,704.555Zm.258-.395a1.179,1.179,0,0,1-.306-.111.8.8,0,0,0-.167-.06.2.2,0,0,0-.1.016.189.189,0,0,0-.077.067.176.176,0,0,0-.032.148.243.243,0,0,0,.109.141.369.369,0,0,0,.2.066.319.319,0,0,0,.187-.047.579.579,0,0,0,.148-.16Z" transform="translate(-301.326 -699.439)" fill="#00337d"/>
      <path id="패스_1037" data-name="패스 1037" d="M328.914,705.108l.795-.973.134.11-.118.146a.522.522,0,0,1,.2-.062.2.2,0,0,1,.126.044.355.355,0,0,1,.109.172l-.177.11a.252.252,0,0,0-.079-.117.181.181,0,0,0-.116-.039.215.215,0,0,0-.13.046.918.918,0,0,0-.18.173l-.42.509Z" transform="translate(-301.369 -699.468)" fill="#00337d"/>
      <path id="패스_1038" data-name="패스 1038" d="M330.213,706.227l.114-.116a.347.347,0,0,1-.363-.085.4.4,0,0,1-.128-.226.551.551,0,0,1,.036-.287.83.83,0,0,1,.19-.287,1.034,1.034,0,0,1,.278-.206.522.522,0,0,1,.292-.051.372.372,0,0,1,.235.113.321.321,0,0,1,.106.159.4.4,0,0,1,.011.176l.431-.446.139.13-1.209,1.247Zm0-.87a.581.581,0,0,0-.187.322.265.265,0,0,0,.077.236.269.269,0,0,0,.237.064.516.516,0,0,0,.3-.189.61.61,0,0,0,.2-.335.271.271,0,0,0-.079-.238.278.278,0,0,0-.239-.064A.6.6,0,0,0,330.208,705.357Z" transform="translate(-301.403 -699.5)" fill="#00337d"/>
    </g>
    <path id="패스_1039" data-name="패스 1039" d="M294.14,712.6c0,7.943,9.134,14.4,20.358,14.4s20.351-6.459,20.351-14.4S325.719,698.2,314.5,698.2,294.14,704.662,294.14,712.6Zm.276,0c0-7.784,9.007-14.123,20.082-14.123s20.079,6.339,20.079,14.123-9.007,14.126-20.079,14.126S294.416,720.388,294.416,712.6Z" fill="#00337d"/>
    <g id="그룹_212" data-name="그룹 212" transform="translate(297.548 702.274)">
      <path id="패스_1040" data-name="패스 1040" d="M312.67,702.456c.047-.008.09-.018.134-.023-8.093.549-14.477,4.571-15.123,9.593h1.3C299.578,707.069,305.332,703.081,312.67,702.456Z" transform="translate(-297.681 -702.433)" fill="#00337d"/>
      <path id="패스_1041" data-name="패스 1041" d="M312.3,702.56l.321-.072c-6.579.724-11.694,4.661-12.224,9.54h1.343C302.208,707.289,306.591,703.443,312.3,702.56Z" transform="translate(-297.783 -702.435)" fill="#00337d"/>
      <path id="패스_1042" data-name="패스 1042" d="M303.072,712.039h1.259a10.6,10.6,0,0,1,7.337-9.26C306.977,703.951,303.469,707.606,303.072,712.039Z" transform="translate(-297.884 -702.446)" fill="#00337d"/>
    </g>
    <g id="그룹_213" data-name="그룹 213" transform="translate(316.445 713.165)">
      <path id="패스_1043" data-name="패스 1043" d="M317.45,723.893l-.134.025c5.256-.354,9.782-2.178,12.5-4.782h-1.1C326.252,721.692,322.18,723.491,317.45,723.893Z" transform="translate(-317.316 -713.952)" fill="#00337d"/>
      <path id="패스_1044" data-name="패스 1044" d="M332.951,713.749h-1.308a7.9,7.9,0,0,1-1.741,4.35h1.167A7.549,7.549,0,0,0,332.951,713.749Z" transform="translate(-317.789 -713.749)" fill="#00337d"/>
      <path id="패스_1045" data-name="패스 1045" d="M317.931,723.791c-.1.024-.207.052-.313.074a15.6,15.6,0,0,0,10-4.729h-1.134A13.548,13.548,0,0,1,317.931,723.791Z" transform="translate(-317.327 -713.952)" fill="#00337d"/>
      <path id="패스_1046" data-name="패스 1046" d="M330.241,713.749h-1.348a8.9,8.9,0,0,1-1.444,4.35h1.2A8.315,8.315,0,0,0,330.241,713.749Z" transform="translate(-317.697 -713.749)" fill="#00337d"/>
      <path id="패스_1047" data-name="패스 1047" d="M318.709,723.589a11.9,11.9,0,0,0,6.77-4.453h-1.031A10.656,10.656,0,0,1,318.709,723.589Z" transform="translate(-317.368 -713.952)" fill="#00337d"/>
      <path id="패스_1048" data-name="패스 1048" d="M327.57,713.749h-1.256a10.582,10.582,0,0,1-1.146,4.35h1.093A9.521,9.521,0,0,0,327.57,713.749Z" transform="translate(-317.611 -713.749)" fill="#00337d"/>
    </g>
    <g id="그룹_214" data-name="그룹 214" transform="translate(297.507 713.165)">
      <path id="패스_1049" data-name="패스 1049" d="M298.947,713.749h-1.309c.367,5.192,6.872,9.4,15.165,9.967l-.134-.025C305.145,723.051,299.285,718.88,298.947,713.749Z" transform="translate(-297.638 -713.749)" fill="#dc0016"/>
      <path id="패스_1050" data-name="패스 1050" d="M311.667,723.385a10.6,10.6,0,0,1-7.364-9.636h-1.254C303.272,718.346,306.844,722.179,311.667,723.385Z" transform="translate(-297.841 -713.749)" fill="#dc0016"/>
      <path id="패스_1051" data-name="패스 1051" d="M301.71,713.749h-1.344a8.29,8.29,0,0,0,1.572,4.322h1.2A8.83,8.83,0,0,1,301.71,713.749Z" transform="translate(-297.741 -713.749)" fill="#dc0016"/>
      <path id="패스_1052" data-name="패스 1052" d="M312.708,723.867c-.11-.024-.217-.05-.321-.074a13.539,13.539,0,0,1-8.513-4.621h-1.136A15.649,15.649,0,0,0,312.708,723.867Z" transform="translate(-297.83 -713.953)" fill="#dc0016"/>
    </g>
    <g id="그룹_215" data-name="그룹 215" transform="translate(316.445 702.274)">
      <path id="패스_1053" data-name="패스 1053" d="M330.916,708.079h-1.16a8.093,8.093,0,0,1,1.848,4.16h1.306A7.838,7.838,0,0,0,330.916,708.079Z" transform="translate(-317.784 -702.645)" fill="#dc0016"/>
      <path id="패스_1054" data-name="패스 1054" d="M329.545,706.965c-2.738-2.47-7.146-4.19-12.229-4.532.043,0,.087.015.134.023a18.028,18.028,0,0,1,11.011,4.509Z" transform="translate(-317.316 -702.433)" fill="#dc0016"/>
      <path id="패스_1055" data-name="패스 1055" d="M329.74,711.382c-.01-.039-.021-.08-.028-.121a8.7,8.7,0,0,0-1.621-3.46h-.012a10.679,10.679,0,0,0-2.416-2.343,16.812,16.812,0,0,0-8.046-2.969l.313.072a14.363,14.363,0,0,1,6.665,2.805l-.007,0a.755.755,0,0,1,.085.062,11.456,11.456,0,0,1,1.542,1.476,9.873,9.873,0,0,1,2.278,5.123h1.345a5.07,5.07,0,0,0-.081-.543C329.751,711.449,329.745,711.418,329.74,711.382Z" transform="translate(-317.327 -702.435)" fill="#dc0016"/>
      <path id="패스_1056" data-name="패스 1056" d="M325.069,708.079a10.575,10.575,0,0,1,1.216,4.16h1.255a9.594,9.594,0,0,0-1.386-4.16Z" transform="translate(-317.607 -702.645)" fill="#dc0016"/>
      <path id="패스_1057" data-name="패스 1057" d="M318.709,702.779a10.616,10.616,0,0,1,5.569,4.2h1.014A11.9,11.9,0,0,0,318.709,702.779Z" transform="translate(-317.368 -702.446)" fill="#dc0016"/>
    </g>
    <g id="그룹_216" data-name="그룹 216" transform="translate(306.719 710.317)">
      <path id="패스_1058" data-name="패스 1058" d="M323.334,713.208l-.282-.209.27-.235a1.051,1.051,0,0,0,.408-.763c0-.659-.8-1.211-1.74-1.211h-3.27v4.835l1.018,0,2.127,0c1.11,0,2.042-.66,2.042-1.437A1.276,1.276,0,0,0,323.334,713.208Zm-3.2-.716v-1.256h1.217a.82.82,0,0,1,.88.765.806.806,0,0,1-.88.756h-1.217Zm1.16,2.686h-1.16V713.2h1.16a1,1,0,1,1,0,1.976Z" transform="translate(-307.643 -710.79)" fill="#00337d"/>
      <path id="패스_1059" data-name="패스 1059" d="M307.21,715.625h1.4V710.79h-1.4Z" transform="translate(-307.21 -710.79)" fill="#00337d"/>
      <path id="패스_1060" data-name="패스 1060" d="M314.707,710.79c-.115.25-2.215,4.75-2.215,4.75l-2.275-2.568s1.4-1.576,1.942-2.182h-.941c-.117.134-2.481,2.789-2.493,2.8.012.015,1.693,1.9,1.808,2.031h2.505l1.741-3.77,1.032,2.222h-1.651l.254.569h1.657l.453.979H318s-2.133-4.583-2.246-4.835Z" transform="translate(-307.267 -710.79)" fill="#00337d"/>
    </g>
    <g id="그룹_217" data-name="그룹 217" transform="translate(303.508 721.428)">
      <path id="패스_1061" data-name="패스 1061" d="M305.063,725.114l-1.189-.538.23-.508.224.1-.144.317.966.436Zm-.355-1.555a.6.6,0,0,1,.272.214.261.261,0,0,1,.017.258.265.265,0,0,1-.206.162.582.582,0,0,1-.339-.063.606.606,0,0,1-.275-.214.264.264,0,0,1-.014-.26.26.26,0,0,1,.206-.161A.585.585,0,0,1,304.707,723.559Zm.528.169-1.022-.463.079-.175,1.023.462Zm-.705.228a.463.463,0,0,0,.163.044.1.1,0,0,0,.1-.058.1.1,0,0,0-.026-.117.456.456,0,0,0-.143-.092.415.415,0,0,0-.166-.045.1.1,0,0,0-.077.173A.477.477,0,0,0,304.53,723.956Zm.543-.6-.445-.2.078-.169.444.2Zm.556,1.014-.218-.1-.218.48-.225-.1.6-1.326.224.1-.291.644.22.1Z" transform="translate(-303.874 -722.359)" fill="#00337d"/>
      <path id="패스_1062" data-name="패스 1062" d="M308.263,724.968a.645.645,0,0,0,.1-.175,1.664,1.664,0,0,0,.064-.183l-1.034-.3.063-.212,1.294.376a2.184,2.184,0,0,1-.118.324c-.044.1-.085.179-.121.244l.3.088-.063.214-.748-.218-.075.259.5.142-.2.7-.236-.069.14-.482-1.035-.3.061-.214.54.159.075-.258-.746-.218.062-.216Z" transform="translate(-303.992 -722.401)" fill="#00337d"/>
      <path id="패스_1063" data-name="패스 1063" d="M310.9,725.021a.474.474,0,0,1,.331.191.455.455,0,0,1,.079.34.428.428,0,0,1-.179.291.487.487,0,0,1-.37.072.52.52,0,0,1-.329-.176.4.4,0,0,1-.087-.339.474.474,0,0,1,.167-.3A.469.469,0,0,1,310.9,725.021Zm.781,1.84-1.323-.208.1-.621.243.039-.064.4,1.081.169Zm-.887-1.166a.246.246,0,0,0,.189-.039.217.217,0,0,0,.089-.142.24.24,0,0,0-.039-.169.236.236,0,0,0-.166-.1.227.227,0,0,0-.2.044.263.263,0,0,0-.081.15.229.229,0,0,0,.034.161A.236.236,0,0,0,310.794,725.694Zm.882.715-.242-.039.216-1.382.243.039Z" transform="translate(-304.117 -722.435)" fill="#00337d"/>
      <path id="패스_1064" data-name="패스 1064" d="M314.27,725.909a1.267,1.267,0,0,0,.138.114.971.971,0,0,0,.184.1l-.167.178a1.019,1.019,0,0,1-.147-.089,1.2,1.2,0,0,1-.142-.112c-.028-.027-.059-.055-.09-.089a.745.745,0,0,1-.084-.121.456.456,0,0,1-.082.121c-.036.036-.067.07-.1.1a1,1,0,0,1-.122.1.842.842,0,0,1-.151.085l-.2-.173a1.157,1.157,0,0,0,.2-.1.9.9,0,0,0,.148-.115,1.2,1.2,0,0,0,.1-.116.559.559,0,0,0,.085-.222l-.374-.013.008-.22,1.019.038-.008.221-.384-.015a.49.49,0,0,0,.06.2A.581.581,0,0,0,314.27,725.909Zm.028.464a1.623,1.623,0,0,1,.46.081.312.312,0,0,1-.022.6,1.7,1.7,0,0,1-.466.049,1.552,1.552,0,0,1-.457-.084.314.314,0,0,1,.022-.6A1.706,1.706,0,0,1,314.3,726.372Zm-.021.516a2.238,2.238,0,0,0,.311-.011c.088-.011.134-.051.137-.124s-.041-.117-.13-.137a1.922,1.922,0,0,0-.3-.033,1.889,1.889,0,0,0-.3.01c-.087.012-.132.055-.135.128s.038.115.125.134A2.252,2.252,0,0,0,314.276,726.888Zm.69-.505-.248-.011.016-.418-.315-.012.009-.223.315.013.018-.5.246.01Z" transform="translate(-304.229 -722.444)" fill="#00337d"/>
      <path id="패스_1065" data-name="패스 1065" d="M317.563,726.281a.865.865,0,0,0,.168.149,1.531,1.531,0,0,0,.214.127l-.167.209a1.359,1.359,0,0,1-.179-.115,1.334,1.334,0,0,1-.156-.133,1.174,1.174,0,0,1-.111-.13.905.905,0,0,1-.093-.141,1.137,1.137,0,0,1-.066.146.931.931,0,0,1-.086.142c-.036.051-.082.111-.137.175a1,1,0,0,1-.155.15l-.222-.158a1.115,1.115,0,0,0,.2-.182,1.539,1.539,0,0,0,.18-.227.761.761,0,0,0,.1-.242.978.978,0,0,0,.026-.322l-.009-.1-.412.033-.017-.224,1.078-.085.018.222-.416.035.008.1a.9.9,0,0,0,.089.367A1.822,1.822,0,0,0,317.563,726.281Zm.705.69-.245.019-.146-1.88.244-.018Z" transform="translate(-304.351 -722.439)" fill="#00337d"/>
      <path id="패스_1066" data-name="패스 1066" d="M321.115,725.621c-.047.013-.115.032-.2.059s-.165.046-.222.06l.069.345-.241.048-.065-.325c-.07.024-.161.049-.271.079l-.291.081-.082-.207c.061-.013.171-.039.329-.08s.3-.078.412-.111c.1-.025.179-.049.252-.071s.154-.046.248-.077Zm-.786-.8a.686.686,0,0,1,.337.016.28.28,0,0,1,.2.228.271.271,0,0,1-.094.283.672.672,0,0,1-.305.142.686.686,0,0,1-.34-.011.3.3,0,0,1-.1-.512A.711.711,0,0,1,320.329,724.821Zm.1.486a.386.386,0,0,0,.163-.071.122.122,0,0,0,.053-.13.117.117,0,0,0-.1-.094.392.392,0,0,0-.177,0,.443.443,0,0,0-.17.07.127.127,0,0,0-.059.129.122.122,0,0,0,.1.1A.444.444,0,0,0,320.428,725.307Zm1.223,1.059-1.319.267-.122-.6.242-.049.077.381,1.075-.217Zm-.145-.357-.241.051-.034-.162-.368.073-.04-.2.369-.074-.219-1.083.242-.049Z" transform="translate(-304.473 -722.419)" fill="#00337d"/>
      <path id="패스_1067" data-name="패스 1067" d="M323.4,724.4a.446.446,0,0,0,.211.267,1.1,1.1,0,0,0,.293.128l-.12.22a1.274,1.274,0,0,1-.228-.113,1.435,1.435,0,0,1-.189-.137,2,2,0,0,1-.063.227.992.992,0,0,1-.126.257l-.251-.072a1.558,1.558,0,0,0,.21-.439.979.979,0,0,0-.06-.557l.244-.065c.013.046.024.093.037.138S323.382,724.347,323.4,724.4Zm1.5.974-1.318.452-.218-.633.231-.08.148.423,1.083-.372Zm-.6-.321-.225.077-.2-.592-.233.081-.071-.211.232-.08-.144-.42.224-.076Zm.4-.072-.224.079-.458-1.334.223-.079Z" transform="translate(-304.59 -722.384)" fill="#00337d"/>
      <path id="패스_1068" data-name="패스 1068" d="M327.354,723.919a3.214,3.214,0,0,1-.351.225c-.185.108-.385.217-.6.332l-.635-1.222.847-.44.1.2-.629.327.141.269.517-.268.1.188-.515.268.191.37c.111-.059.237-.128.381-.208a2.394,2.394,0,0,0,.335-.221Zm.536.088-.218.113-.416-.8-.321.167-.1-.2.321-.167-.351-.676.217-.113Z" transform="translate(-304.697 -722.335)" fill="#00337d"/>
    </g>
  </g>
</svg>
