<svg xmlns="http://www.w3.org/2000/svg" xmlns:xlink="http://www.w3.org/1999/xlink" viewBox="0 0 656.58 415.15"><defs><style>.cls-1{isolation:isolate;}.cls-2{fill:#4073b3;stroke-width:10.52px;}.cls-10,.cls-2{stroke:#253f8c;}.cls-10,.cls-11,.cls-2,.cls-3,.cls-4,.cls-5,.cls-6,.cls-7,.cls-8{stroke-miterlimit:10;}.cls-10,.cls-3{fill:#253f8c;}.cls-11,.cls-3,.cls-5{stroke:#fff;}.cls-3{stroke-width:5.05px;}.cls-4,.cls-5{fill:none;stroke-width:2.63px;}.cls-4{stroke:#f8f9fc;}.cls-6,.cls-7,.cls-8{fill:#f8f9fc;stroke:#4073b3;stroke-width:1.31px;}.cls-6{filter:url(#filter);}.cls-7{filter:url(#filter-2);}.cls-8{filter:url(#filter-3);}.cls-9{mix-blend-mode:multiply;opacity:0.75;}.cls-10,.cls-11{stroke-width:2.63px;}.cls-11{fill:#fff;}</style><filter id="filter" x="135.35" y="125.4" width="67" height="165" filterUnits="userSpaceOnUse"><feOffset input="SourceAlpha"/><feGaussianBlur stdDeviation="3.73" result="blur"/><feFlood flood-color="#fff"/><feComposite operator="in" in2="blur"/><feComposite in="SourceGraphic"/></filter><filter id="filter-2" x="206.35" y="126.4" width="200" height="168" filterUnits="userSpaceOnUse"><feOffset input="SourceAlpha"/><feGaussianBlur stdDeviation="3.73" result="blur-2"/><feFlood flood-color="#fff"/><feComposite operator="in" in2="blur-2"/><feComposite in="SourceGraphic"/></filter><filter id="filter-3" x="396.35" y="127.4" width="126" height="163" filterUnits="userSpaceOnUse"><feOffset input="SourceAlpha"/><feGaussianBlur stdDeviation="3.73" result="blur-3"/><feFlood flood-color="#fff"/><feComposite operator="in" in2="blur-3"/><feComposite in="SourceGraphic"/></filter></defs><g class="cls-1"><g id="Layer_1" data-name="Layer 1"><ellipse class="cls-2" cx="328.29" cy="207.58" rx="323.03" ry="202.32"/><ellipse class="cls-3" cx="328.29" cy="207.58" rx="246.68" ry="126.77"/><path class="cls-4" d="M328.71,332.34c-252.6-14-274.07-229.15-2.41-249.75C587,92.67,596.64,315.69,328.71,332.34Z"/><path class="cls-4" d="M330.37,332.45C122,316.89,106.18,101.56,328,82.7,538.3,94.48,545.62,317.58,330.37,332.45Z"/><path class="cls-4" d="M325.65,332.45C160.46,329.59,156.8,96.73,323.24,82.7,492.11,92.62,498.2,315.66,325.65,332.45Z"/><path class="cls-4" d="M327.64,332.45c-68.13-4.79-73-237.32-2.41-249.75C395.39,83.31,405.89,307.42,327.64,332.45Z"/><path class="cls-4" d="M327.63,332.46c-33-4.79-34.52-237.32-2.41-249.75C360.29,80,367.36,303.77,327.63,332.46Z"/><path class="cls-4" d="M327.74,332.45C221.21,332.26,200.6,100,325.33,82.7,448.24,93.49,446,316.23,327.74,332.45Z"/><line class="cls-4" x1="325.99" y1="79.96" x2="325.99" y2="334.09"/><line class="cls-5" x1="169.89" y1="111.5" x2="487.12" y2="111.5"/><line class="cls-5" x1="113.81" y1="144.17" x2="540.58" y2="144.17"/><line class="cls-5" x1="88.4" y1="176.59" x2="567.74" y2="176.59"/><line class="cls-5" x1="81.61" y1="207.81" x2="574.97" y2="207.81"/><line class="cls-5" x1="89.28" y1="239.15" x2="566.87" y2="239.15"/><line class="cls-5" x1="115.57" y1="272.45" x2="538.82" y2="272.45"/><line class="cls-5" x1="167.27" y1="303.66" x2="489.75" y2="303.66"/><path class="cls-6" d="M147.38,138.13h42.23v139H147.55S147.38,138.62,147.38,138.13Z"/><path class="cls-7" d="M323.19,138.79,290,138.62,218.61,274.75l41.49,6.66,13.36-29.69,65.72.44L353.59,280l39.6-5.18Zm-37.95,85.27,21-44,20.87,44.2Z"/><polygon class="cls-8" points="409.29 277.13 448.73 277.13 448.73 221.76 503.93 221.76 503.93 192.51 448.4 192.51 448.4 167.7 509.19 167.7 509.19 139.44 408.96 139.44 409.29 277.13"/><g class="cls-9"><path class="cls-10" d="M40.14,264.66q9.3-9.39,18.61-18.76c1.8,1.78,3.62,3.55,5.44,5.29a8.32,8.32,0,0,1,2.88,5,6.2,6.2,0,0,1-1.89,4.89,7.63,7.63,0,0,1-4,2.38,8.51,8.51,0,0,1-4.87-.42q-1.1,7.47-2,15c-1.15-1-2.29-2.08-3.42-3.13q1-6.68,2.19-13.28c-.83-.8-1.65-1.59-2.47-2.4l-7.8,8C41.93,266.43,41,265.54,40.14,264.66Zm12.44-7.37.86.83a8,8,0,0,0,4.7,2.54,4.94,4.94,0,0,0,4.09-1.81c1.87-2,1.42-4.28-1.3-6.9l-1.62-1.57Z"/><path class="cls-10" d="M61.52,284.46l17.25-20Q84,269,89.37,273.27l-1.75,2.18q-4-3.22-8-6.59l-5.48,6.48Q77.54,278.21,81,281l-1.74,2.15q-3.46-2.81-6.88-5.7l-6.18,7.3q4.47,3.79,9,7.42l-1.75,2.19Q67.41,289.54,61.52,284.46Z"/><path class="cls-10" d="M97.91,310.88a16.94,16.94,0,0,1-8-3.18c-3.29-2.37-5.1-5.22-5.41-8.47s.92-6.62,3.61-10.13,5.63-5.56,8.78-6.21,6.25.14,9.36,2.38a33.18,33.18,0,0,1,5.58,5.35l-2,2.9a25.68,25.68,0,0,0-5.27-6,7.44,7.44,0,0,0-6.73-1.32c-2.34.68-4.58,2.42-6.7,5.25s-3,5.31-2.83,7.85A8.24,8.24,0,0,0,92,305.62a15.68,15.68,0,0,0,7.71,2.62Z"/><path class="cls-10" d="M114.84,324.33a10.76,10.76,0,0,1-5.39-7.86c-.46-3.3.49-6.7,2.8-10.23s5-5.76,8.14-6.75a11.11,11.11,0,0,1,14.08,8.67c.5,3.21-.26,6.65-2.37,10.31s-4.7,6-7.84,7.12A10.67,10.67,0,0,1,114.84,324.33Zm1.47-2.38a6.84,6.84,0,0,0,6.61.56c2.22-1,4.2-2.95,6-6s2.53-5.67,2.35-8a7.07,7.07,0,0,0-9.7-6c-2.19.91-4.24,2.81-6.11,5.73s-2.77,5.6-2.61,8A6.87,6.87,0,0,0,116.31,322Z"/><path class="cls-10" d="M152.21,343.23a26.89,26.89,0,0,1-7.84-2.35c-3.62-1.84-5.83-4.36-6.6-7.48s-.06-6.65,2.09-10.58,4.68-6.35,7.65-7.5,6.1-.88,9.42.81a27.51,27.51,0,0,1,6.21,4.41l-1.51,3.12a25.31,25.31,0,0,0-6-5,7.25,7.25,0,0,0-6.72-.22c-2.18,1-4.12,3.1-5.78,6.21s-2.22,5.85-1.7,8.32a8.21,8.21,0,0,0,4.7,5.7,12.56,12.56,0,0,0,3.77,1.14l3.81-7.71,3.16,1.54Q154.53,338.42,152.21,343.23Z"/><path class="cls-10" d="M162.66,348.89l10.82-24.12,3,1.34q1.38,11.75,3.39,23.55,3.8-9.46,7.61-18.93l2.68,1.06q-4.85,12.3-9.68,24.59c-1.09-.42-2.18-.85-3.26-1.29q-2.09-11.85-3.55-23.63l-8.21,18.68Z"/><path class="cls-10" d="M191.74,360.62l9-24.87,3.15,1.12q-4.37,12.48-8.75,24.94Z"/><path class="cls-10" d="M212.18,367.38q3.44-11.31,6.86-22.61-4-1.22-8-2.52l.87-2.67q9.54,3.1,19.19,5.71l-.73,2.71q-4.05-1.1-8.08-2.27L215.6,368.4Z"/><path class="cls-10" d="M232.87,373.05q3.18-12.82,6.35-25.66l3.24.79q-3.08,12.85-6.14,25.71Z"/><path class="cls-10" d="M257.86,379.08a10.27,10.27,0,0,1-7.6-5.32c-1.57-2.88-1.88-6.39-1-10.51s2.57-7.21,5-9.27a10.55,10.55,0,0,1,15.78,2.87c1.58,2.8,2.07,6.28,1.43,10.45s-2.17,7.33-4.65,9.49A10.31,10.31,0,0,1,257.86,379.08Zm.51-2.76a6.58,6.58,0,0,0,6.19-1.9c1.69-1.7,2.8-4.29,3.36-7.73s.33-6.19-.65-8.33a6.74,6.74,0,0,0-10.87-2c-1.68,1.66-2.87,4.17-3.56,7.57s-.57,6.22.4,8.41A6.59,6.59,0,0,0,258.37,376.32Z"/><path class="cls-10" d="M279.82,381.8l3.36-26.21,3.23.4q4.62,10.83,9.87,21.54.92-10.15,1.82-20.33l2.83.25-2.16,26.33-3.44-.29q-5.34-10.73-10.05-21.57Q284,372,282.83,382.18Z"/><path class="cls-10" d="M340.39,385.1q4.69-13.31,8.76-26.71c1.09,0,2.19-.09,3.28-.15q5.22,13,11.05,25.79l-3.81.27q-1.59-3.56-3.13-7.13-5.18.3-10.37.47c-.81,2.47-1.65,4.93-2.5,7.38Zm6.68-10.29q4.15-.15,8.31-.38-2.4-5.58-4.67-11.19Q348.94,369,347.07,374.81Z"/><path class="cls-10" d="M372.5,383.27Q371.24,370.12,370,357c2.35-.22,4.69-.47,7-.73a7.38,7.38,0,0,1,5.33,1,6.39,6.39,0,0,1,2.43,4.6,7.93,7.93,0,0,1-.68,4.6,8,8,0,0,1-3.19,3.44q4.75,5.67,9.74,11.22l-4.31.58q-4.24-5.1-8.31-10.26l-3.19.34L376,382.92Zm2-14.25,1.11-.12a7.08,7.08,0,0,0,4.61-1.94,5.1,5.1,0,0,0,1.13-4.29c-.35-2.72-2.26-3.85-5.76-3.47l-2.09.23C373.86,362.62,374.2,365.82,374.53,369Z"/><path class="cls-10" d="M399.56,379.79q-2.13-13.05-4.25-26.09c2.33-.38,4.66-.77,7-1.19a7.42,7.42,0,0,1,5.39.69,6.37,6.37,0,0,1,2.73,4.43,8,8,0,0,1-.37,4.65,8.11,8.11,0,0,1-3,3.64q5.13,5.32,10.47,10.54c-1.42.3-2.84.59-4.27.87q-4.57-4.8-9-9.69l-3.16.55,1.89,11Zm1.1-14.36,1.09-.19a7,7,0,0,0,4.49-2.24,5.09,5.09,0,0,0,.84-4.36c-.52-2.69-2.51-3.69-6-3.07l-2.07.36Q399.84,360.67,400.66,365.43Z"/><path class="cls-10" d="M423.52,375.18q2-14,3.27-27.92l3.2-.81q7.74,11.66,16.07,23l-3.7,1q-2.28-3.15-4.52-6.35-5,1.35-10.12,2.55-.47,3.87-1,7.74ZM428,363.76q4.07-1,8.11-2.05-3.48-5-6.84-10Q428.73,357.72,428,363.76Z"/><path class="cls-10" d="M454.81,366.91,447,341.65l3.13-1q8.73,7.95,18,15.52-3.39-9.63-6.76-19.26l2.71-1q4.46,12.45,8.93,24.88l-3.3,1.17q-9.36-7.54-18.17-15.47,3.06,9.72,6.13,19.46Z"/><path class="cls-10" d="M501.58,348.65a27,27,0,0,1-6.82,4.45c-3.72,1.57-7,1.62-9.9.18s-5.08-4.26-6.7-8.43-1.85-7.67-.83-10.68,3.22-5.19,6.62-6.63a27.12,27.12,0,0,1,7.35-1.88l1.41,3.16a25.19,25.19,0,0,0-7.69,1.31,7.14,7.14,0,0,0-4.46,5c-.6,2.33-.26,5.13,1,8.41s3,5.47,5.23,6.67a8.08,8.08,0,0,0,7.34.12,12.59,12.59,0,0,0,3.29-2.13c-1.15-2.63-2.29-5.27-3.44-7.9,1.07-.46,2.14-.93,3.2-1.41Q499.41,343.76,501.58,348.65Z"/><path class="cls-10" d="M512.64,344.31,501.2,320.49c4-1.92,8-3.92,11.91-6l1.3,2.48q-4.44,2.33-8.94,4.54,1.88,3.8,3.74,7.61,3.85-1.89,7.66-3.86l1.28,2.45c-2.56,1.33-5.14,2.63-7.72,3.9q2.11,4.29,4.22,8.59,5.07-2.49,10.07-5.12l1.3,2.48Q519.39,341.08,512.64,344.31Z"/><path class="cls-10" d="M534.59,333l-12.84-23.1,4.09-2.31q8,7.21,16.21,14.21-2.12-10.63-4.58-21.15c1.2-.74,2.4-1.5,3.6-2.26l14.16,22.33-2.91,1.83q-5.67-9.12-11.35-18.23,2.35,10.14,4.39,20.41c-1,.6-2,1.2-3,1.79q-8-6.78-15.64-13.78l10.6,18.74Z"/><path class="cls-10" d="M565.52,313.91Q558.11,303,550.71,292q5.61-3.81,11.12-7.83l1.65,2.27q-4.14,3-8.33,5.92l4.81,7q3.6-2.48,7.15-5.05l1.62,2.24q-3.59,2.59-7.2,5.09l5.43,7.88q4.74-3.27,9.39-6.68c.55.76,1.1,1.51,1.66,2.26Q571.83,309.65,565.52,313.91Z"/><path class="cls-10" d="M586,299.13l-16.11-21,2.69-2.09q11.16,4.21,22.72,7.85l-13.09-15.66,2.3-1.94,17.1,20.15-2.79,2.36q-11.64-3.58-22.87-7.75l12.56,16.08C587.64,297.83,586.8,298.48,586,299.13Z"/><path class="cls-10" d="M615.74,273.87l-16.1-17.3q-3.25,3-6.58,6l-1.86-2.1q7.9-7,15.5-14.57l2,2q-3.2,3.17-6.43,6.24l16.24,17.14Z"/></g><path class="cls-11" d="M36.41,260.93q9.31-9.37,18.61-18.76c1.8,1.79,3.62,3.55,5.45,5.3a8.35,8.35,0,0,1,2.87,5,6.16,6.16,0,0,1-1.89,4.9,7.58,7.58,0,0,1-4,2.37,8.47,8.47,0,0,1-4.86-.41q-1.1,7.47-2,15l-3.42-3.13q1-6.69,2.19-13.29l-2.47-2.39-7.8,8Zm12.45-7.37.85.83a8,8,0,0,0,4.7,2.55,5,5,0,0,0,4.1-1.81c1.87-2,1.42-4.28-1.3-6.9l-1.63-1.58Z"/><path class="cls-11" d="M57.79,280.73q8.64-10,17.26-20,5.24,4.53,10.59,8.83l-1.75,2.19q-4-3.24-8-6.6l-5.48,6.48q3.39,2.88,6.83,5.66l-1.74,2.15q-3.47-2.81-6.87-5.7L62.46,281q4.46,3.78,9,7.42l-1.75,2.19Q63.68,285.81,57.79,280.73Z"/><path class="cls-11" d="M94.19,307.16a17.07,17.07,0,0,1-8-3.18c-3.29-2.37-5.1-5.23-5.4-8.47s.91-6.62,3.61-10.14,5.62-5.55,8.78-6.21,6.25.15,9.35,2.38a33.29,33.29,0,0,1,5.58,5.36l-2,2.89a26.35,26.35,0,0,0-5.28-6,7.46,7.46,0,0,0-6.73-1.31c-2.33.68-4.57,2.41-6.7,5.24s-3,5.32-2.82,7.86a8.2,8.2,0,0,0,3.72,6.32A15.68,15.68,0,0,0,96,304.51Z"/><path class="cls-11" d="M111.12,320.61a10.75,10.75,0,0,1-5.39-7.86c-.47-3.3.48-6.71,2.79-10.23s5-5.76,8.14-6.76a11.12,11.12,0,0,1,14.09,8.67c.5,3.22-.27,6.65-2.37,10.31s-4.7,6-7.84,7.12A10.66,10.66,0,0,1,111.12,320.61Zm1.47-2.39a6.8,6.8,0,0,0,6.6.56c2.22-.95,4.2-2.95,6-6s2.53-5.67,2.36-8a7.08,7.08,0,0,0-9.7-6c-2.2.92-4.24,2.81-6.12,5.73s-2.76,5.61-2.61,8A6.86,6.86,0,0,0,112.59,318.22Z"/><path class="cls-11" d="M148.48,339.51a27.2,27.2,0,0,1-7.84-2.35c-3.62-1.85-5.83-4.37-6.6-7.49s0-6.65,2.09-10.58,4.68-6.35,7.66-7.5a11.16,11.16,0,0,1,9.41.81,27.66,27.66,0,0,1,6.21,4.42l-1.5,3.12a25.66,25.66,0,0,0-6-5.05,7.24,7.24,0,0,0-6.73-.21c-2.18,1-4.11,3.09-5.77,6.2s-2.23,5.85-1.71,8.32a8.2,8.2,0,0,0,4.71,5.7,12.4,12.4,0,0,0,3.76,1.15l3.81-7.72,3.16,1.54Z"/><path class="cls-11" d="M158.94,345.16,169.75,321l3,1.34q1.38,11.75,3.39,23.56L183.78,327l2.67,1.06-9.68,24.6-3.25-1.3q-2.1-11.83-3.55-23.63l-8.22,18.68Z"/><path class="cls-11" d="M188,356.89,197,332l3.16,1.12-8.76,24.94Z"/><path class="cls-11" d="M208.46,363.65q3.42-11.29,6.85-22.61c-2.68-.81-5.36-1.65-8-2.52l.87-2.66q9.53,3.11,19.19,5.71c-.25.9-.49,1.8-.74,2.7-2.7-.73-5.39-1.48-8.08-2.27l-6.66,22.67C210.73,364.34,209.59,364,208.46,363.65Z"/><path class="cls-11" d="M229.14,369.32q3.18-12.82,6.35-25.65l3.24.78q-3.06,12.85-6.13,25.71C231.45,369.89,230.29,369.61,229.14,369.32Z"/><path class="cls-11" d="M254.14,375.35a10.29,10.29,0,0,1-7.61-5.31c-1.56-2.89-1.88-6.4-1-10.52s2.57-7.2,5-9.27a10.56,10.56,0,0,1,15.79,2.87c1.57,2.81,2.07,6.28,1.43,10.45s-2.18,7.34-4.66,9.49A10.26,10.26,0,0,1,254.14,375.35Zm.5-2.76a6.55,6.55,0,0,0,6.2-1.9c1.68-1.7,2.79-4.28,3.35-7.72s.34-6.2-.65-8.34a6.73,6.73,0,0,0-10.87-2c-1.67,1.65-2.87,4.17-3.56,7.56s-.57,6.23.41,8.41A6.56,6.56,0,0,0,254.64,372.59Z"/><path class="cls-11" d="M276.09,378.08l3.36-26.22,3.23.4q4.62,10.83,9.88,21.55.9-10.17,1.81-20.33l2.83.24L295,380.06l-3.44-.3q-5.34-10.71-10.05-21.56-1.23,10.13-2.45,20.25Z"/><path class="cls-11" d="M336.66,381.37q4.71-13.31,8.77-26.7l3.27-.15q5.22,13,11.05,25.79l-3.8.26c-1.06-2.37-2.1-4.75-3.13-7.12-3.46.2-6.91.35-10.37.47q-1.23,3.69-2.51,7.38Zm6.68-10.29c2.77-.1,5.54-.22,8.31-.38q-2.4-5.58-4.67-11.19Q345.23,365.32,343.34,371.08Z"/><path class="cls-11" d="M368.78,379.54q-1.27-13.16-2.54-26.3c2.35-.23,4.69-.47,7-.74a7.41,7.41,0,0,1,5.32,1.05,6.36,6.36,0,0,1,2.43,4.6,7.85,7.85,0,0,1-3.87,8.05q4.75,5.66,9.74,11.21l-4.31.58q-4.24-5.08-8.31-10.26l-3.18.35q.58,5.55,1.16,11.12Zm2-14.25,1.1-.12a7,7,0,0,0,4.62-1.94,5.13,5.13,0,0,0,1.12-4.29c-.34-2.72-2.26-3.85-5.76-3.46l-2.09.22C370.14,358.9,370.47,362.09,370.81,365.29Z"/><path class="cls-11" d="M395.84,376.06,391.58,350q3.5-.57,7-1.2a7.5,7.5,0,0,1,5.4.69,6.42,6.42,0,0,1,2.73,4.44,7.89,7.89,0,0,1-3.34,8.28q5.11,5.34,10.47,10.55l-4.28.86q-4.57-4.8-9-9.69l-3.16.56,1.89,11Zm1.09-14.36,1.1-.19a7.08,7.08,0,0,0,4.49-2.24,5.1,5.1,0,0,0,.84-4.35c-.52-2.69-2.51-3.7-6-3.08l-2.08.36C395.84,355.37,396.39,358.54,396.93,361.7Z"/><path class="cls-11" d="M419.79,371.45q2-14,3.28-27.92l3.2-.81q7.74,11.65,16.06,23l-3.7,1q-2.28-3.17-4.51-6.35Q429.07,361.78,424,363c-.31,2.58-.64,5.15-1,7.73ZM424.31,360c2.7-.65,5.41-1.33,8.11-2q-3.48-5-6.85-10Q425,354,424.31,360Z"/><path class="cls-11" d="M451.08,363.19l-7.77-25.27,3.13-1q8.73,7.94,18,15.52L457.7,333.2l2.7-.95q4.47,12.44,8.93,24.88L466,358.29q-9.36-7.55-18.18-15.47L454,362.28Z"/><path class="cls-11" d="M497.85,344.92a26.66,26.66,0,0,1-6.82,4.46c-3.71,1.57-7,1.61-9.9.18s-5.08-4.26-6.69-8.44-1.85-7.66-.83-10.67a11,11,0,0,1,6.62-6.64,27.41,27.41,0,0,1,7.34-1.88L489,325.1a24.94,24.94,0,0,0-7.69,1.31,7.15,7.15,0,0,0-4.45,5q-.91,3.5,1,8.4c1.29,3.24,3,5.48,5.24,6.68a8.11,8.11,0,0,0,7.34.11,12.2,12.2,0,0,0,3.28-2.13l-3.44-7.89,3.21-1.41Z"/><path class="cls-11" d="M508.91,340.59l-11.44-23.83q6-2.88,11.92-6c.43.83.86,1.66,1.3,2.49q-4.45,2.33-8.94,4.53,1.86,3.81,3.74,7.62,3.84-1.89,7.66-3.87l1.27,2.46q-3.84,2-7.71,3.89,2.1,4.29,4.22,8.59Q516,334,521,331.38c.44.82.87,1.65,1.31,2.48Q515.66,337.36,508.91,340.59Z"/><path class="cls-11" d="M530.86,329.22,518,306.12q2.06-1.14,4.09-2.31,8,7.21,16.22,14.21-2.13-10.63-4.59-21.14l3.61-2.26q7.06,11.16,14.15,22.32l-2.91,1.83-11.34-18.23q2.36,10.15,4.39,20.41c-1,.61-2,1.2-3,1.8Q530.67,316,523,309q5.31,9.36,10.6,18.73Z"/><path class="cls-11" d="M561.79,310.18,547,288.29q5.63-3.81,11.12-7.83l1.66,2.27q-4.14,3-8.34,5.92l4.81,7q3.6-2.49,7.15-5.06l1.62,2.25q-3.57,2.58-7.19,5.09l5.43,7.88q4.72-3.27,9.38-6.68c.56.75,1.11,1.5,1.66,2.26Q568.1,305.91,561.79,310.18Z"/><path class="cls-11" d="M582.23,295.4l-16.11-20.95,2.7-2.1q11.14,4.22,22.71,7.85l-13.08-15.66,2.29-1.94,17.11,20.15-2.8,2.36q-11.62-3.57-22.86-7.74l12.56,16.08Z"/><path class="cls-11" d="M612,270.14q-8.06-8.64-16.09-17.29-3.27,3-6.58,6c-.62-.7-1.24-1.4-1.87-2.09q7.9-7,15.51-14.58l2,2q-3.19,3.17-6.43,6.24l16.25,17.15Z"/><g class="cls-9"><path class="cls-10" d="M83.44,146.07,68,124.63c1.33-1,2.66-1.9,4-2.85q8.72,6.36,17.21,12.95-3-10.36-5.61-20.85c1.22-.81,2.45-1.6,3.68-2.39l14.3,22.22L99,135.4q-5.88-9-11.75-18,2.55,10.09,5.39,20.07l-2.67,1.83Q81.73,133,73.3,126.86L85.77,144.4Z"/><path class="cls-10" d="M111,127.82l-13.71-22.6q5.92-3.59,11.92-7l1.37,2.44q-4.44,2.52-8.84,5.14,2.16,3.65,4.34,7.29,3.61-2.16,7.26-4.24l1.37,2.41c-2.42,1.37-4.82,2.78-7.22,4.2q2.46,4.11,4.9,8.23,4.48-2.68,9-5.23l1.37,2.44Q116.84,124.27,111,127.82Z"/><path class="cls-10" d="M130.49,116.68,118,93.38q2.11-1.14,4.25-2.25,7.74,7.5,15.22,15.18Q135.9,95.68,134.6,85l3.89-1.85q5.63,12,11.24,23.92L147,108.33,137.69,89q1.26,10.32,2.79,20.56L137.65,111q-7.23-7.41-14.7-14.64l10,19Z"/><path class="cls-10" d="M159.67,102.5q-5.29-12.1-10.6-24.2,2.9-1.27,5.8-2.5a8.85,8.85,0,0,1,5.74-.75,5.11,5.11,0,0,1,3.4,3.29,6.84,6.84,0,0,1,.34,4.25,8.37,8.37,0,0,1-2.28,3.93c4.08-.26,6.74,1.26,8,4.47a7.08,7.08,0,0,1,.38,4.29,5.25,5.25,0,0,1-1.39,2.64,10.1,10.1,0,0,1-3.2,1.93Q162.77,101.16,159.67,102.5Zm-2.89-14.9,1-.42a6.26,6.26,0,0,0,3.36-2.81,4.62,4.62,0,0,0,0-4c-1-2.37-3.16-2.88-6.56-1.44l-1.23.53Zm4.74,11.05.61-.27a13.21,13.21,0,0,0,4.08-2.27,3.7,3.7,0,0,0,.5-4.15,4.87,4.87,0,0,0-3.21-2.91,6.91,6.91,0,0,0-4.92.37l-.86.37Q159.63,94.21,161.52,98.65Z"/><path class="cls-10" d="M181.15,93.8,171.91,69c4.24-1.58,8.48-3.09,12.75-4.54l.9,2.66q-4.74,1.61-9.46,3.32,1.46,4,2.9,8,3.88-1.41,7.77-2.74l.9,2.62q-3.87,1.32-7.72,2.72,1.63,4.5,3.28,9,4.8-1.76,9.64-3.38c.29.88.59,1.77.89,2.66Q187.43,91.46,181.15,93.8Z"/><path class="cls-10" d="M202,86.65q-4-12.6-7.91-25.21,3.48-1.09,7-2.13a7.46,7.46,0,0,1,5.57.14,6.22,6.22,0,0,1,3.08,4.2,8.1,8.1,0,0,1-2.53,8.51Q212.66,77,217.91,82q-1.91.51-3.81,1-4.6-4.52-9.39-8.93l-2.94.89q1.64,5.34,3.26,10.69Zm-1-14.31,1-.32a7,7,0,0,0,4.1-2.68,5.2,5.2,0,0,0,.41-4.41c-.75-2.63-2.86-3.47-6.3-2.44l-2.05.62Q199.54,67.73,201,72.34Z"/><path class="cls-10" d="M249.45,75.47a9.39,9.39,0,0,1-8.28-2.21c-2.4-2.07-4.07-5.16-5-9.28s-.62-7.62.85-10.49a10.44,10.44,0,0,1,15.93-3c2.41,2.14,3.93,5.31,4.61,9.47s.24,7.64-1.24,10.44A9.38,9.38,0,0,1,249.45,75.47Zm-.51-2.76a6.05,6.05,0,0,0,4.69-3.83c.91-2.15,1.09-4.94.5-8.38s-1.68-6-3.32-7.66a6.65,6.65,0,0,0-10.86,2c-.92,2.17-1,5-.31,8.35s1.89,6,3.53,7.62A6.08,6.08,0,0,0,248.94,72.71Z"/><path class="cls-10" d="M269,71.6q-1.83-13.08-3.65-26.17,6.63-.91,13.28-1.64l.3,2.79c-3.29.35-6.57.75-9.85,1.17.39,2.93.77,5.86,1.16,8.79q4-.54,8.09-1c.11.92.21,1.84.31,2.75q-4,.45-8,1l1.56,11.9Z"/><path class="cls-10" d="M305.2,68.18q-.68-13.2-1.34-26.39l4.68-.21q3.72,10.08,7.14,20.22,3-10.3,6.3-20.56l4.21,0V67.65h-3q-.07-10.72-.16-21.46Q319.86,56.07,317,66l-3.09.08q-3.3-9.78-6.9-19.5.48,10.74.95,21.49Z"/><path class="cls-10" d="M337.37,41.36l3.39.1q-.27,8.34-.55,16.67c-.09,2.65.27,4.6,1.07,5.83a4.58,4.58,0,0,0,3.93,2,4.26,4.26,0,0,0,3.89-1.51q1.22-1.65,1.46-5.71l1-16.77c1,0,2,.11,3,.18q-.54,8.35-1.07,16.71a19,19,0,0,1-.92,5.27,7.56,7.56,0,0,1-2.29,3.14A7.43,7.43,0,0,1,345,68.73c-2.84-.12-4.89-1-6.19-2.77s-1.91-4.38-1.82-8Z"/><path class="cls-10" d="M363.3,69.3q1.18-13.15,2.36-26.32l3.38.32q-1.14,11.76-2.29,23.51,5.07.5,10.13,1.11c-.11.93-.23,1.86-.34,2.78Q369.92,69.91,363.3,69.3Z"/><path class="cls-10" d="M390,72.56l3.63-23.34c-2.78-.43-5.56-.84-8.35-1.21.12-.93.25-1.86.38-2.78q10.1,1.37,20.14,3.2c-.17.92-.34,1.84-.5,2.76-2.78-.51-5.55-1-8.33-1.44l-3.81,23.31Z"/><path class="cls-10" d="M409,76q2.63-12.94,5.27-25.9l3.33.69q-2.73,12.93-5.47,25.86Z"/><path class="cls-10" d="M422.58,79q3.06-12.84,6.13-25.7l3.32.8Q429.2,65.54,426.37,77q5,1.23,9.92,2.57c-.25.91-.5,1.81-.74,2.71Q429.09,80.51,422.58,79Z"/><path class="cls-10" d="M440.94,83.79q8-11.46,16.46-22.66l3.24,1q.47,14,.38,28L457.72,89q0-3.85-.07-7.72-4.65-1.52-9.34-2.94-2.28,3.14-4.51,6.28ZM450,75.93c2.54.77,5.06,1.57,7.59,2.39q-.14-6-.36-12.1Q453.59,71.05,450,75.93Z"/><path class="cls-10" d="M473.89,94.77l8.4-22.08q-4-1.51-8-3l1-2.64q9.7,3.48,19.27,7.43c-.35.86-.71,1.72-1.07,2.59q-4-1.64-7.94-3.19l-8.58,22Z"/><path class="cls-10" d="M492,102.16Q497.28,90,502.55,77.93q6.24,2.71,12.41,5.64c-.4.84-.79,1.69-1.19,2.53q-4.57-2.16-9.19-4.22l-3.45,7.75c2.53,1.13,5,2.28,7.56,3.46-.4.83-.79,1.67-1.18,2.5-2.49-1.17-5-2.31-7.51-3.43q-1.94,4.38-3.89,8.75,4.71,2.09,9.36,4.3l-1.2,2.54Q498.17,104.84,492,102.16Z"/><path class="cls-10" d="M512.14,111.59Q518.07,99.77,524,88q3.32,1.67,6.61,3.38a7.75,7.75,0,0,1,4,4,6.13,6.13,0,0,1-.67,5.18,8.05,8.05,0,0,1-3.26,3.33,8.37,8.37,0,0,1-4.56,1q.61,7.32,1,14.61l-3.53-1.94q-.24-6.48-.66-13l-2.78-1.43-5.09,10C514.07,112.56,513.11,112.07,512.14,111.59Zm9.25-11,1,.5a7.23,7.23,0,0,0,4.89,1,5.18,5.18,0,0,0,3.38-2.87c1.29-2.42.33-4.5-2.92-6.18l-1.94-1Q523.59,96.32,521.39,100.6Z"/><path class="cls-10" d="M532,122.25q10.54-9.19,21.56-18l3,1.81q-2.76,13.8-6.07,27.38l-3-1.92q.87-3.77,1.71-7.54-4.28-2.67-8.6-5.21c-2,1.66-4,3.32-5.92,5Zm10.82-5.4c2.33,1.38,4.66,2.79,7,4.22q1.27-5.92,2.44-11.89Q547.51,113,542.85,116.85Z"/><path class="cls-10" d="M557.6,138.11l14.73-21.94c1,.66,2,1.32,2.93,2l-13.32,19.51q4.39,3,8.72,6.12L569,146.07Q563.37,142,557.6,138.11Z"/></g><path class="cls-11" d="M79.71,142.34,64.26,120.91c1.32-1,2.66-1.91,4-2.85Q77,124.42,85.46,131q-3-10.35-5.6-20.85,1.83-1.2,3.67-2.39,7.16,11.11,14.3,22.22l-2.61,1.7q-5.86-9-11.75-18,2.55,10.11,5.39,20.08l-2.67,1.82Q78,129.26,69.58,123.13L82,140.67Z"/><path class="cls-11" d="M107.25,124.09q-6.85-11.3-13.7-22.6,5.91-3.58,11.91-7L106.84,97q-4.45,2.51-8.85,5.13l4.34,7.29q3.61-2.16,7.26-4.24l1.37,2.41c-2.41,1.38-4.82,2.78-7.21,4.21q2.44,4.11,4.9,8.22,4.47-2.67,9-5.23L119,117.2Q113.1,120.55,107.25,124.09Z"/><path class="cls-11" d="M126.76,113,114.3,89.65l4.25-2.25q7.76,7.5,15.23,15.18-1.6-10.64-2.9-21.35c1.29-.63,2.59-1.25,3.88-1.86q5.63,12,11.24,23.92c-.92.44-1.84.87-2.76,1.32L134,85.24q1.25,10.32,2.79,20.56l-2.84,1.43q-7.21-7.41-14.69-14.63,5,9.51,10,19Z"/><path class="cls-11" d="M156,98.78,145.34,74.57q2.9-1.27,5.81-2.49a8.76,8.76,0,0,1,5.73-.75,5.13,5.13,0,0,1,3.41,3.28,7,7,0,0,1,.34,4.25,8.31,8.31,0,0,1-2.29,3.93c4.08-.26,6.74,1.27,8,4.47a7.15,7.15,0,0,1,.37,4.29,5.23,5.23,0,0,1-1.38,2.65,10.36,10.36,0,0,1-3.21,1.92C160.07,97,158,97.87,156,98.78Zm-2.89-14.9,1-.43a6.21,6.21,0,0,0,3.36-2.8,4.62,4.62,0,0,0,0-4c-1-2.38-3.17-2.88-6.56-1.44l-1.23.53Zm4.73,11,.62-.26a13.3,13.3,0,0,0,4.08-2.28,3.7,3.7,0,0,0,.49-4.14,4.86,4.86,0,0,0-3.21-2.92,6.91,6.91,0,0,0-4.92.37l-.86.37Q155.89,90.49,157.79,94.92Z"/><path class="cls-11" d="M177.43,90.07l-9.24-24.76q6.34-2.37,12.75-4.53c.3.88.59,1.77.89,2.65q-4.74,1.6-9.46,3.33l2.91,8q3.87-1.41,7.77-2.75c.3.87.59,1.75.89,2.62q-3.87,1.32-7.72,2.73,1.65,4.48,3.28,9,4.8-1.75,9.64-3.38c.3.89.6,1.77.89,2.66Q183.7,87.73,177.43,90.07Z"/><path class="cls-11" d="M198.26,82.93l-7.91-25.22c2.33-.73,4.65-1.44,7-2.13a7.52,7.52,0,0,1,5.56.14,6.24,6.24,0,0,1,3.08,4.2,8.1,8.1,0,0,1-2.52,8.51q5.46,4.86,10.72,9.85l-3.8,1q-4.62-4.52-9.39-8.92l-3,.88L201.31,82Zm-1-14.32,1-.31a7,7,0,0,0,4.09-2.69,5.2,5.2,0,0,0,.41-4.41c-.75-2.63-2.85-3.46-6.3-2.43l-2.05.62Z"/><path class="cls-11" d="M245.73,71.74a9.38,9.38,0,0,1-8.29-2.21c-2.4-2.07-4.07-5.15-4.95-9.27s-.63-7.62.85-10.5a10.45,10.45,0,0,1,15.92-3c2.42,2.15,3.94,5.31,4.61,9.47s.24,7.64-1.23,10.44A9.37,9.37,0,0,1,245.73,71.74ZM245.21,69a6.07,6.07,0,0,0,4.69-3.84q1.38-3.23.51-8.38c-.58-3.41-1.68-6-3.32-7.66a6.65,6.65,0,0,0-10.87,2q-1.36,3.26-.31,8.34c.71,3.42,1.89,6,3.53,7.62A6.06,6.06,0,0,0,245.21,69Z"/><path class="cls-11" d="M265.28,67.88q-1.81-13.09-3.64-26.18,6.62-.91,13.27-1.64l.3,2.79q-4.92.54-9.84,1.18c.38,2.93.77,5.85,1.15,8.78q4.05-.53,8.1-1c.1.91.2,1.83.31,2.75q-4,.45-8.05,1,.78,6,1.57,11.9Z"/><path class="cls-11" d="M301.48,64.46q-.68-13.2-1.34-26.4c1.55-.08,3.11-.15,4.67-.21q3.72,10.08,7.14,20.22,3-10.29,6.3-20.55c1.4,0,2.81,0,4.21,0V63.92h-3l-.15-21.46q-3.18,9.87-6.07,19.79l-3.09.08q-3.32-9.78-6.9-19.51.47,10.76.95,21.5Z"/><path class="cls-11" d="M333.64,37.64l3.39.1q-.27,8.32-.55,16.66c-.08,2.66.28,4.6,1.07,5.84a4.58,4.58,0,0,0,3.94,2,4.27,4.27,0,0,0,3.89-1.51c.81-1.09,1.3-3,1.45-5.7l1-16.78,3,.18L349.7,55.12a18.33,18.33,0,0,1-.92,5.27,7.51,7.51,0,0,1-2.29,3.13A7.39,7.39,0,0,1,341.23,65c-2.84-.13-4.89-1-6.19-2.77s-1.91-4.38-1.82-8Z"/><path class="cls-11" d="M359.57,65.58q1.19-13.17,2.36-26.32l3.38.31Q364.17,51.33,363,63.09q5.07.48,10.13,1.1c-.11.93-.22,1.86-.34,2.79Q366.21,66.17,359.57,65.58Z"/><path class="cls-11" d="M386.25,68.84l3.63-23.35q-4.17-.65-8.36-1.21c.13-.93.25-1.85.38-2.78Q392,42.86,402,44.71c-.16.92-.33,1.83-.5,2.75q-4.16-.75-8.33-1.44-1.9,11.67-3.8,23.32Z"/><path class="cls-11" d="M405.22,72.23q2.64-12.95,5.27-25.89,1.67.33,3.33.69l-5.46,25.85Z"/><path class="cls-11" d="M418.85,75.24q3.06-12.85,6.13-25.71c1.11.27,2.22.53,3.32.81q-2.83,11.46-5.66,22.93,5,1.23,9.92,2.58c-.25.9-.49,1.8-.74,2.7Q425.36,76.79,418.85,75.24Z"/><path class="cls-11" d="M437.21,80.06q8-11.46,16.47-22.66l3.24,1q.46,14,.37,28L454,85.27c0-2.57,0-5.14-.07-7.71q-4.67-1.53-9.35-2.94c-1.51,2.08-3,4.18-4.51,6.27Zm9.08-7.85q3.81,1.16,7.59,2.38c-.08-4-.2-8.06-.36-12.09Q449.86,67.33,446.29,72.21Z"/><path class="cls-11" d="M470.16,91q4.21-11,8.41-22.07-4-1.53-8-3c.31-.87.63-1.75.94-2.63q9.71,3.47,19.28,7.42c-.36.86-.72,1.73-1.07,2.59q-4-1.63-7.95-3.19l-8.58,22Z"/><path class="cls-11" d="M488.27,98.43,498.83,74.2q6.23,2.73,12.41,5.64L510,82.38q-4.57-2.17-9.19-4.22l-3.45,7.75q3.8,1.68,7.56,3.45l-1.17,2.51c-2.5-1.17-5-2.32-7.51-3.43q-1.95,4.36-3.89,8.74,4.69,2.1,9.36,4.31c-.4.84-.8,1.69-1.21,2.53Q494.45,101.13,488.27,98.43Z"/><path class="cls-11" d="M508.42,107.86l11.83-23.63q3.33,1.67,6.61,3.39a7.74,7.74,0,0,1,4,4,6.15,6.15,0,0,1-.68,5.17,8.08,8.08,0,0,1-3.26,3.34,8.31,8.31,0,0,1-4.55,1c.41,4.88.74,9.76,1,14.61l-3.54-1.93q-.24-6.48-.66-13c-.92-.49-1.85-1-2.78-1.44l-5.08,10C510.35,108.83,509.38,108.35,508.42,107.86Zm9.25-11,1,.5a7.27,7.27,0,0,0,4.89,1,5.19,5.19,0,0,0,3.39-2.87c1.29-2.41.32-4.49-2.93-6.18l-1.94-1Z"/><path class="cls-11" d="M528.3,118.52q10.55-9.19,21.56-18l3,1.8q-2.77,13.8-6.07,27.39c-1-.65-2-1.29-3-1.92.59-2.51,1.15-5,1.71-7.55q-4.28-2.66-8.59-5.2c-2,1.65-4,3.32-5.92,5C530.07,119.53,529.19,119,528.3,118.52Zm10.82-5.4c2.34,1.39,4.66,2.8,7,4.23q1.26-5.92,2.43-11.89Q543.78,109.26,539.12,113.12Z"/><path class="cls-11" d="M553.88,134.39l14.73-21.94,2.93,2q-6.66,9.76-13.33,19.51,4.39,3,8.73,6.13c-.55.75-1.1,1.51-1.64,2.27Q559.63,138.26,553.88,134.39Z"/></g></g></svg>