<svg xmlns="http://www.w3.org/2000/svg" xmlns:xlink="http://www.w3.org/1999/xlink" width="37" height="53" viewBox="0 0 37 53">
  <defs>
    <filter id="사각형_10" x="0" y="0" width="37" height="53" filterUnits="userSpaceOnUse">
      <feOffset dx="1" dy="1" input="SourceAlpha"/>
      <feGaussianBlur stdDeviation="0.5" result="blur"/>
      <feFlood flood-opacity="0.161"/>
      <feComposite operator="in" in2="blur"/>
      <feComposite in="SourceGraphic"/>
    </filter>
  </defs>
  <g id="그룹_431" data-name="그룹 431" transform="translate(-1394.5 -349.5)">
    <g id="그룹_60" data-name="그룹 60" transform="translate(0 -2)">
      <g transform="matrix(1, 0, 0, 1, 1394.5, 351.5)" filter="url(#사각형_10)">
        <rect id="사각형_10-2" data-name="사각형 10" width="34" height="50" rx="2" transform="translate(0.5 0.5)" fill="#e8e8e8"/>
      </g>
      <line id="선_39" data-name="선 39" x2="7" transform="translate(1408.5 398.5)" fill="none" stroke="#707070" stroke-width="1"/>
      <g id="그룹_59" data-name="그룹 59" transform="translate(0 52)">
        <g id="사각형_11" data-name="사각형 11" transform="translate(1398 303)" fill="#fff" stroke="#f8f8f8" stroke-width="1">
          <rect width="28" height="41" rx="2" stroke="none"/>
          <rect x="0.5" y="0.5" width="27" height="40" rx="1.5" fill="none"/>
        </g>
      </g>
    </g>
    <g id="그룹_20" data-name="그룹 20" transform="translate(4 -178.596)">
      <g id="그룹_19" data-name="그룹 19" transform="translate(1407 545.596)">
        <path id="패스_11" data-name="패스 11" d="M254.1,231.505a3.14,3.14,0,0,1,3.551,3.55h1.242a4.377,4.377,0,0,0-4.793-4.792Z" transform="translate(-254.095 -226.055)" fill="#6980d9"/>
        <path id="패스_12" data-name="패스 12" d="M259.733,214.448a4.706,4.706,0,0,1,5.124,5.123h1.233a5.931,5.931,0,0,0-6.357-6.356Z" transform="translate(-258.963 -211.341)" fill="#6980d9"/>
        <path id="패스_13" data-name="패스 13" d="M264.611,197.885a6.3,6.3,0,0,1,6.724,6.723h1.233a7.526,7.526,0,0,0-7.957-7.956Z" transform="translate(-263.581 -196.639)" fill="#6980d9"/>
      </g>
      <path id="패스_14" data-name="패스 14" d="M234.461,286.113l-.007.007C234.482,286.146,234.461,286.113,234.461,286.113Z" transform="translate(1170.226 271.337)" fill="#6980d9"/>
      <path id="패스_15" data-name="패스 15" d="M202.453,225.729c-1.388-.778-2.234-.609-2.641,0a1.6,1.6,0,0,1-2.607.406,15.133,15.133,0,0,1-1.963-1.971,1.593,1.593,0,0,1,.406-2.6c.609-.406.779-1.252,0-2.639a1.837,1.837,0,0,0-2.065-1.015s-1.388.406-2,2.977c-.549,2.318,2.2,5.459,2.75,6.056,0,0,3.58,3.458,6.153,2.85s2.979-2,2.979-2A1.834,1.834,0,0,0,202.453,225.729Z" transform="translate(1208.486 331.735)" fill="#6980d9"/>
    </g>
  </g>
</svg>
