<svg xmlns="http://www.w3.org/2000/svg" width="180.098" height="26" viewBox="0 0 180.098 26">
  <g id="logo_원본_변환됨_" data-name="logo (원본) [변환됨]" transform="translate(-205.22 -275.75)">
    <g id="그룹_1559" data-name="그룹 1559" transform="translate(246.959 278.75)">
      <g id="그룹_1552" data-name="그룹 1552">
        <path id="패스_1376" data-name="패스 1376" d="M248.1,285.719a.737.737,0,0,1-.512.3H233.221a1.129,1.129,0,0,1-.448-.1,1.542,1.542,0,0,1-.4-.256c-.1-.1-.192-.208-.3-.336a4.677,4.677,0,0,1-.3-.416c-.176-.288-.24-.48-.176-.608s.24-.176.528-.16h15.26a.853.853,0,0,1,.608.24.977.977,0,0,1,.224.656A.918.918,0,0,1,248.1,285.719Z" transform="translate(-231.565 -270.715)" stroke="#182286" stroke-width="0.195"/>
        <path id="패스_1377" data-name="패스 1377" d="M243.573,287.539a2.157,2.157,0,0,1-.656.128,9.32,9.32,0,0,1-1.008.032v-4.111H234.1a.569.569,0,0,1-.272-.128,3.5,3.5,0,0,1-.384-.352,1.516,1.516,0,0,1-.272-.432,1.543,1.543,0,0,1-.16-.48.893.893,0,0,1,.032-.48.28.28,0,0,1,.272-.144h8.59v-4.191h-7.294a2.04,2.04,0,0,1-.352-.032q-.144-.024-.24-.048c-.064-.032-.128-.08-.208-.128a2.544,2.544,0,0,1-.208-.208,1.777,1.777,0,0,1-.272-.432,2.6,2.6,0,0,1-.176-.448.335.335,0,0,1,.016-.256.275.275,0,0,1,.24-.08h9.965a.681.681,0,0,1,.64.432,2.91,2.91,0,0,1,.224,1.28v8.91a1.411,1.411,0,0,1-.16.72A.946.946,0,0,1,243.573,287.539Z" transform="translate(-230.705 -275.75)" stroke="#182286" stroke-width="0.195"/>
      </g>
      <g id="그룹_1553" data-name="그룹 1553" transform="translate(19.629 0.08)">
        <path id="패스_1378" data-name="패스 1378" d="M257.187,291.356a.677.677,0,0,1-.48.256h-9.661a1.422,1.422,0,0,1-.7-.176.641.641,0,0,1-.3-.48v-4.383l-.16-.176-.224-.416c-.1-.192-.176-.336-.224-.464a2.846,2.846,0,0,0-.128-.288.325.325,0,0,1,.048-.256.271.271,0,0,1,.208-.064h2.623a.338.338,0,0,1,.224.064.427.427,0,0,1,.1.256v4.607h8.158a.689.689,0,0,1,.528.24,1.088,1.088,0,0,1,.176.672A1.443,1.443,0,0,1,257.187,291.356Z" transform="translate(-242.961 -270.688)" stroke="#182286" stroke-width="0.195"/>
        <path id="패스_1379" data-name="패스 1379" d="M257.071,292.116a1.391,1.391,0,0,1-.3.08,3.094,3.094,0,0,1-.432.064h-.96v-5.5l-.08.064a2.239,2.239,0,0,0-.288.192.609.609,0,0,1-.208.128,1.653,1.653,0,0,1-.336.176c-.128.048-.272.1-.416.144a5.214,5.214,0,0,1-.976.208c-.368.048-.768.1-1.2.128h-5.95a1.385,1.385,0,0,1-1.056-.4,1.807,1.807,0,0,1-.4-1.184v-3.055a3.5,3.5,0,0,0-.016-.448.63.63,0,0,0-.064-.24l-.08-.208-.432-.8a.482.482,0,0,1,0-.3.254.254,0,0,1,.176-.16H250.1v-3.007h-5.231a.526.526,0,0,1-.272-.064.766.766,0,0,1-.24-.176c-.048-.08-.112-.176-.16-.272s-.112-.208-.176-.32c-.048-.144-.1-.256-.128-.368a.982.982,0,0,1-.048-.256.248.248,0,0,1,.032-.192.206.206,0,0,1,.176-.08h7.15c.1.016.192.048.288.064a2.133,2.133,0,0,1,.288.112,1.29,1.29,0,0,1,.448.432,1.213,1.213,0,0,1,.176.656v4.3a1.145,1.145,0,0,1-.16.544.639.639,0,0,1-.384.288h-5.1v3.327h5.071a10.006,10.006,0,0,0,1.024-.048,5.819,5.819,0,0,0,.848-.144c.1-.032.192-.064.3-.1a2.134,2.134,0,0,0,.3-.08,1.11,1.11,0,0,1,.208-.08c.064-.032.144-.064.224-.112.192-.08.4-.192.608-.3.016,0,.016-.016.032-.016v-7.326a.726.726,0,0,0-.064-.288,3.189,3.189,0,0,0-.16-.336c-.064-.112-.144-.224-.208-.32-.08-.1-.16-.208-.24-.3-.08-.112-.144-.192-.192-.272a.352.352,0,0,1-.064-.208c0-.032,0-.048.016-.064,0-.016.016-.032.032-.048a.477.477,0,0,1,.176-.112,1.409,1.409,0,0,1,.272-.032h2.5a.363.363,0,0,1,.3.128.627.627,0,0,1,.112.4v14.6a1.656,1.656,0,0,1-.208.768A3.12,3.12,0,0,1,257.071,292.116Z" transform="translate(-243.836 -275.8)" stroke="#182286" stroke-width="0.195"/>
      </g>
      <g id="그룹_1554" data-name="그룹 1554" transform="translate(38.524 0.048)">
        <path id="패스_1380" data-name="패스 1380" d="M265.557,292.543a1,1,0,0,1-.608.464c-.16.048-.272.1-.368.112s-.144.032-.176.032h-.88v-15.5a1.137,1.137,0,0,0-.048-.336,1.07,1.07,0,0,0-.16-.336c-.048-.08-.112-.176-.176-.272s-.144-.192-.208-.272a1.505,1.505,0,0,1-.16-.224.321.321,0,0,1-.064-.208c0-.032,0-.064.016-.064,0-.016.016-.032.032-.048a.31.31,0,0,1,.144-.08,1.147,1.147,0,0,1,.272-.032h2.239a.311.311,0,0,1,.256.128.543.543,0,0,1,.1.352v15.468A1.511,1.511,0,0,1,265.557,292.543Z" transform="translate(-251.416 -275.78)" stroke="#182286" stroke-width="0.195"/>
        <path id="패스_1381" data-name="패스 1381" d="M265.7,293.007a2.936,2.936,0,0,1-.368.112c-.1.016-.144.032-.176.032h-.88V282.706h-.88a.526.526,0,0,1-.272-.064.721.721,0,0,1-.224-.16,1.125,1.125,0,0,1-.16-.128.016.016,0,0,0-.016-.016,11.959,11.959,0,0,1-.224,2.159,5.265,5.265,0,0,1-.816,2.047,3.04,3.04,0,0,1-1.088.944,2.989,2.989,0,0,1-1.44.336,2.934,2.934,0,0,1-1.136-.224,2.659,2.659,0,0,1-.928-.656,4.616,4.616,0,0,1-1.056-1.967,11.43,11.43,0,0,1-.384-2.991,12.245,12.245,0,0,1,.3-3.055,5.177,5.177,0,0,1,.992-2.063,2.927,2.927,0,0,1,1.04-.768,3.235,3.235,0,0,1,1.264-.24,3.074,3.074,0,0,1,.88.128,2.919,2.919,0,0,1,.784.368c.064.048.144.1.224.16a2.471,2.471,0,0,1,.208.192,4.257,4.257,0,0,1,1.024,1.839,9.4,9.4,0,0,1,.352,2.415h1.552v-3.311a1.138,1.138,0,0,0-.048-.336,1.07,1.07,0,0,0-.16-.336,2.175,2.175,0,0,0-.192-.272c-.064-.1-.144-.192-.208-.272a1.5,1.5,0,0,1-.16-.224.321.321,0,0,1-.064-.208c0-.032,0-.064.016-.064.016-.016.016-.032.032-.048a.31.31,0,0,1,.144-.08,1.149,1.149,0,0,1,.272-.032h2.239a.311.311,0,0,1,.256.128.544.544,0,0,1,.1.352v15.468a1.575,1.575,0,0,1-.176.864A1.43,1.43,0,0,1,265.7,293.007Zm-5.295-13.74a5.709,5.709,0,0,0-.3-1.392c-.032-.048-.048-.1-.08-.144a.952.952,0,0,0-.064-.128,1.037,1.037,0,0,0-.3-.336.793.793,0,0,0-.432-.112.6.6,0,0,0-.512.208,1.86,1.86,0,0,0-.4.672,8.077,8.077,0,0,0-.336,1.616,19.734,19.734,0,0,0-.112,2.319A21.085,21.085,0,0,0,258,284.21a6.1,6.1,0,0,0,.352,1.52,1.582,1.582,0,0,0,.352.5.684.684,0,0,0,.992-.08,1.932,1.932,0,0,0,.4-.752,9.706,9.706,0,0,0,.336-1.68,19.93,19.93,0,0,0,.08-2.287A16.617,16.617,0,0,0,260.4,279.267Z" transform="translate(-255.649 -275.78)" stroke="#182286" stroke-width="0.195"/>
      </g>
      <g id="그룹_1555" data-name="그룹 1555" transform="translate(57.335 0.032)">
        <path id="패스_1382" data-name="패스 1382" d="M281.151,292.517a1.255,1.255,0,0,1-.672.528,2.122,2.122,0,0,1-.3.08l-.336.048h-.976V282.728h-1.951a.566.566,0,0,1-.272-.064.72.72,0,0,1-.224-.16,1.117,1.117,0,0,1-.16-.128.662.662,0,0,1-.112-.176,1.482,1.482,0,0,1-.08-.16,11.771,11.771,0,0,1-.288,2.559,4.549,4.549,0,0,1-1.024,2.063,4.093,4.093,0,0,1-1.328.88,4.733,4.733,0,0,1-1.712.3,4.108,4.108,0,0,1-1.36-.224,4.337,4.337,0,0,1-1.168-.624,3.869,3.869,0,0,1-1.3-1.919,9.55,9.55,0,0,1-.48-3.087,10.172,10.172,0,0,1,.384-3.151,4.293,4.293,0,0,1,1.264-2.031,3.27,3.27,0,0,1,1.248-.72,5.129,5.129,0,0,1,1.52-.224,4.544,4.544,0,0,1,1.056.112,4.872,4.872,0,0,1,.96.336c.064.032.144.08.256.128a1.752,1.752,0,0,1,.288.224,3.9,3.9,0,0,1,1.248,1.807,8.039,8.039,0,0,1,.432,2.511c.016,0,.032-.016.064-.016h2.751v-3.183a.859.859,0,0,0-.064-.3,2.354,2.354,0,0,0-.16-.352,2.285,2.285,0,0,0-.224-.32c-.08-.1-.16-.208-.24-.3-.08-.112-.144-.192-.192-.272a.352.352,0,0,1-.064-.208c0-.032,0-.048.016-.064,0-.016.016-.032.032-.048a.316.316,0,0,1,.16-.112,1.432,1.432,0,0,1,.288-.032h2.479a.385.385,0,0,1,.3.128.628.628,0,0,1,.112.4v15.324A1.358,1.358,0,0,1,281.151,292.517Zm-7.438-13.084a4.7,4.7,0,0,0-.448-1.408.4.4,0,0,0-.08-.128,1.693,1.693,0,0,1-.144-.176,1.675,1.675,0,0,0-.512-.432,1.7,1.7,0,0,0-.72-.144,1.429,1.429,0,0,0-.9.24,1.943,1.943,0,0,0-.624.784,5.458,5.458,0,0,0-.48,1.632,12.389,12.389,0,0,0-.16,2.159,12.839,12.839,0,0,0,.192,2.1,4.865,4.865,0,0,0,.512,1.5,1.511,1.511,0,0,0,.576.608,1.493,1.493,0,0,0,.8.208,1.524,1.524,0,0,0,.928-.288,2.192,2.192,0,0,0,.64-.9,6.486,6.486,0,0,0,.448-1.648,14.709,14.709,0,0,0,.128-2.143A10.409,10.409,0,0,0,273.713,279.433Z" transform="translate(-267.409 -275.77)" stroke="#182286" stroke-width="0.195"/>
      </g>
      <g id="그룹_1556" data-name="그룹 1556" transform="translate(75.936 0.048)">
        <path id="패스_1383" data-name="패스 1383" d="M289.107,292.543a1.037,1.037,0,0,1-.624.464c-.144.048-.272.1-.352.112-.1.016-.144.032-.176.032h-.88v-15.5a1.138,1.138,0,0,0-.048-.336,1.6,1.6,0,0,0-.16-.336c-.048-.08-.112-.176-.176-.272s-.144-.192-.208-.272a1.5,1.5,0,0,1-.16-.224.322.322,0,0,1-.064-.208c0-.032,0-.064.016-.064,0-.016.016-.032.032-.048a.309.309,0,0,1,.144-.08,1.147,1.147,0,0,1,.272-.032h2.239a.311.311,0,0,1,.256.128.543.543,0,0,1,.1.352v15.468A1.511,1.511,0,0,1,289.107,292.543Z" transform="translate(-274.708 -275.78)" stroke="#182286" stroke-width="0.195"/>
        <path id="패스_1384" data-name="패스 1384" d="M289.326,293.007c-.144.048-.272.1-.352.112a1.427,1.427,0,0,1-.176.032h-.88v-6c-.064.08-.144.144-.192.208-.08.08-.144.128-.208.192a2.784,2.784,0,0,1-.576.24,10.9,10.9,0,0,1-1.072.288h-5.183a1.068,1.068,0,0,1-.656-.48,1.874,1.874,0,0,1-.224-.976v-8.7a1.541,1.541,0,0,0-.048-.24c-.032-.064-.064-.144-.112-.224a.67.67,0,0,0-.144-.224l-.336-.368a.517.517,0,0,1-.128-.368.322.322,0,0,1,.224-.256h6.11a.823.823,0,0,1,.432.256.844.844,0,0,1,.144.512,1.091,1.091,0,0,1-.128.64.766.766,0,0,1-.432.336h-3.327v2.847h2.9a1.079,1.079,0,0,1,.528.112.508.508,0,0,1,.24.368,1.275,1.275,0,0,1-.064.976.354.354,0,0,1-.24.16,1.4,1.4,0,0,1-.48.064h-2.9v3.855h3.519c.32-.08.576-.16.768-.208a1.757,1.757,0,0,0,.448-.192l.32-.256a.367.367,0,0,0,.128-.112c.048-.064.144-.128.24-.24l.432-.4v-2.7h-.56a.566.566,0,0,1-.272-.064,2.085,2.085,0,0,1-.24-.16.945.945,0,0,1-.128-.128.71.71,0,0,1-.128-.176,1.84,1.84,0,0,1-.192-.4,1.772,1.772,0,0,1-.112-.416.438.438,0,0,1,.048-.3.289.289,0,0,1,.24-.112h1.36v-2.847a1.138,1.138,0,0,0-.048-.336,1.069,1.069,0,0,0-.16-.336c-.048-.08-.112-.176-.176-.272s-.144-.192-.208-.272a1.5,1.5,0,0,1-.16-.224A.322.322,0,0,1,287.1,276c0-.032,0-.064.016-.064,0-.016.016-.032.032-.048a.309.309,0,0,1,.144-.08,1.15,1.15,0,0,1,.272-.032h2.239a.311.311,0,0,1,.256.128.544.544,0,0,1,.1.352v15.468a1.576,1.576,0,0,1-.176.864A1.542,1.542,0,0,1,289.326,293.007Z" transform="translate(-279.038 -275.78)" stroke="#182286" stroke-width="0.195"/>
      </g>
      <g id="그룹_1557" data-name="그룹 1557" transform="translate(94.166)">
        <path id="패스_1385" data-name="패스 1385" d="M306.951,285.719a.7.7,0,0,1-.512.3H292.075a1.13,1.13,0,0,1-.448-.1,1.543,1.543,0,0,1-.4-.256c-.1-.1-.192-.208-.3-.336a2.72,2.72,0,0,1-.288-.416c-.176-.288-.24-.48-.176-.608s.24-.176.528-.16h15.276a.853.853,0,0,1,.608.24,1.067,1.067,0,0,1,.224.656A1.106,1.106,0,0,1,306.951,285.719Z" transform="translate(-290.435 -270.715)" stroke="#182286" stroke-width="0.195"/>
        <path id="패스_1386" data-name="패스 1386" d="M302.443,287.539a2.157,2.157,0,0,1-.656.128,9.32,9.32,0,0,1-1.008.032v-4.111h-7.806a.569.569,0,0,1-.272-.128,3.505,3.505,0,0,1-.384-.352,1.517,1.517,0,0,1-.272-.432,1.543,1.543,0,0,1-.16-.48.893.893,0,0,1,.032-.48.28.28,0,0,1,.272-.144h8.59v-4.191h-7.294a2.209,2.209,0,0,1-.352-.032q-.144-.024-.24-.048a1.455,1.455,0,0,1-.208-.128,2.539,2.539,0,0,1-.208-.208,1.778,1.778,0,0,1-.272-.432,2.6,2.6,0,0,1-.176-.448.335.335,0,0,1,.016-.256.275.275,0,0,1,.24-.08h9.965a.681.681,0,0,1,.64.432,2.91,2.91,0,0,1,.224,1.28v8.91a1.411,1.411,0,0,1-.16.72A1.006,1.006,0,0,1,302.443,287.539Z" transform="translate(-289.575 -275.75)" stroke="#182286" stroke-width="0.195"/>
      </g>
      <g id="그룹_1558" data-name="그룹 1558" transform="translate(115.944 0.08)">
        <path id="패스_1387" data-name="패스 1387" d="M307.425,276.728a5.59,5.59,0,0,0-.48.928c-.176.4-.336.848-.512,1.344-.16.512-.32,1.056-.464,1.68-.08.752-.16,1.44-.192,2.047-.048.608-.064,1.136-.064,1.6,0,.72.032,1.392.08,2s.128,1.184.224,1.727a10.816,10.816,0,0,0,.368,1.5c.16.5.352,1.008.56,1.52.128.3.272.592.416.88a11.021,11.021,0,0,0,.688,1.072h-1.328c-.192-.192-.352-.336-.464-.448a4.807,4.807,0,0,1-.592-.976,14.375,14.375,0,0,1-.608-1.44c-.176-.5-.336-1.024-.5-1.584-.08-.336-.144-.672-.208-1.008s-.112-.672-.176-1.024q-.072-.552-.1-1.056c-.016-.336-.032-.672-.032-1.008a17.7,17.7,0,0,1,.16-2.463,16.384,16.384,0,0,1,.5-2.335c.112-.352.224-.7.368-1.056.128-.336.272-.688.432-1.04a4.926,4.926,0,0,1,.5-.88c.176-.24.4-.56.672-.912h1.392C307.825,276.136,307.6,276.472,307.425,276.728Z" transform="translate(-304.05 -275.8)" stroke="#182286" stroke-width="0.195"/>
        <path id="패스_1388" data-name="패스 1388" d="M320.035,282.607a.574.574,0,0,1-.4.24h-4.943c0,.016.016.032.032.064v5.582a1.042,1.042,0,0,1-.128.448.77.77,0,0,1-.32.32c-.08.032-.192.048-.3.08-.112.016-.24.048-.4.064h-.8v-6.542h-4.4a1.36,1.36,0,0,1-.352-.064,1,1,0,0,1-.32-.208,2.064,2.064,0,0,1-.24-.272,2.285,2.285,0,0,1-.224-.32c-.144-.224-.192-.384-.128-.48.048-.1.192-.144.416-.128h11.949a.733.733,0,0,1,.48.192.707.707,0,0,1,.176.512A.843.843,0,0,1,320.035,282.607Z" transform="translate(-302.232 -272.45)" stroke="#182286" stroke-width="0.195"/>
        <path id="패스_1389" data-name="패스 1389" d="M317.746,283.094H315.7c-.016-.016-.032-.032-.032-.048a.071.071,0,0,1,0-.08c.016-.144.048-.256.048-.336a1.541,1.541,0,0,0,.032-.192v-.256a.824.824,0,0,1-.032-.176l-.048-.144a.569.569,0,0,1-.064-.144.348.348,0,0,0-.08-.128,1.191,1.191,0,0,0-.112-.192,1.7,1.7,0,0,0-.144-.176c-.048-.048-.08-.1-.128-.144s-.1-.08-.144-.128a1.434,1.434,0,0,0-.16-.144,2.346,2.346,0,0,0-.208-.144c-.048-.016-.1-.064-.16-.1a1.4,1.4,0,0,1-.16-.1,1.078,1.078,0,0,0-.192-.1,1.747,1.747,0,0,1-.24-.128,1.161,1.161,0,0,0-.192-.08,2.651,2.651,0,0,1-.256-.1,4.154,4.154,0,0,0-.4-.16c-.048.048-.1.112-.144.16-.064.064-.112.128-.176.192l-.288.288a2.957,2.957,0,0,1-.224.224c-.064.064-.144.144-.24.224l-.448.4-.544.464c-.144.1-.256.192-.368.272s-.192.144-.256.192c-.128.1-.256.176-.4.272-.128.08-.272.176-.432.272l-.416.24a1.018,1.018,0,0,1-.288.1.533.533,0,0,1-.272-.032.733.733,0,0,1-.336-.224A1.244,1.244,0,0,1,308,282.6a.136.136,0,0,1,0-.112.221.221,0,0,1,.048-.064l.352-.272.176-.16.368-.288c.144-.112.272-.224.4-.32.112-.1.208-.192.288-.256l.528-.512.48-.464.368-.416c.064-.08.128-.144.192-.224a2.136,2.136,0,0,0,.176-.224c.032-.032.064-.08.112-.128a.879.879,0,0,1,.112-.144.974.974,0,0,0,.112-.16,1.192,1.192,0,0,1,.112-.192.693.693,0,0,0,.064-.112.893.893,0,0,1,.08-.128.258.258,0,0,1,.064-.112.777.777,0,0,0,.048-.112.338.338,0,0,0,.048-.112.742.742,0,0,0,.048-.144.534.534,0,0,0,.048-.1c.016-.032.016-.08.032-.112a3.568,3.568,0,0,0,.064-.368.2.2,0,0,1,.016-.1h-3.087a.612.612,0,0,1-.3-.08,1.044,1.044,0,0,1-.256-.208c-.08-.144-.16-.256-.224-.384a.966.966,0,0,1-.128-.336.391.391,0,0,1,0-.272c.032-.064.1-.1.208-.112h8.526a.673.673,0,0,1,.416.112.6.6,0,0,1,.208.352c0,.048.016.112.016.192v.208a.594.594,0,0,1-.128.368.423.423,0,0,1-.3.144h-2.831c-.016.016-.016.016-.016.032a5.011,5.011,0,0,1-.224.528c-.1.224-.224.48-.384.784-.032.048-.048.1-.08.144l.48.224.5.224.4.176.48.256a.671.671,0,0,1,.224.144,2.166,2.166,0,0,1,.224.176,2.845,2.845,0,0,1,.272.224.979.979,0,0,1,.24.272,2.291,2.291,0,0,1,.176.192c.064.08.112.144.176.224.048.08.112.16.176.256a1.253,1.253,0,0,1,.176.288l.144.24c.112.208.208.368.288.528a1.872,1.872,0,0,1,.128.4,1.1,1.1,0,0,0,.048.128v.1a.49.49,0,0,1-.048.24C317.858,283.03,317.81,283.062,317.746,283.094Z" transform="translate(-301.686 -275.752)" stroke="#182286" stroke-width="0.195"/>
        <path id="패스_1390" data-name="패스 1390" d="M319.319,286.749a16.292,16.292,0,0,1-.48,2.271,9.69,9.69,0,0,1-.816,2,17.128,17.128,0,0,1-1.2,1.967h-1.248c.368-.672.672-1.216.9-1.664.224-.432.4-.848.544-1.2a19.746,19.746,0,0,0,.64-2.671,16.922,16.922,0,0,0,.24-2.879c0-.416-.016-.816-.048-1.168s-.064-.688-.1-.992c-.016-.3-.064-.608-.1-.9-.048-.288-.1-.576-.16-.848-.08-.384-.176-.8-.3-1.232s-.256-.848-.416-1.28a5.862,5.862,0,0,0-.528-1.1,9.976,9.976,0,0,1-.688-1.216h1.376L318.183,278c.192.464.368.944.528,1.424s.288.976.4,1.472a14.813,14.813,0,0,1,.272,1.584,20.845,20.845,0,0,1-.064,4.271" transform="translate(-297.149 -275.776)" stroke="#182286" stroke-width="0.195"/>
      </g>
    </g>
    <g id="그룹_1561" data-name="그룹 1561" transform="translate(205.22 275.75)">
      <g id="그룹_1560" data-name="그룹 1560">
        <path id="패스_1391" data-name="패스 1391" d="M221.509,276.739c.169-.356.441-.491.983-.508h8.9s.864-.034,1.051.644c.085.271.136.661-.407,1.22l-4.61,4.118a1.75,1.75,0,0,1-2.474-.1l-3.288-4.254A1.124,1.124,0,0,1,221.509,276.739Z" transform="translate(-194.493 -275.434)" fill="red"/>
        <path id="패스_1392" data-name="패스 1392" d="M212,288.76c0-5.559,3.593-10.421,10.135-13-9.677,1.359-16.914,6.657-16.914,13,0,6.326,7.22,11.641,16.914,13C215.592,299.181,212,294.319,212,288.76Z" transform="translate(-205.22 -275.76)" fill="#00a0c6"/>
        <path id="패스_1393" data-name="패스 1393" d="M226.166,295.951a2.578,2.578,0,0,0,2.463,2.645,2.608,2.608,0,0,0,2.578-2.645v-8.006c0-.228,0-.473-.016-.7,0-.07-.017-.123-.017-.193-.017-.175-.033-.35-.05-.543,0-.053-.017-.105-.017-.158-.033-.228-.066-.455-.116-.666a.274.274,0,0,1-.017-.123c-.05-.193-.083-.368-.132-.543-.017-.053-.033-.105-.05-.175-.05-.193-.116-.385-.182-.6,0-.018-.017-.035-.017-.053-.066-.21-.149-.421-.231-.631-.017-.035-.033-.088-.05-.123-.066-.175-.149-.333-.231-.508a.889.889,0,0,1-.05-.123c-.1-.193-.2-.4-.314-.6h0V282.2c-.1-.175-.215-.35-.314-.508-.033-.035-.05-.088-.083-.123-.1-.14-.2-.28-.3-.4a.458.458,0,0,0-.083-.105,8.557,8.557,0,0,0-.81-.946l-.1-.105c-.116-.105-.231-.228-.347-.333-.033-.035-.083-.07-.116-.105-.132-.123-.281-.245-.43-.368-.017-.018-.033-.018-.033-.035l-.5-.368c-.033-.018-.083-.053-.116-.07l-.4-.263c-.05-.035-.1-.053-.149-.088-.149-.088-.281-.158-.43-.245l-.1-.053-.545-.263c-.033-.018-.083-.035-.116-.053a4.69,4.69,0,0,0-.446-.175,1.218,1.218,0,0,1-.182-.07,4.076,4.076,0,0,0-.43-.14c-.05-.018-.1-.035-.165-.053-.2-.053-.38-.105-.579-.14-.033,0-.066-.018-.1-.018a4.5,4.5,0,0,0-.512-.088c-.066-.018-.132-.018-.2-.035L221.7,277c-.066,0-.132-.018-.182-.018-.2-.017-.413-.017-.628-.017-5.686,0-10.313,4.905-10.313,10.932,0,.35.017.683.05,1.034v.053c.033.333.083.648.132.964a.166.166,0,0,0,.017.088c.066.315.132.613.215.911.017.035.017.07.033.105.083.3.182.6.281.876l.05.105a7.245,7.245,0,0,0,.364.823l.05.105c.132.263.281.526.43.788.017.035.033.052.05.088.149.263.331.508.5.753.017.018.033.053.05.07a7.842,7.842,0,0,0,.579.7c.017.017.017.035.033.052.215.228.43.456.645.666l.017.017a10.036,10.036,0,0,0,6.115,2.716h0c.231.018.463.035.711.035a2.627,2.627,0,0,0,2.38-2.628,2.478,2.478,0,0,0-2.38-2.715,5.6,5.6,0,1,1,5.272-5.571Z" transform="translate(-201.496 -274.926)" fill="#66b821"/>
      </g>
    </g>
  </g>
</svg>
