<svg xmlns="http://www.w3.org/2000/svg" xmlns:xlink="http://www.w3.org/1999/xlink" width="21" height="20" viewBox="0 0 21 20">
  <defs>
    <linearGradient id="linear-gradient" x1="0.499" y1="0.405" x2="0.502" y2="0.679" gradientUnits="objectBoundingBox">
      <stop offset="0" stop-color="#fff" stop-opacity="0.102"/>
      <stop offset="0.444" stop-color="#fff" stop-opacity="0.6"/>
      <stop offset="1" stop-color="#fff"/>
    </linearGradient>
  </defs>
  <g id="그룹_413" data-name="그룹 413" transform="translate(5.516 3.871)">
    <rect id="사각형_59" data-name="사각형 59" width="21" height="20" rx="1" transform="translate(-5.516 -3.871)" fill="#ddd"/>
    <path id="패스_1212" data-name="패스 1212" d="M473.762,73.063a1.632,1.632,0,1,1-3.265,0V64.448a1.632,1.632,0,1,1,3.265,0Z" transform="translate(-470.497 -62.794)" fill="url(#linear-gradient)"/>
    <path id="패스_1213" data-name="패스 1213" d="M473.169,93.835a1.632,1.632,0,1,1-1.737-2.764l6.79-4.267a1.632,1.632,0,1,1,1.737,2.764Z" transform="translate(-470.634 -82.169)" fill="#fff"/>
    <path id="패스_1214" data-name="패스 1214" d="M473.173,62.977a1.632,1.632,0,1,0-1.737,2.764l6.789,4.266a1.632,1.632,0,1,0,1.737-2.764Z" transform="translate(-470.637 -62.726)" fill="#fff"/>
  </g>
</svg>
