<svg xmlns="http://www.w3.org/2000/svg" width="21" height="20" viewBox="0 0 21 20">
  <g id="블로그" transform="translate(0)">
    <path id="패스_1216" data-name="패스 1216" d="M.656,0H20.344A.651.651,0,0,1,21,.645v18.71a.651.651,0,0,1-.656.645H.656A.651.651,0,0,1,0,19.355V.645A.651.651,0,0,1,.656,0Z" transform="translate(0)" fill="#00c300"/>
    <path id="패스_1112" data-name="패스 1112" d="M385.147,384.565h-12.5c-1.593,0-2.631,1.66-2.631,3.226v6.452c0,1.566,1.038,3.226,2.631,3.226h4.6l1.316,1.935h0c.087.145.475.645.658.645s.571-.5.658-.645h0l1.316-1.935h3.947a3.587,3.587,0,0,0,3.289-3.226v-6.452a3.587,3.587,0,0,0-3.289-3.226" transform="translate(-368.726 -383.275)" fill="#fff"/>
    <path id="패스_1113" data-name="패스 1113" d="M378.586,398.317a1.457,1.457,0,0,0-.934.434v-1.739h-1.094v4.566h1.107v-.358a1.052,1.052,0,0,0,.921.473,1.618,1.618,0,0,0,1.544-1.708s-.057-1.668-1.544-1.668m-.242,2.409a.7.7,0,1,1,.7-.7.7.7,0,0,1-.7.7" transform="translate(-373.259 -391.885)" fill="#f37527"/>
    <path id="패스_1114" data-name="패스 1114" d="M389.675,396.66v1.058s.5-.022.5.91v2.7h1.057v-2.953s.046-1.718-1.556-1.718" transform="translate(-382.385 -391.639)" fill="#f37527"/>
    <path id="패스_1115" data-name="패스 1115" d="M399.263,401.427s-1.812,0-1.812,1.69a1.638,1.638,0,0,0,1.812,1.669s1.853,0,1.853-1.669a1.663,1.663,0,0,0-1.853-1.69m0,2.393a.7.7,0,1,1,.7-.7.7.7,0,0,1-.7.7" transform="translate(-387.769 -394.98)" fill="#f37527"/>
    <path id="패스_1116" data-name="패스 1116" d="M414.02,401.533v.311a1.2,1.2,0,0,0-.921-.418,1.509,1.509,0,0,0-1.55,1.678s-.017,1.627,1.507,1.627a1.261,1.261,0,0,0,.963-.418v.256s.078.8-.7.8h-.265v.971h.427a1.591,1.591,0,0,0,1.6-1.712v-3.1Zm-.655,2.286a.7.7,0,1,1,.7-.7.7.7,0,0,1-.7.7" transform="translate(-397.562 -394.979)" fill="#f37527"/>
  </g>
</svg>
