<svg xmlns="http://www.w3.org/2000/svg" width="21" height="20" viewBox="0 0 21 20">
  <g id="그룹_271" data-name="그룹 271" transform="translate(0.355)">
    <rect id="사각형_48" data-name="사각형 48" width="21" height="20" rx="1" transform="translate(-0.355 0)" fill="#ddd"/>
    <path id="패스_1112" data-name="패스 1112" d="M384.855,384.565H372.6c-1.563,0-2.581,1.66-2.581,3.226v6.452c0,1.566,1.018,3.226,2.581,3.226h4.516l1.29,1.935h0c.085.145.466.645.645.645s.56-.5.645-.645h0l1.29-1.935h3.871a3.551,3.551,0,0,0,3.226-3.226v-6.452a3.551,3.551,0,0,0-3.226-3.226" transform="translate(-368.726 -383.275)" fill="#fff"/>
    <path id="패스_1113" data-name="패스 1113" d="M378.586,398.317a1.457,1.457,0,0,0-.934.434v-1.739h-1.094v4.566h1.107v-.358a1.052,1.052,0,0,0,.921.473,1.618,1.618,0,0,0,1.544-1.708s-.057-1.668-1.544-1.668m-.242,2.409a.7.7,0,1,1,.7-.7.7.7,0,0,1-.7.7" transform="translate(-373.326 -391.885)" fill="#ddd"/>
    <path id="패스_1114" data-name="패스 1114" d="M389.675,396.66v1.058s.5-.022.5.91v2.7h1.057v-2.953s.046-1.718-1.556-1.718" transform="translate(-382.518 -391.639)" fill="#ddd"/>
    <path id="패스_1115" data-name="패스 1115" d="M399.263,401.427s-1.812,0-1.812,1.69a1.638,1.638,0,0,0,1.812,1.669s1.853,0,1.853-1.669a1.663,1.663,0,0,0-1.853-1.69m0,2.393a.7.7,0,1,1,.7-.7.7.7,0,0,1-.7.7" transform="translate(-387.967 -394.98)" fill="#ddd"/>
    <path id="패스_1116" data-name="패스 1116" d="M414.02,401.533v.311a1.2,1.2,0,0,0-.921-.418,1.509,1.509,0,0,0-1.55,1.678s-.017,1.627,1.507,1.627a1.261,1.261,0,0,0,.963-.418v.256s.078.8-.7.8h-.265v.971h.427a1.591,1.591,0,0,0,1.6-1.712v-3.1Zm-.655,2.286a.7.7,0,1,1,.7-.7.7.7,0,0,1-.7.7" transform="translate(-397.846 -394.979)" fill="#ddd"/>
  </g>
</svg>
