<svg xmlns="http://www.w3.org/2000/svg" width="20.645" height="20" viewBox="0 0 20.645 20">
  <path id="패스_1193" data-name="패스 1193" d="M518.9,222.643H499.036a.383.383,0,0,0-.39.377v19.245a.384.384,0,0,0,.39.377H518.9a.384.384,0,0,0,.39-.377V223.02A.383.383,0,0,0,518.9,222.643Zm-15.068,4.885v-2.555a.585.585,0,0,1,1.169,0v2.555a3.969,3.969,0,0,0,7.934,0v-2.555a.585.585,0,0,1,1.169,0v2.555a5.138,5.138,0,0,1-10.271,0Zm13.182,13.083h-1.324l-2.268-2.7v2.7H511.9v-4.54h1.324l2.268,2.748v-2.748h1.526Z" transform="translate(-498.646 -222.643)" fill="#ddd"/>
</svg>
