<svg xmlns="http://www.w3.org/2000/svg" width="21" height="20" viewBox="0 0 21 20">
  <path id="스마트_스토어" data-name="스마트 스토어" d="M519.25,222.643H499.042a.387.387,0,0,0-.4.377v19.245a.387.387,0,0,0,.4.377H519.25a.387.387,0,0,0,.4-.377V223.02A.387.387,0,0,0,519.25,222.643Zm-15.327,4.885v-2.555a.6.6,0,0,1,1.189,0v2.555a4.04,4.04,0,0,0,8.07,0v-2.555a.6.6,0,0,1,1.189,0v2.555a5.23,5.23,0,0,1-10.448,0Zm13.409,13.083h-1.346l-2.307-2.7v2.7h-1.553v-4.54h1.347l2.307,2.748v-2.748h1.553Z" transform="translate(-498.646 -222.643)" fill="#00c300"/>
</svg>
