<svg xmlns="http://www.w3.org/2000/svg" width="50" height="50" viewBox="0 0 50 50">
  <g id="그룹_436" data-name="그룹 436" transform="translate(-1381 -722)">
    <circle id="Ellipse_3_copy_2" data-name="Ellipse 3 copy 2" cx="25" cy="25" r="25" transform="translate(1381 722)" fill="#f4f4f4"/>
    <g id="사각형_14" data-name="사각형 14" transform="translate(1389 736)" fill="#1c98d1" stroke="#000" stroke-width="2">
      <rect width="33" height="22" stroke="none"/>
      <rect x="1" y="1" width="31" height="20" fill="none"/>
    </g>
    <line id="선_48" data-name="선 48" x2="14" transform="translate(1393.5 742.5)" fill="none" stroke="#fff" stroke-width="4"/>
    <text id="_" data-name="\" transform="translate(1412 758)" stroke="#fff" stroke-linecap="round" stroke-width="2" font-size="14" font-family="NanumGothicBold, NanumGothic"><tspan x="0" y="0">\</tspan></text>
    <path id="패스_1215" data-name="패스 1215" d="M11.06-4.312,9.94.672a.25.25,0,0,1-.056.119A.327.327,0,0,1,9.73.812H8.624A.372.372,0,0,1,8.449.791.336.336,0,0,1,8.4.672L7.266-4.312H6.23L5.1.672a.336.336,0,0,1-.049.119.372.372,0,0,1-.175.021H3.766A.327.327,0,0,1,3.612.791.25.25,0,0,1,3.556.672L2.436-4.312H.784a.186.186,0,0,1-.126-.049A.152.152,0,0,1,.6-4.48v-.966a.152.152,0,0,1,.056-.119.186.186,0,0,1,.126-.049H2.156L1.372-9.058a.2.2,0,0,1,0-.147q.028-.049.21-.049h1.05a.337.337,0,0,1,.14.021.185.185,0,0,1,.07.119l.77,3.5H5.166l.8-3.5a.208.208,0,0,1,.063-.119.287.287,0,0,1,.133-.021H7.336a.287.287,0,0,1,.133.021.208.208,0,0,1,.063.119l.8,3.5H9.884l.77-3.5a.185.185,0,0,1,.07-.119.337.337,0,0,1,.14-.021h1.05q.182,0,.21.049a.2.2,0,0,1,0,.147L11.34-5.614H12.7q.182,0,.182.168v.966a.152.152,0,0,1-.056.119.186.186,0,0,1-.126.049Zm-4.522-1.3h.42l-.21-.952Zm2.59,3.472L9.6-4.312H8.638Zm-4.76,0,.49-2.17H3.892Z" transform="translate(1412 758)"/>
  </g>
</svg>
