<svg xmlns="http://www.w3.org/2000/svg" width="50" height="50" viewBox="0 0 50 50">
  <g id="그룹_433" data-name="그룹 433" transform="translate(-1381 -512)">
    <circle id="Ellipse_3_copy" data-name="Ellipse 3 copy" cx="25" cy="25" r="25" transform="translate(1381 512)" fill="#f4f4f4"/>
    <circle id="타원_4" data-name="타원 4" cx="9.5" cy="9.5" r="9.5" transform="translate(1396 522)" fill="#fff"/>
    <path id="패스_16" data-name="패스 16" d="M278.5,139.049a11.509,11.509,0,0,0-23,0,10.647,10.647,0,0,0,1.131,4.783h0a10.943,10.943,0,0,0,.888,1.47L267,161l9.878-16.293q.062-.1.122-.2h0a10.818,10.818,0,0,0,.744-1.51A10.64,10.64,0,0,0,278.5,139.049ZM267,147.257a7.964,7.964,0,1,1,8.283-7.958A8.125,8.125,0,0,1,267,147.257Z" transform="translate(1139.5 393)" fill="#1c98d1"/>
  </g>
</svg>
