<svg xmlns="http://www.w3.org/2000/svg" width="114" height="114" viewBox="0 0 114 114">
  <g id="그룹_924" data-name="그룹 924" transform="translate(-70.999 -788.709)">
    <g id="그룹_925" data-name="그룹 925" transform="translate(70.999 788.709)">
      <path id="패스_1265" data-name="패스 1265" d="M612.676,650.7v-7.3A49.41,49.41,0,0,0,648.8,622.527l6.343,3.662a56.919,56.919,0,0,1-24.738,20.22,56.5,56.5,0,0,1-10.656,3.308,57.151,57.151,0,0,1-7.071.987Z" transform="translate(-551.228 -536.718)" fill="#40bcd8"/>
      <path id="패스_1266" data-name="패스 1266" d="M479.255,650.705h0a57.2,57.2,0,0,1-7.073-.987,56.478,56.478,0,0,1-20.295-8.541,57,57,0,0,1-15.1-14.987l6.342-3.661A49.409,49.409,0,0,0,479.255,643.4v7.3Z" transform="translate(-426.694 -536.705)" fill="#d9af4d"/>
      <path id="패스_1267" data-name="패스 1267" d="M758.154,489.7h0l-6.337-3.658a49.458,49.458,0,0,0,0-41.725l6.338-3.659c.385.8.754,1.62,1.1,2.427a56.458,56.458,0,0,1,3.307,10.654,57.331,57.331,0,0,1,0,22.879,56.459,56.459,0,0,1-3.307,10.654c-.345.815-.714,1.632-1.1,2.427Z" transform="translate(-649.71 -408.245)" fill="#36c28f"/>
      <path id="패스_1268" data-name="패스 1268" d="M408.234,489.7h0c-.382-.8-.751-1.613-1.1-2.427a56.445,56.445,0,0,1-3.307-10.654,57.328,57.328,0,0,1,0-22.879,56.431,56.431,0,0,1,3.307-10.653c.343-.81.711-1.627,1.1-2.427l6.337,3.658a49.457,49.457,0,0,0,0,41.726l-6.336,3.658Z" transform="translate(-402.679 -408.284)" fill="#6980d9"/>
      <path id="패스_1269" data-name="패스 1269" d="M648.8,358.647a49.412,49.412,0,0,0-36.123-20.874v-7.3a56.839,56.839,0,0,1,42.467,24.514l-6.343,3.662Z" transform="translate(-551.226 -330.471)" fill="#34a0a4"/>
      <path id="패스_1270" data-name="패스 1270" d="M443.129,358.648h0l-6.342-3.661a56.941,56.941,0,0,1,24.738-20.219,56.507,56.507,0,0,1,10.654-3.308,57.214,57.214,0,0,1,7.073-.987v7.3a49.408,49.408,0,0,0-36.123,20.872Z" transform="translate(-426.658 -330.473)" fill="#367cc2"/>
    </g>
    <g id="그룹_751" data-name="그룹 751" transform="translate(86.8 823.709)">
      <g id="그룹_749" data-name="그룹 749" transform="translate(19.199)">
        <path id="패스_1271" data-name="패스 1271" d="M93.08,22.334c.191-.393.492-.557,1.11-.582h10.054s.968-.045,1.189.732a1.3,1.3,0,0,1-.45,1.379l-5.2,4.654A1.969,1.969,0,0,1,96.99,28.4l-3.706-4.8A1.278,1.278,0,0,1,93.08,22.334Z" transform="translate(-62.015 -20.859)" fill="#1c98d1"/>
        <path id="패스_1272" data-name="패스 1272" d="M41.718,34.329c0-6.11,4.058-11.437,11.449-14.275C42.238,21.547,34.082,27.37,34.082,34.329S42.238,47.109,53.168,48.6C45.776,45.763,41.718,40.434,41.718,34.329Z" transform="translate(-34.082 -20.054)" fill="#1c98d1"/>
        <path id="패스_1273" data-name="패스 1273" d="M71.616,45.223A2.872,2.872,0,0,0,74.475,48.1a2.916,2.916,0,0,0,2.981-2.881l0-8.579.007-.164c0-.259-.009-.512-.026-.761,0-.069-.011-.14-.016-.211-.016-.2-.038-.39-.063-.584-.007-.062-.015-.119-.022-.177-.034-.244-.08-.488-.129-.725a1.041,1.041,0,0,1-.026-.128c-.049-.2-.1-.4-.154-.6-.015-.064-.035-.122-.052-.188-.062-.217-.131-.43-.209-.641-.005-.019-.013-.035-.017-.05-.084-.233-.175-.464-.276-.69-.019-.045-.039-.093-.062-.136-.084-.19-.17-.371-.266-.555-.023-.041-.044-.083-.065-.129-.119-.218-.237-.434-.367-.644v0s-.005,0-.005-.01c-.118-.189-.242-.375-.372-.563-.033-.046-.064-.09-.1-.132-.11-.152-.221-.3-.336-.444a1.271,1.271,0,0,0-.1-.123,11.99,11.99,0,0,0-.932-1.03c-.037-.036-.074-.072-.113-.107-.133-.124-.267-.248-.4-.367-.046-.037-.089-.077-.134-.114-.159-.138-.324-.269-.491-.4-.013-.012-.03-.025-.045-.036-.186-.138-.376-.274-.57-.4-.043-.027-.087-.057-.128-.084-.152-.1-.306-.2-.463-.284-.056-.029-.115-.065-.169-.1-.164-.093-.326-.181-.495-.264-.041-.019-.078-.041-.121-.063-.208-.1-.417-.2-.63-.285-.044-.019-.091-.034-.133-.052-.172-.07-.342-.136-.518-.2-.067-.021-.133-.047-.2-.068-.165-.056-.331-.106-.5-.152-.057-.017-.12-.037-.182-.053-.222-.057-.448-.111-.679-.16l-.107-.016c-.2-.04-.392-.071-.591-.1-.073-.011-.149-.02-.222-.03-.169-.021-.344-.037-.515-.051l-.219-.017c-.239-.012-.479-.02-.721-.02A11.947,11.947,0,0,0,53.6,36.481c0,.377.018.755.051,1.122,0,.022,0,.042.006.06.036.357.088.71.157,1.053,0,.036.008.066.013.1.068.339.152.672.247,1,.013.036.019.073.032.109.1.322.211.642.331.947l.049.12c.123.3.262.605.412.9.018.037.037.073.055.109.156.294.321.579.495.856.025.035.04.066.065.1.181.281.374.551.578.818.018.023.038.052.056.073.212.264.434.527.665.773a.442.442,0,0,0,.046.048c.24.256.491.5.75.73a.281.281,0,0,0,.022.02,11.929,11.929,0,0,0,7.076,2.971h.008c.27.018.543.03.82.03.011-.006,2.762-.271,2.755-2.878a2.8,2.8,0,0,0-2.755-2.957,6.1,6.1,0,1,1,6.1-6.074Z" transform="translate(-43.338 -22.184)" fill="#1c98d1"/>
      </g>
      <text id="대기환경종합솔루션" transform="translate(0.199 41.148)" font-size="10" font-family="NotoSansKR-Bold, Noto Sans KR" font-weight="700" letter-spacing="-0.01em"><tspan x="0" y="0">대기환경종합솔루션</tspan></text>
    </g>
  </g>
</svg>
