<svg xmlns="http://www.w3.org/2000/svg" width="774" height="488" viewBox="0 0 774 488">
  <g id="그룹_923" data-name="그룹 923" transform="translate(-573 -2117)">
    <path id="패스_1265" data-name="패스 1265" d="M612.676,702.937V682.1a141,141,0,0,0,103.087-59.575l18.1,10.45a162.438,162.438,0,0,1-70.6,57.7,161.218,161.218,0,0,1-30.409,9.441,163.216,163.216,0,0,1-20.18,2.817Z" transform="translate(359.78 1838.896)" fill="#40bcd8"/>
    <path id="패스_1266" data-name="패스 1266" d="M557.974,702.938h0a163.274,163.274,0,0,1-20.185-2.817,161.172,161.172,0,0,1-57.917-24.375,162.656,162.656,0,0,1-43.081-42.769l18.1-10.448A141,141,0,0,0,557.975,682.1v20.835Z" transform="translate(389.469 1838.943)" fill="#d9af4d"/>
    <path id="패스_1267" data-name="패스 1267" d="M769.9,580.612h0l-18.085-10.44a141.144,141.144,0,0,0,0-119.073L769.9,440.658c1.1,2.291,2.151,4.623,3.125,6.926a161.084,161.084,0,0,1,9.437,30.4,163.6,163.6,0,0,1,0,65.292,161.084,161.084,0,0,1-9.437,30.4c-.984,2.327-2.037,4.658-3.127,6.928Z" transform="translate(336.105 1869.842)" fill="#36c28f"/>
    <path id="패스_1268" data-name="패스 1268" d="M418.532,580.613h0c-1.091-2.271-2.142-4.6-3.127-6.927a161.081,161.081,0,0,1-9.436-30.4,163.6,163.6,0,0,1,0-65.293,161.031,161.031,0,0,1,9.436-30.4c.978-2.312,2.029-4.642,3.125-6.926l18.084,10.44a141.142,141.142,0,0,0,0,119.076l-18.081,10.438Z" transform="translate(395.337 1869.738)" fill="#6980d9"/>
    <path id="패스_1269" data-name="패스 1269" d="M715.761,410.879a141.01,141.01,0,0,0-103.087-59.57V330.471a162.21,162.21,0,0,1,121.193,69.956l-18.1,10.45Z" transform="translate(359.784 1888.396)" fill="#34a0a4"/>
    <path id="패스_1270" data-name="패스 1270" d="M454.885,410.879h0l-18.1-10.448a162.5,162.5,0,0,1,70.6-57.7,161.274,161.274,0,0,1,30.4-9.441,163.277,163.277,0,0,1,20.185-2.816v20.839a141,141,0,0,0-103.086,59.565Z" transform="translate(389.562 1888.395)" fill="#367cc2"/>
    <g id="빼기_5" data-name="빼기 5" transform="translate(1087.921 2280.336)" fill="none">
      <path d="M.829,42.145h0v0L0,40.7,70.506,0h1.91l.353.609L.831,42.145Z" stroke="none"/>
      <path d="M 0.8309314846992493 42.14453506469727 L 0.8298314809799194 42.14453506469727 L 0.8305714726448059 42.14257431030273 L 1.484375047766662e-06 40.703125 L 70.5059814453125 5.625000085274223e-06 L 72.4163818359375 5.625000085274223e-06 L 72.76904296875 0.6093755960464478 L 0.8309314846992493 42.14453506469727 Z M 0.8298314809799194 42.14453506469727 L 0.8288614749908447 42.14453506469727 L 0.8298314809799194 42.14453506469727 Z" stroke="none" fill="#36c28f"/>
    </g>
    <g id="사각형_786" data-name="사각형 786" transform="translate(1147.401 2502.959) rotate(120)" fill="none" stroke="#40bcd8" stroke-width="1">
      <rect width="1.661" height="83.068" stroke="none"/>
      <rect x="0.5" y="0.5" width="0.661" height="82.068" fill="none"/>
    </g>
    <g id="사각형_787" data-name="사각형 787" transform="translate(844.704 2297.781) rotate(120)" fill="none" stroke="#367cc2" stroke-width="1">
      <rect width="1.661" height="83.068" stroke="none"/>
      <rect x="0.5" y="0.5" width="0.661" height="82.068" fill="none"/>
    </g>
    <g id="사각형_788" data-name="사각형 788" transform="translate(831.413 2438.996) rotate(60)" fill="none" stroke="#6980d9" stroke-linecap="round" stroke-width="1">
      <rect width="1.661" height="83.068" stroke="none"/>
      <rect x="0.5" y="0.5" width="0.661" height="82.068" fill="none"/>
    </g>
    <g id="사각형_789" data-name="사각형 789" transform="translate(972.5 2157)" fill="none" stroke="#34a0a4" stroke-width="1">
      <rect width="2" height="83" stroke="none"/>
      <rect x="0.5" y="0.5" width="1" height="82" fill="none"/>
    </g>
    <g id="사각형_790" data-name="사각형 790" transform="translate(945.5 2521)" fill="#fff" stroke="#d9af4d" stroke-width="1">
      <rect width="2" height="83" stroke="none"/>
      <rect x="0.5" y="0.5" width="1" height="82" fill="none"/>
    </g>
    <g id="사각형_791" data-name="사각형 791" transform="translate(1161 2157) rotate(90)" fill="none" stroke="#34a0a4" stroke-width="1">
      <rect width="2" height="188" stroke="none"/>
      <rect x="0.5" y="0.5" width="1" height="187" fill="none"/>
    </g>
    <g id="사각형_795" data-name="사각형 795" transform="translate(947 2603) rotate(90)" fill="none" stroke="#d9af4d" stroke-width="1">
      <rect width="2" height="188" stroke="none"/>
      <rect x="0.5" y="0.5" width="1" height="187" fill="none"/>
    </g>
    <g id="사각형_796" data-name="사각형 796" transform="translate(761 2480) rotate(90)" fill="none" stroke="#6980d9" stroke-linecap="round" stroke-width="1">
      <rect width="2" height="188" stroke="none"/>
      <rect x="0.5" y="0.5" width="1" height="187" fill="none"/>
    </g>
    <g id="사각형_797" data-name="사각형 797" transform="translate(774 2256) rotate(90)" fill="none" stroke="#367cc2" stroke-linecap="round" stroke-width="1">
      <rect width="2" height="188" stroke="none"/>
      <rect x="0.5" y="0.5" width="1" height="187" fill="none"/>
    </g>
    <g id="사각형_792" data-name="사각형 792" transform="translate(1347 2280) rotate(90)" fill="none" stroke="#36c28f" stroke-width="1">
      <rect width="2" height="188" stroke="none"/>
      <rect x="0.5" y="0.5" width="1" height="187" fill="none"/>
    </g>
    <g id="사각형_794" data-name="사각형 794" transform="translate(1335 2503) rotate(90)" fill="none" stroke="#40bcd8" stroke-width="1">
      <rect width="2" height="188" stroke="none"/>
      <rect x="0.5" y="0.5" width="1" height="187" fill="none"/>
    </g>
    <text id="대기환경플랜트" transform="translate(1003 2140)" font-size="20" font-family="NotoSansKR-Medium, Noto Sans KR" font-weight="500" letter-spacing="-0.01em"><tspan x="0" y="0">대기환경플랜트</tspan></text>
    <text id="배출시설_인·허가" data-name="배출시설 인·허가" transform="translate(1182 2264)" font-size="20" font-family="NotoSansKR-Medium, Noto Sans KR" font-weight="500" letter-spacing="-0.01em"><tspan x="0" y="0">배출시설 인·허가</tspan></text>
    <text id="배출시설_자가측정" data-name="배출시설 자가측정" transform="translate(1166 2487)" font-size="20" font-family="NotoSansKR-Medium, Noto Sans KR" font-weight="500" letter-spacing="-0.01em"><tspan x="0" y="0">배출시설 자가측정</tspan></text>
    <text id="유해위험방지계획서" transform="translate(771 2587)" font-size="20" font-family="NotoSansKR-Medium, Noto Sans KR" font-weight="500" letter-spacing="-0.01em"><tspan x="0" y="0">유해위험방지계획서</tspan></text>
    <text id="집진기" transform="translate(653 2242)" font-size="20" font-family="NotoSansKR-Medium, Noto Sans KR" font-weight="500" letter-spacing="-0.01em"><tspan x="0" y="0">집진기</tspan></text>
    <text id="정부지원사업" transform="translate(613 2464)" font-size="20" font-family="NotoSansKR-Medium, Noto Sans KR" font-weight="500" letter-spacing="-0.01em"><tspan x="0" y="0">정부지원사업</tspan></text>
    <g id="그룹_751" data-name="그룹 751" transform="translate(-26 768.648)">
      <g id="그룹_750" data-name="그룹 750" transform="translate(16)">
        <g id="그룹_749" data-name="그룹 749" transform="translate(1 -7)">
          <path id="패스_1271" data-name="패스 1271" d="M93.171,22.859c.363-.747.935-1.059,2.111-1.107H114.4s1.842-.085,2.261,1.392c.168.6.284,1.406-.856,2.623l-9.889,8.852s-2.933,2.519-5.314-.22l-7.049-9.121A2.432,2.432,0,0,1,93.171,22.859Z" transform="translate(891.918 1553.797)" fill="#1c98d1"/>
          <path id="패스_1272" data-name="패스 1272" d="M48.607,47.207c0-11.622,7.718-21.755,21.778-27.153-20.789,2.84-36.3,13.915-36.3,27.153S49.6,71.515,70.385,74.349C56.325,68.956,48.607,58.819,48.607,47.207Z" transform="translate(891.918 1553.797)" fill="#1c98d1"/>
          <path id="패스_1273" data-name="패스 1273" d="M87.87,63.877a5.463,5.463,0,0,0,5.438,5.48,5.546,5.546,0,0,0,5.671-5.48l0-16.318L99,47.247c0-.492-.017-.973-.049-1.448-.006-.132-.02-.266-.03-.4-.031-.375-.073-.742-.119-1.111-.013-.117-.028-.226-.042-.337-.065-.464-.152-.928-.245-1.38a1.98,1.98,0,0,1-.05-.243c-.093-.388-.186-.763-.293-1.138-.029-.122-.066-.233-.1-.358-.117-.413-.25-.818-.4-1.219-.01-.036-.025-.066-.033-.1-.159-.443-.332-.883-.525-1.312-.036-.086-.074-.177-.118-.258-.16-.362-.323-.706-.505-1.056-.043-.078-.083-.158-.124-.245-.227-.415-.451-.825-.7-1.224v0c-.006-.008-.01-.008-.01-.019-.225-.36-.461-.714-.707-1.07-.063-.087-.121-.171-.181-.252-.209-.29-.42-.573-.639-.845A2.409,2.409,0,0,0,93.951,33a22.806,22.806,0,0,0-1.773-1.959c-.071-.068-.141-.136-.215-.2-.253-.236-.507-.472-.764-.7-.087-.07-.17-.146-.254-.217-.3-.263-.616-.511-.933-.752-.025-.022-.058-.048-.085-.068-.354-.263-.716-.521-1.084-.763-.081-.051-.166-.108-.244-.16-.289-.184-.582-.372-.88-.541-.106-.056-.218-.124-.321-.181-.312-.177-.62-.345-.941-.5-.077-.037-.149-.078-.23-.119-.395-.193-.794-.372-1.2-.543-.084-.036-.173-.065-.253-.1-.327-.133-.65-.258-.986-.375-.127-.04-.253-.089-.385-.13-.313-.106-.63-.2-.95-.29-.108-.033-.228-.07-.346-.1-.422-.108-.853-.211-1.292-.3-.064-.011-.134-.019-.2-.03-.372-.076-.745-.135-1.124-.193-.138-.021-.283-.038-.423-.057-.322-.04-.655-.07-.98-.1l-.417-.033c-.454-.022-.911-.038-1.371-.038a22.725,22.725,0,0,0-22.7,22.7c0,.717.034,1.436.1,2.134.006.041.006.079.011.115.068.679.167,1.351.3,2,.008.068.016.125.025.183.13.645.29,1.278.47,1.9.024.068.036.139.061.207.181.613.4,1.222.63,1.8.031.076.061.147.094.229.234.575.5,1.151.783,1.708.034.07.071.138.1.208.3.56.611,1.1.941,1.629.047.066.077.125.124.186.345.534.711,1.048,1.1,1.555.035.043.072.1.107.138.4.5.825,1,1.265,1.47a.844.844,0,0,0,.087.092c.456.487.933.948,1.427,1.389a.531.531,0,0,0,.042.038,22.691,22.691,0,0,0,13.46,5.651h.015c.513.035,1.033.057,1.559.057.02-.011,5.254-.515,5.24-5.474a5.324,5.324,0,0,0-5.24-5.625A11.605,11.605,0,1,1,87.9,47.292Z" transform="translate(891.918 1553.797)" fill="#1c98d1"/>
        </g>
      </g>
      <text id="대기환경종합솔루션" transform="translate(902 1651)" font-size="20" font-family="NotoSansKR-Bold, Noto Sans KR" font-weight="700" letter-spacing="-0.01em"><tspan x="0" y="0">대기환경종합솔루션</tspan></text>
    </g>
  </g>
</svg>
