<svg xmlns="http://www.w3.org/2000/svg" width="126" height="126" viewBox="0 0 126 126">
  <g id="그룹_1830" data-name="그룹 1830" transform="translate(-1241 -672)">
    <circle id="타원_107" data-name="타원 107" cx="63" cy="63" r="63" transform="translate(1241 672)" fill="#f4f4f4"/>
    <path id="패스_1293" data-name="패스 1293" d="M174.095,213.854l-4.42-4.419a23.439,23.439,0,0,0,2.226-5.369h6.248V191.509H171.9a23.439,23.439,0,0,0-2.226-5.369l4.42-4.419-8.879-8.879-4.419,4.419a23.451,23.451,0,0,0-5.369-2.226v-6.248H142.871v6.248a23.451,23.451,0,0,0-5.369,2.226l-4.419-4.419L124.2,181.72l4.419,4.419a23.45,23.45,0,0,0-2.226,5.369h-6.248v12.557H126.4a23.45,23.45,0,0,0,2.226,5.369l-4.419,4.419,8.879,8.879,4.419-4.42a23.451,23.451,0,0,0,5.369,2.226v6.248h12.557v-6.248a23.451,23.451,0,0,0,5.369-2.226l4.419,4.42Zm-24.946-5.312A10.755,10.755,0,1,1,159.9,197.787,10.755,10.755,0,0,1,149.149,208.542Z" transform="translate(1138.852 532.213)" fill="#1c98d1"/>
    <path id="패스_1295" data-name="패스 1295" d="M335.7,416.932l-1.916-7.812-3.889.954a15.014,15.014,0,0,0-2.2-3l2.074-3.423-6.878-4.169-2.075,3.422a15.035,15.035,0,0,0-3.68-.563l-.953-3.888-7.812,1.916.954,3.888a15.015,15.015,0,0,0-3,2.2l-3.422-2.074-4.169,6.879,3.423,2.074a15,15,0,0,0-.563,3.68l-3.889.954,1.916,7.812,3.888-.954a15.037,15.037,0,0,0,2.2,3l-2.075,3.423,6.879,4.169L312.584,432a15.02,15.02,0,0,0,3.68.564l.954,3.888,7.812-1.916-.954-3.888a15,15,0,0,0,3-2.2l3.423,2.075,4.169-6.879-3.423-2.075a15.029,15.029,0,0,0,.563-3.68Zm-13.108,4.09a6.889,6.889,0,1,1-2.321-9.463A6.889,6.889,0,0,1,322.591,421.022Z" transform="translate(1012.82 332.295)" fill="#aaa"/>
  </g>
</svg>
