<svg xmlns="http://www.w3.org/2000/svg" width="100" height="100" viewBox="0 0 100 100">
  <g id="그룹_433" data-name="그룹 433" transform="translate(-1380.77 -511.77)">
    <circle id="Ellipse_3_copy" data-name="Ellipse 3 copy" cx="50" cy="50" r="50" transform="translate(1380.77 511.77)" fill="#f4f4f4"/>
    <circle id="타원_4" data-name="타원 4" cx="19" cy="19" r="19" transform="translate(1410.77 531.77)" fill="#fff"/>
    <path id="패스_16" data-name="패스 16" d="M301.394,150.047c0-12.176-10.274-22.047-22.947-22.047S255.5,137.871,255.5,150.047a21.243,21.243,0,0,0,2.257,9.544h0a21.829,21.829,0,0,0,1.772,2.933l18.919,31.324,19.711-32.511q.124-.2.243-.4h0a21.583,21.583,0,0,0,1.484-3.013A21.231,21.231,0,0,0,301.394,150.047Zm-22.947,16.379c-9.128,0-16.527-7.109-16.527-15.879s7.4-15.878,16.527-15.878,16.527,7.109,16.527,15.878S287.575,166.425,278.447,166.425Z" transform="translate(1153.435 401.958)" fill="#1c98d1"/>
  </g>
</svg>
