<svg xmlns="http://www.w3.org/2000/svg" width="100" height="100" viewBox="0 0 100 100">
  <g id="그룹_1161" data-name="그룹 1161" transform="translate(-252.936 -180.945)">
    <circle id="Ellipse_3_copy" data-name="Ellipse 3 copy" cx="50" cy="50" r="50" transform="translate(252.936 180.945)" fill="#f4f4f4"/>
    <g id="합치기_11" data-name="합치기 11" transform="translate(748.001 -18731)" fill="#fff">
      <path d="M -452.5650634765625 18987.96484375 L -458.0462646484375 18978.689453125 L -458.19140625 18978.443359375 L -458.4767150878906 18978.443359375 L -473.0618896484375 18978.443359375 C -474.9934997558594 18978.443359375 -476.5650024414062 18976.875 -476.5650024414062 18974.9453125 L -476.5650024414062 18945.947265625 C -476.5650024414062 18944.015625 -474.9934997558594 18942.443359375 -473.0618896484375 18942.443359375 L -433.0642395019531 18942.443359375 C -431.13525390625 18942.443359375 -429.5658874511719 18944.015625 -429.5658874511719 18945.947265625 L -429.5658874511719 18974.9453125 C -429.5658874511719 18976.875 -431.13525390625 18978.443359375 -433.0642395019531 18978.443359375 L -446.6534118652344 18978.443359375 L -446.938720703125 18978.443359375 L -447.0838623046875 18978.689453125 L -452.5650634765625 18987.96484375 Z" stroke="none"/>
      <path d="M -452.5650634765625 18986.982421875 L -447.2240295410156 18977.943359375 L -433.0642395019531 18977.943359375 C -431.4109497070312 18977.943359375 -430.0658874511719 18976.59765625 -430.0658874511719 18974.9453125 L -430.0658874511719 18945.947265625 C -430.0658874511719 18944.291015625 -431.4109497070312 18942.943359375 -433.0642395019531 18942.943359375 L -473.0618896484375 18942.943359375 C -474.7178039550781 18942.943359375 -476.0650024414062 18944.291015625 -476.0650024414062 18945.947265625 L -476.0650024414062 18974.9453125 C -476.0650024414062 18976.59765625 -474.7178039550781 18977.943359375 -473.0618896484375 18977.943359375 L -457.9060974121094 18977.943359375 L -457.6158142089844 18978.435546875 L -452.5650634765625 18986.982421875 M -452.5650634765625 18988.947265625 L -458.4767150878906 18978.943359375 L -473.0618896484375 18978.943359375 C -475.2731323242188 18978.943359375 -477.0650024414062 18977.15625 -477.0650024414062 18974.9453125 L -477.0650024414062 18945.947265625 C -477.0650024414062 18943.734375 -475.2731323242188 18941.943359375 -473.0618896484375 18941.943359375 L -433.0642395019531 18941.943359375 C -430.8529968261719 18941.943359375 -429.0658874511719 18943.734375 -429.0658874511719 18945.947265625 L -429.0658874511719 18974.9453125 C -429.0658874511719 18977.15625 -430.8529968261719 18978.943359375 -433.0642395019531 18978.943359375 L -446.6534118652344 18978.943359375 L -452.5650634765625 18988.947265625 Z" stroke="none" fill="#000"/>
    </g>
    <line id="선_214" data-name="선 214" x2="19.827" transform="translate(279.436 239.156)" fill="none" stroke="#000" stroke-linecap="round" stroke-linejoin="round" stroke-width="2"/>
    <line id="선_217" data-name="선 217" x2="30.632" transform="translate(279.436 232.771)" fill="none" stroke="#000" stroke-linecap="round" stroke-linejoin="round" stroke-width="2"/>
    <line id="선_219" data-name="선 219" x2="30.632" transform="translate(279.436 226.385)" fill="none" stroke="#000" stroke-linecap="round" stroke-linejoin="round" stroke-width="2"/>
    <line id="선_221" data-name="선 221" x2="30.632" transform="translate(279.436 219.934)" fill="none" stroke="#000" stroke-linecap="round" stroke-linejoin="round" stroke-width="2"/>
    <g id="패스_1298" data-name="패스 1298" transform="translate(-751.859 -1.068)" fill="#1c98d1">
      <path d="M 1052.248046875 240.3326721191406 L 1055.07470703125 231.14599609375 L 1080.272094726562 206.7359313964844 L 1086.012573242188 213.1938934326172 L 1060.765869140625 236.0737915039062 L 1052.248046875 240.3326721191406 Z" stroke="none"/>
      <path d="M 1053.069580078125 239.3628997802734 L 1060.480834960938 235.6572570800781 L 1085.309936523438 213.1559448242188 L 1080.2451171875 207.4581909179688 L 1055.514770507812 231.415771484375 L 1053.069580078125 239.3628997802734 M 1051.426513671875 241.3024444580078 L 1054.634521484375 230.876220703125 L 1080.299072265625 206.0136566162109 L 1086.71533203125 213.2318267822266 L 1061.05078125 236.4903411865234 L 1051.426513671875 241.3024444580078 Z" stroke="none" fill="#000"/>
    </g>
  </g>
</svg>
