<svg xmlns="http://www.w3.org/2000/svg" width="100" height="100" viewBox="0 0 100 100">
  <g id="그룹_436" data-name="그룹 436" transform="translate(-1381 -722)">
    <circle id="Ellipse_3_copy_2" data-name="Ellipse 3 copy 2" cx="50" cy="50" r="50" transform="translate(1381 722)" fill="#f4f4f4"/>
    <g id="사각형_14" data-name="사각형 14" transform="translate(1397 750)" fill="#1c98d1" stroke="#000" stroke-width="2">
      <rect width="66" height="44" stroke="none"/>
      <rect x="1" y="1" width="64" height="42" fill="none"/>
    </g>
    <line id="선_48" data-name="선 48" x2="28.049" transform="translate(1406.044 763.072)" fill="none" stroke="#fff" stroke-width="4"/>
    <text id="_" data-name="\" transform="translate(1443 794)" stroke="#fff" stroke-linecap="round" stroke-width="2" font-size="28" font-family="NanumGothicBold, NanumGothic"><tspan x="0" y="0">\</tspan></text>
    <path id="패스_1215" data-name="패스 1215" d="M21.555.647l-2.244,9.986a.5.5,0,0,1-.112.238.656.656,0,0,1-.309.042H16.674a.746.746,0,0,1-.351-.042.673.673,0,0,1-.1-.238L13.953.647H11.878L9.606,10.633a.673.673,0,0,1-.1.238.746.746,0,0,1-.351.042H6.941a.656.656,0,0,1-.309-.042.5.5,0,0,1-.112-.238L4.276.647H.967a.373.373,0,0,1-.252-.1A.306.306,0,0,1,.6.311V-1.625a.306.306,0,0,1,.112-.238.373.373,0,0,1,.252-.1H3.715l-1.571-6.9a.391.391,0,0,1,0-.295q.056-.1.421-.1h2.1a.675.675,0,0,1,.28.042.37.37,0,0,1,.14.238L6.633-1.961H9.746l1.6-7.012a.417.417,0,0,1,.126-.238.574.574,0,0,1,.266-.042h2.356a.574.574,0,0,1,.266.042.417.417,0,0,1,.126.238l1.6,7.012H19.2l1.543-7.012a.37.37,0,0,1,.14-.238.675.675,0,0,1,.28-.042h2.1q.365,0,.421.1a.391.391,0,0,1,0,.295l-1.571,6.9h2.721q.365,0,.365.337V.311a.306.306,0,0,1-.112.238.373.373,0,0,1-.252.1Zm-9.06-2.609h.841l-.421-1.907ZM17.684,5,18.638.647H16.7ZM8.147,5,9.129.647H7.194Z" transform="translate(1443.713 784.84)"/>
  </g>
</svg>
