<svg xmlns="http://www.w3.org/2000/svg" width="100" height="100" viewBox="0 0 100 100">
  <g id="그룹_1163" data-name="그룹 1163" transform="translate(-883 -1216)">
    <circle id="Ellipse_3_copy" data-name="Ellipse 3 copy" cx="50" cy="50" r="50" transform="translate(883 1216)" fill="#f4f4f4"/>
    <g id="그룹_1162" data-name="그룹 1162">
      <rect id="사각형_1080" data-name="사각형 1080" width="24" height="53" transform="translate(933 1240)" fill="#fff"/>
      <rect id="사각형_1081" data-name="사각형 1081" width="24" height="42" transform="translate(909 1251)" fill="#fff"/>
      <line id="선_21" data-name="선 21" x2="62" transform="translate(902.5 1293.5)" fill="none" stroke="#000" stroke-linecap="round" stroke-width="1"/>
      <line id="선_25" data-name="선 25" y1="53" transform="translate(957.5 1240.5)" fill="none" stroke="#000" stroke-linecap="round" stroke-width="1"/>
      <line id="선_28" data-name="선 28" y1="53" transform="translate(933.5 1240.5)" fill="none" stroke="#000" stroke-linecap="round" stroke-width="1"/>
      <line id="선_27" data-name="선 27" x1="24" transform="translate(933.5 1240.5)" fill="none" stroke="#000" stroke-linecap="round" stroke-width="1"/>
      <line id="선_30" data-name="선 30" x1="24" transform="translate(909.5 1251.5)" fill="none" stroke="#000" stroke-linecap="round" stroke-width="1"/>
      <line id="선_24" data-name="선 24" y1="51" transform="translate(957.5 1240.5)" fill="none" stroke="#000" stroke-linecap="round" stroke-width="1"/>
      <line id="선_26" data-name="선 26" y1="51" transform="translate(933.5 1240.5)" fill="none" stroke="#000" stroke-linecap="round" stroke-width="1"/>
      <line id="선_29" data-name="선 29" y1="42" transform="translate(909.5 1251.5)" fill="none" stroke="#000" stroke-linecap="round" stroke-width="1"/>
      <rect id="사각형_8" data-name="사각형 8" width="4" height="4" transform="translate(923 1265)" fill="#1c98d1"/>
      <rect id="사각형_1075" data-name="사각형 1075" width="4" height="4" transform="translate(923 1271)" fill="#1c98d1"/>
      <rect id="사각형_9" data-name="사각형 9" width="4" height="4" transform="translate(916 1265)" fill="#1c98d1"/>
      <rect id="사각형_1074" data-name="사각형 1074" width="4" height="4" transform="translate(916 1271)" fill="#1c98d1"/>
      <rect id="사각형_8-2" data-name="사각형 8" width="4" height="4" transform="translate(947 1265)" fill="#1c98d1"/>
      <rect id="사각형_1078" data-name="사각형 1078" width="4" height="4" transform="translate(947 1259)" fill="#1c98d1"/>
      <rect id="사각형_1077" data-name="사각형 1077" width="4" height="4" transform="translate(947 1271)" fill="#1c98d1"/>
      <rect id="사각형_9-2" data-name="사각형 9" width="4" height="4" transform="translate(940 1265)" fill="#1c98d1"/>
      <rect id="사각형_1079" data-name="사각형 1079" width="4" height="4" transform="translate(940 1259)" fill="#1c98d1"/>
      <rect id="사각형_1076" data-name="사각형 1076" width="4" height="4" transform="translate(940 1271)" fill="#1c98d1"/>
    </g>
  </g>
</svg>
