<svg xmlns="http://www.w3.org/2000/svg" width="38" height="38" viewBox="0 0 38 38">
  <g id="그룹_628" data-name="그룹 628" transform="translate(-1395.692 -612.287)">
    <rect id="사각형_665" data-name="사각형 665" width="38" height="38" rx="10" transform="translate(1395.692 612.287)" fill="#f4f4f4"/>
    <path id="패스_1240" data-name="패스 1240" d="M19.265,17.081h7.382v.632H19.265Zm0,6.276h7.382v-.635H19.265Zm0-1.881h7.382v-.634H19.265Zm0-1.882h7.382v-.631H19.265Zm12.413,8.015a1.013,1.013,0,1,0,.749.978A.888.888,0,0,0,31.678,27.609Zm3.278.482V34.2c0,1.742-1.088,3.162-2.423,3.162H13.378c-1.336,0-2.422-1.42-2.422-3.162V28.091c0-1.745,1.087-3.162,2.422-3.162h1.087V19.305h2.95v1.055h-2.14v4.569H17.8V13.367H28.115V24.929H30.64V20.361H28.5V19.305h2.952v5.624h1.084C33.868,24.929,34.956,26.346,34.956,28.091ZM18.281,24.633h9.35V14h-9.35Zm15.867,3.459a1.914,1.914,0,0,0-1.615-2.11H13.378a1.915,1.915,0,0,0-1.615,2.11V34.2a1.916,1.916,0,0,0,1.615,2.109H32.533A1.914,1.914,0,0,0,34.148,34.2Zm-3.711,5.59H15.477a.705.705,0,0,0,0,1.362h14.96a.706.706,0,0,0,0-1.362ZM19.265,15.831h7.382V15.2H19.265Z" transform="translate(1391.736 605.92)" fill="#36c28f"/>
  </g>
</svg>
