<svg xmlns="http://www.w3.org/2000/svg" width="38" height="38" viewBox="0 0 38 38">
  <g id="그룹_20" data-name="그룹 20" transform="translate(-1395.692 -541.287)">
    <rect id="사각형_663" data-name="사각형 663" width="38" height="38" rx="10" transform="translate(1395.692 541.287)" fill="#f4f4f4"/>
    <g id="그룹_19" data-name="그룹 19" transform="translate(1413.462 548.287)">
      <path id="패스_11" data-name="패스 11" d="M254.325,231.8c1.454-.2,2.885.885,4,2a4.428,4.428,0,0,1,1,4h2a8.016,8.016,0,0,0-2-6,5.921,5.921,0,0,0-5-2Z" transform="translate(-254.095 -223.801)" fill="#40bcd8"/>
      <path id="패스_12" data-name="패스 12" d="M259.778,215.342a7.071,7.071,0,0,1,8,8h2a10.253,10.253,0,0,0-10-10Z" transform="translate(-258.548 -210.341)" fill="#40bcd8"/>
      <path id="패스_13" data-name="패스 13" d="M264.256,198.639a10.883,10.883,0,0,1,8,3c2.061,2.061,3.184,4.3,3,7h2c.182-3.189-1.569-6.569-4-9a11.543,11.543,0,0,0-9-3Z" transform="translate(-263.026 -196.639)" fill="#40bcd8"/>
    </g>
    <path id="패스_14" data-name="패스 14" d="M234.254,285.875Z" transform="translate(1175.438 280.412)" fill="#40bcd8"/>
    <path id="패스_15" data-name="패스 15" d="M208.515,229.707c-2.135-1.2-3.375-.937-4,0s-1.969,2.665-4,1a22.884,22.884,0,0,1-3-3c-1.667-2.03-.938-3.375,0-4s1.2-1.866,0-4a3.406,3.406,0,0,0-3-2s-2.062,1.045-3,5c-.845,3.565,3.157,8.082,4,9,0,0,6.042,5.937,10,5s4-4,4-4A2.073,2.073,0,0,0,208.515,229.707Z" transform="translate(1211.178 336.581)" fill="#40bcd8"/>
  </g>
</svg>
