<svg xmlns="http://www.w3.org/2000/svg" width="98.156" height="25.468" viewBox="0 0 98.156 25.468">
  <g id="그룹_638" data-name="그룹 638" transform="translate(-1742 -758)">
    <g id="그룹_637" data-name="그룹 637" transform="translate(1643.028 487.32)">
      <rect id="사각형_666" data-name="사각형 666" width="1.918" height="11.447" transform="translate(128.627 278.008)" fill="#d9af4d"/>
      <path id="패스_1241" data-name="패스 1241" d="M164,282.464v11.447h3.484c2.965-.006,4.366-1.051,4.368-3.146a2.671,2.671,0,0,0-1.97-2.677l-.113-.034.109-.045a2.536,2.536,0,0,0,1.692-2.551c0-1.957-1.336-2.987-4.037-2.995H164m3.155,6.383c1.369,0,2.684.222,2.688,1.777a1.407,1.407,0,0,1-.611,1.273,3.658,3.658,0,0,1-1.919.379h-1.4v-3.428h1.238m.631-4.75c.55,0,1.863.19,1.867,1.518a1.321,1.321,0,0,1-.778,1.36,4.841,4.841,0,0,1-1.877.241h-1.08V284.1h1.869" transform="translate(-30.805 -4.456)" fill="#d9af4d"/>
      <path id="패스_1242" data-name="패스 1242" d="M195.494,282.464c-.6.633-5.149,5.426-5.149,5.426s4.93,5.35,5.55,6.021h-2.67c-.251-.285-4.475-5.159-4.475-5.159v5.159h-1.915V282.464h1.915v4.63s4.033-4.373,4.274-4.63h2.471" transform="translate(-43.702 -4.456)" fill="#d9af4d"/>
      <path id="패스_1243" data-name="패스 1243" d="M230.987,288.9v1.174h-4.658v-1.171h-1.518v4.857h7.728V288.9h-1.552m0,2.28v1.392H226.33v-1.392Zm-3.027-3.7a2.789,2.789,0,0,0,1.068-1.673H231V288.3h1.531v-5.941H231v2.347h-1.952a2.652,2.652,0,0,0-1.038-1.742,3.4,3.4,0,0,0-4.269.145,2.755,2.755,0,0,0,0,4.185,3.4,3.4,0,0,0,4.22.19Zm-3.177-.983a1.878,1.878,0,0,1-.461-1.284,1.8,1.8,0,0,1,.472-1.27,1.517,1.517,0,0,1,1.161-.5,1.464,1.464,0,0,1,1.173.5,1.883,1.883,0,0,1,.433,1.272,1.908,1.908,0,0,1-.444,1.284,1.566,1.566,0,0,1-2.334,0Zm-5-4.145v11.45h1.531v-11.45Zm-7.711,1.407h4.01v.66l0,.211A5.942,5.942,0,0,1,211.5,290.3l-.068.018.782.962.032-.006c2.944-.863,5.379-3.6,5.379-6.618v-2.008h-5.559Z" transform="translate(-57.597 -4.353)" fill="#d9af4d"/>
      <path id="패스_1244" data-name="패스 1244" d="M268.349,300.164H266.8v3.7h7.722v-1.1h-6.174v-2.6" transform="translate(-88.866 -14.453)" fill="#d9af4d"/>
      <path id="패스_1245" data-name="패스 1245" d="M273.285,282.442a4.863,4.863,0,0,0-5.14,0,2.478,2.478,0,0,0,0,4.089,4.91,4.91,0,0,0,5.14,0,2.334,2.334,0,0,0,1.077-2.032,2.364,2.364,0,0,0-1.077-2.057m-1.075,3.258a2.282,2.282,0,0,1-1.494.47,2.257,2.257,0,0,1-1.48-.47,1.48,1.48,0,0,1-.58-1.2,1.563,1.563,0,0,1,.58-1.232,2.429,2.429,0,0,1,2.971,0,1.556,1.556,0,0,1,.578,1.232A1.479,1.479,0,0,1,272.209,285.7Z" transform="translate(-89.016 -4.029)" fill="#d9af4d"/>
      <rect id="사각형_667" data-name="사각형 667" width="10.214" height="1.2" transform="translate(176.565 283.805)" fill="#d9af4d"/>
      <g id="그룹_631" data-name="그룹 631" transform="translate(187.483 278.002)">
        <path id="패스_1250" data-name="패스 1250" d="M300.113,299.463a5.3,5.3,0,0,0-4.917,0,1.879,1.879,0,0,0,0,3.345,5.347,5.347,0,0,0,4.917,0,1.882,1.882,0,0,0,0-3.345m-1.015,2.561a3.145,3.145,0,0,1-2.88,0,1.025,1.025,0,0,1-.564-.883,1.078,1.078,0,0,1,.564-.907,2.987,2.987,0,0,1,2.88,0,1.061,1.061,0,0,1,.563.907A1.009,1.009,0,0,1,299.1,302.024Z" transform="translate(-291.808 -291.717)" fill="#d9af4d"/>
        <rect id="사각형_668" data-name="사각형 668" width="3.47" height="1.028" transform="translate(0.608 0.149)" fill="#d9af4d"/>
        <path id="패스_1251" data-name="패스 1251" d="M304.507,282.451V285.1h-.864v-2.644h-1.467v6.474h1.467v-2.8h.864v3.247h1.465v-6.92h-1.465" transform="translate(-296.329 -282.451)" fill="#d9af4d"/>
        <path id="패스_1252" data-name="패스 1252" d="M294.066,286.009h-5.325v1.022h1.118a2.2,2.2,0,0,0-1.072,1.839,2.649,2.649,0,0,0,5.251,0,2.207,2.207,0,0,0-1.071-1.839h1.1v-1.022m-2.658,4.234a1.377,1.377,0,1,1,1.253-1.373A1.312,1.312,0,0,1,291.408,290.243Z" transform="translate(-288.741 -284.46)" fill="#d9af4d"/>
      </g>
    </g>
    <g id="그룹_636" data-name="그룹 636" transform="translate(1742.21 758.211)">
      <path id="패스_1246" data-name="패스 1246" d="M110.515,273.7a5.3,5.3,0,0,0-2.175,2.175l-4.35,14.137a2.727,2.727,0,0,0,0,2.175c.356.7,1.429.837,2.175,1.087l15.224,5.437a2.735,2.735,0,0,0,2.175,0,5.327,5.327,0,0,0,2.175-2.175l4.35-14.137c.518-1.55-.624-2.745-2.175-3.262L112.69,273.7a2.713,2.713,0,0,0-2.175,0" transform="translate(-103.972 -273.686)" fill="#fff"/>
      <path id="패스_1247" data-name="패스 1247" d="M118.663,288.4a8.623,8.623,0,0,1-3.262,2.175h-1.087v-6.525H115.4a8.64,8.64,0,0,1,3.262,2.175,6.918,6.918,0,0,0,1.087-3.262,6.343,6.343,0,0,0-4.35-6.525l-2.175-1.087c-1.013-.336-2.929.077-3.262,1.087l-4.35,14.137c-.34,1.014.072,2.928,1.087,3.262l10.875,3.262a7.151,7.151,0,0,0,2.175-4.35,7.514,7.514,0,0,0-1.087-4.35m-6.525-4.35v6.525h-1.087v-6.525Z" transform="translate(-104.508 -274.241)" fill="rgba(217,175,77,0.5)"/>
      <path id="패스_1248" data-name="패스 1248" d="M135.608,281.862l-9.787-3.262A8.031,8.031,0,0,1,128,284.037c0,1.675-1.268,3.008-2.175,4.35.911,1.332,2.169,2.675,2.175,4.35a8.9,8.9,0,0,1-2.175,5.437l3.262,1.087c1.015.34,2.925-.074,3.262-1.087l4.35-14.137a1.589,1.589,0,0,0-1.087-2.175m-3.262,9.787h-1.087l-2.175-3.262,2.175-3.262h2.175l-3.262,3.262Z" transform="translate(-111.666 -275.319)" fill="#d9af4d"/>
      <path id="패스_1249" data-name="패스 1249" d="M123.246,293.1a8.769,8.769,0,0,0-2.175-2.175v4.35a8.835,8.835,0,0,0,2.175-2.175" transform="translate(-110.178 -280.034)" fill="#e01f06"/>
    </g>
  </g>
</svg>
