<svg xmlns="http://www.w3.org/2000/svg" width="270.198" height="19.955" viewBox="0 0 270.198 19.955">
  <g id="그룹_770" data-name="그룹 770" transform="translate(-638.505 -3301.142)">
    <g id="그룹_769" data-name="그룹 769" transform="translate(850.542 3301.335)">
      <path id="패스_1285" data-name="패스 1285" d="M84.182,108.2c-.108.484-.27,1.355-.474,2.616-.89.192-1.646.313-2.253.381a17.479,17.479,0,0,1-1.847.1,12.076,12.076,0,0,1-2.914-.322,5.353,5.353,0,0,1-2.244-1.184,5.1,5.1,0,0,1-1.426-2.114,7.489,7.489,0,0,1-.456-2.635,8.187,8.187,0,0,1,.533-2.948,6.048,6.048,0,0,1,1.491-2.35,5.463,5.463,0,0,1,2.191-1.289,8.544,8.544,0,0,1,2.56-.375,8.656,8.656,0,0,1,2.408.316,4.5,4.5,0,0,1,1.912,1.035,4.812,4.812,0,0,1,1.19,1.73,5.9,5.9,0,0,1,.418,2.26,6.129,6.129,0,0,1-.124,1.206l-9.088,0c-.019.31-.025.558-.025.735a3.942,3.942,0,0,0,.291,1.531,3.057,3.057,0,0,0,.831,1.181,3.409,3.409,0,0,0,1.3.707,4.935,4.935,0,0,0,1.485.239,9.98,9.98,0,0,0,1.86-.189A17.994,17.994,0,0,0,84.182,108.2Zm-8.019-5,5.812.016c0-.4-.012-.694-.031-.89a3.748,3.748,0,0,0-.167-.66,2.317,2.317,0,0,0-.363-.657,2,2,0,0,0-.521-.474,2.5,2.5,0,0,0-.685-.285,3.476,3.476,0,0,0-.837-.1,3.214,3.214,0,0,0-1.014.164,3.093,3.093,0,0,0-.905.477,2.844,2.844,0,0,0-.654.7,3.315,3.315,0,0,0-.384.75A8.693,8.693,0,0,0,76.164,103.2Z" transform="translate(-55.195 -92.006)" fill="#030404" stroke="#030404" stroke-width="0.195"/>
      <path id="패스_1286" data-name="패스 1286" d="M87.386,108.164c-.04.332-.1.71-.189,1.138s-.161.945-.257,1.581a15.808,15.808,0,0,1-3.493.406,10.094,10.094,0,0,1-1.937-.183,5.769,5.769,0,0,1-1.727-.663,5.337,5.337,0,0,1-1.413-1.262,5.527,5.527,0,0,1-.911-1.9,8.64,8.64,0,0,1-.3-2.294,9.176,9.176,0,0,1,.5-3,5.806,5.806,0,0,1,1.475-2.349,5.146,5.146,0,0,1,2.157-1.24,9.9,9.9,0,0,1,2.644-.329,15.5,15.5,0,0,1,1.668.093,13.189,13.189,0,0,1,2.021.387l.167,2.712a9.944,9.944,0,0,0-3.211-.648,4.519,4.519,0,0,0-1.6.282,3.339,3.339,0,0,0-1.289.908,3.655,3.655,0,0,0-.772,1.423,5.943,5.943,0,0,0-.223,1.649,5.1,5.1,0,0,0,.366,2.052,2.585,2.585,0,0,0,1.252,1.336,4.255,4.255,0,0,0,2.03.468,8.9,8.9,0,0,0,1.355-.121A11.359,11.359,0,0,0,87.386,108.164Z" transform="translate(-45.566 -92.006)" fill="#030404" stroke="#030404" stroke-width="0.195"/>
      <path id="패스_1287" data-name="패스 1287" d="M81.266,113.694l.3-4.023.3-5.772.177-7.12c.725.012,1.33.019,1.81.019q.944,0,1.795-.019l-.226,2.954c-.05.728-.118,1.9-.2,3.512a7.689,7.689,0,0,1,.66-.883,4.637,4.637,0,0,1,.6-.558,5.213,5.213,0,0,1,.676-.428,5.922,5.922,0,0,1,.815-.31,7.379,7.379,0,0,1,1.041-.2,10.222,10.222,0,0,1,1.165-.074,8.446,8.446,0,0,1,1.978.232,4.134,4.134,0,0,1,1.637.79,2.89,2.89,0,0,1,.945,1.308,4.81,4.81,0,0,1,.257,1.568c0,.35-.025.9-.065,1.658l-.294,5.406c-.028.564-.046,1.212-.046,1.943-.67-.012-1.258-.019-1.773-.019-.558,0-1.193.006-1.894.019.108-.967.223-2.3.332-3.989s.17-2.873.17-3.589a3.143,3.143,0,0,0-.313-1.525,1.97,1.97,0,0,0-.933-.824,3.5,3.5,0,0,0-1.348-.267,3.934,3.934,0,0,0-1.661.335A3.035,3.035,0,0,0,86,104.8a4.746,4.746,0,0,0-.654,1.525,18.2,18.2,0,0,0-.394,3.221c-.046.7-.1,2.083-.152,4.147-.657-.012-1.212-.019-1.68-.019C82.679,113.675,82.056,113.681,81.266,113.694Z" transform="translate(-36.932 -94.72)" fill="#030404" stroke="#030404" stroke-width="0.195"/>
      <g id="그룹_768" data-name="그룹 768" transform="translate(0 0)">
        <path id="패스_1288" data-name="패스 1288" d="M69.98,96.6c.146-.322.384-.462.865-.487h7.864a.92.92,0,0,1,.927.614,1.118,1.118,0,0,1-.347,1.15l-4.073,3.878a1.466,1.466,0,0,1-2.176-.1l-2.9-4A1.117,1.117,0,0,1,69.98,96.6Z" transform="translate(-60.796 -96.115)" fill="#e60019"/>
        <path id="패스_1289" data-name="패스 1289" d="M66.963,100.989c2.625,0,6.9-.676,7.014,5.105l-.009,7.266a2.327,2.327,0,0,0,2.232,2.4,2.4,2.4,0,0,0,2.331-2.4v-7.151l.012-.146c0-.2-.012-.418-.028-.623,0-.062-.006-.115-.009-.177-.009-.161-.028-.325-.043-.49-.009-.05-.009-.1-.015-.146-.034-.2-.068-.412-.105-.6l-.022-.1c-.034-.17-.078-.341-.121-.5a1.027,1.027,0,0,0-.043-.152c-.047-.189-.1-.369-.164-.546l-.009-.037c-.068-.192-.139-.381-.214-.573-.015-.037-.031-.081-.046-.115l-.208-.462a.891.891,0,0,1-.056-.108c-.09-.183-.183-.363-.285-.533h0l0-.006c-.1-.17-.2-.319-.291-.471a1.014,1.014,0,0,1-.074-.115c-.09-.127-.174-.254-.263-.369-.025-.031-.05-.074-.074-.105a10.063,10.063,0,0,0-.728-.852,1.216,1.216,0,0,1-.087-.1c-.105-.105-.211-.208-.319-.3-.034-.031-.062-.059-.1-.09-.13-.115-.26-.232-.387-.329-.006-.019-.022-.022-.031-.034-.146-.118-.3-.232-.446-.335a.933.933,0,0,0-.1-.065,2.31,2.31,0,0,0-.36-.236,1.016,1.016,0,0,0-.136-.087c-.121-.077-.251-.146-.387-.217a.823.823,0,0,0-.093-.056c-.164-.077-.322-.161-.49-.236a1.06,1.06,0,0,1-.105-.05c-.133-.053-.267-.108-.4-.161l-.158-.056c-.133-.04-.257-.084-.394-.133a.531.531,0,0,0-.143-.031c-.174-.053-.347-.1-.524-.136-.037,0-.062-.012-.09-.012a3.909,3.909,0,0,0-.462-.087c-.059-.006-.112-.019-.174-.025-.133-.016-.267-.028-.4-.034-.056-.012-2.365-.019-2.424-.025-.183-.006-.378-.019-.561-.019Z" transform="translate(-66.963 -96.098)" fill="#e60019"/>
      </g>
    </g>
    <g id="그룹_763" data-name="그룹 763" transform="translate(815.102 3301.927)">
      <line id="선_132" data-name="선 132" y2="17.72" transform="translate(8.86)" fill="none" stroke="var(--blue_1)" stroke-width="4"/>
      <line id="선_133" data-name="선 133" x2="17.72" transform="translate(0 8.86)" fill="none" stroke="var(--blue_1)" stroke-width="4"/>
    </g>
    <g id="그룹_767" data-name="그룹 767" transform="translate(759.6 3301.335)">
      <path id="패스_1282" data-name="패스 1282" d="M59.443,114.1c.123-1.246.211-2.3.264-3.16.082-1.338.157-2.883.22-4.645q.09-2.62.126-4.992c.818.013,1.432.025,1.841.025.371,0,.982-.013,1.825-.025-.113,1.457-.211,2.851-.277,4.18s-.123,2.839-.157,4.554-.044,3.069-.044,4.063c-.762-.013-1.375-.019-1.832-.019C60.969,114.081,60.318,114.087,59.443,114.1Zm.683-15c.035-.869.05-1.526.05-1.98v-.406c.768.025,1.385.025,1.863.025.655,0,1.265,0,1.825-.025-.025.214-.038.453-.05.714L63.745,99.1c-.633-.019-1.221-.031-1.756-.031S60.831,99.078,60.126,99.1Z" transform="translate(-37.078 -94.804)" fill="#030404" stroke="#030404" stroke-width="0.195"/>
      <path id="패스_1283" data-name="패스 1283" d="M61.623,111.177,62,105.2l.107-3.475c.009-.718.022-1.432.022-2.15,0-.129-.013-.522-.022-1.2.774.013,1.353.025,1.718.025.425,0,.991-.013,1.693-.025l-.072,1.762a7.722,7.722,0,0,1,.821-1.007,3.666,3.666,0,0,1,.765-.576,3.956,3.956,0,0,1,.944-.365,4.378,4.378,0,0,1,1.057-.123,4.432,4.432,0,0,1,1.042.129c0,.793.038,1.8.1,3.006a4.475,4.475,0,0,0-1.341-.239,3.416,3.416,0,0,0-1.284.223,2.882,2.882,0,0,0-1.01.661,3.649,3.649,0,0,0-.736,1.1,4.8,4.8,0,0,0-.346,1.375,19.5,19.5,0,0,0-.2,2.244c-.047,1.057-.072,2.093-.072,3.125,0,.387.013.891.035,1.479-.633-.013-1.215-.019-1.737-.019S62.347,111.165,61.623,111.177Z" transform="translate(-32.397 -91.881)" fill="#030404" stroke="#030404" stroke-width="0.195"/>
      <path id="패스_1284" data-name="패스 1284" d="M67.183,113.154a2.369,2.369,0,0,0,2.357,2.37,2.453,2.453,0,0,0,2.452-2.37L72,106.076,72,105.94c0-.208-.013-.415-.019-.626l-.016-.176c-.013-.16-.025-.321-.05-.482-.006-.041-.013-.091-.019-.142-.035-.2-.06-.406-.107-.6-.006-.031-.019-.066-.025-.1-.035-.167-.079-.34-.126-.5-.013-.057-.025-.1-.038-.154-.054-.179-.11-.365-.173-.535l-.019-.038a5.477,5.477,0,0,0-.227-.56.813.813,0,0,0-.047-.116c-.069-.16-.142-.308-.217-.459-.025-.038-.035-.069-.057-.1-.1-.189-.2-.362-.305-.535v-.009c-.1-.154-.2-.308-.308-.456a.368.368,0,0,0-.079-.11,3.864,3.864,0,0,0-.28-.375c-.025-.031-.05-.069-.069-.091a9.134,9.134,0,0,0-.774-.856.946.946,0,0,0-.1-.085c-.107-.11-.217-.211-.327-.308-.038-.031-.069-.057-.107-.091-.135-.113-.268-.23-.4-.327l-.041-.031c-.151-.116-.3-.227-.466-.33-.038-.025-.076-.05-.11-.069-.123-.085-.249-.157-.381-.233l-.138-.079a3.833,3.833,0,0,0-.406-.214.5.5,0,0,0-.1-.05c-.173-.085-.343-.167-.519-.233a1.067,1.067,0,0,0-.107-.05c-.145-.06-.286-.11-.431-.161a1.419,1.419,0,0,0-.164-.054c-.135-.05-.274-.088-.409-.129l-.148-.038a4.488,4.488,0,0,0-.566-.135.262.262,0,0,1-.085-.019c-.161-.025-.321-.06-.488-.079a1.706,1.706,0,0,0-.183-.025c-.142-.019-.283-.025-.431-.044-.057,0-.11-.006-.179-.013-.192-.013-.387-.019-.592-.019a9.846,9.846,0,0,0-9.832,9.835c0,.315.016.623.041.928l.006.05c.031.3.072.579.132.872l.006.069c.06.283.126.56.2.825.009.028.016.066.025.091a8.3,8.3,0,0,0,.277.787c.006.031.025.06.035.091.1.258.22.5.343.74.019.035.031.066.047.091a5.9,5.9,0,0,0,.409.705c.016.031.035.057.054.088.151.227.3.453.478.67a.1.1,0,0,0,.047.053c.167.223.353.431.544.645l.038.038c.2.2.4.412.617.6l.016.009a9.805,9.805,0,0,0,5.835,2.449H61.5c.22.019.444.022.67.022.006,0,2.272-.57,2.272-2.364a2.375,2.375,0,0,0-2.272-2.436,5.031,5.031,0,1,1,5.026-5" transform="translate(-52.337 -96.105)" fill="#65aa31"/>
    </g>
    <g id="그룹_762" data-name="그룹 762" transform="translate(724.16 3301.927)">
      <line id="선_132-2" data-name="선 132" y2="17.72" transform="translate(8.86)" fill="none" stroke="var(--blue_1)" stroke-width="4"/>
      <line id="선_133-2" data-name="선 133" x2="17.72" transform="translate(0 8.86)" fill="none" stroke="var(--blue_1)" stroke-width="4"/>
    </g>
    <g id="그룹_766" data-name="그룹 766" transform="translate(638.7 3301.336)">
      <path id="패스_1277" data-name="패스 1277" d="M33.965,114.428c.129-1.459.281-4.072.469-7.862q.277-5.657.343-9.787c.886.013,1.523.019,1.908.019q.757,0,1.853-.019l-.31,4.719-.45,10.53-.052,2.4c-.705-.013-1.3-.019-1.792-.019C35.773,114.408,35.113,114.415,33.965,114.428Z" transform="translate(-17.309 -95.088)" fill="#030404" stroke="#030404" stroke-width="0.195"/>
      <path id="패스_1278" data-name="패스 1278" d="M48.142,108.635c-.116.5-.285,1.413-.495,2.73-.931.2-1.721.327-2.358.4a18.234,18.234,0,0,1-1.928.1,12.564,12.564,0,0,1-3.034-.336,5.578,5.578,0,0,1-2.345-1.235,5.322,5.322,0,0,1-1.488-2.206,7.892,7.892,0,0,1-.482-2.749,8.756,8.756,0,0,1,.556-3.076,6.429,6.429,0,0,1,1.559-2.451,5.744,5.744,0,0,1,2.287-1.345,8.914,8.914,0,0,1,2.671-.391,9.022,9.022,0,0,1,2.516.33,4.63,4.63,0,0,1,1.992,1.08,5,5,0,0,1,1.248,1.8,6.22,6.22,0,0,1,.433,2.358,6.393,6.393,0,0,1-.129,1.258l-9.479,0c-.016.323-.029.582-.029.766a4.112,4.112,0,0,0,.3,1.6,3.3,3.3,0,0,0,.867,1.232,3.568,3.568,0,0,0,1.358.737,5.21,5.21,0,0,0,1.559.249,10.463,10.463,0,0,0,1.937-.2A19.209,19.209,0,0,0,48.142,108.635Zm-8.367-5.217,6.064.016a8.906,8.906,0,0,0-.039-.928,3.442,3.442,0,0,0-.178-.689,2.249,2.249,0,0,0-.369-.686,2.138,2.138,0,0,0-.543-.495,2.677,2.677,0,0,0-.724-.3,3.588,3.588,0,0,0-.873-.107,3.3,3.3,0,0,0-1.051.171,3.077,3.077,0,0,0-.938.5,3.046,3.046,0,0,0-.7.734,4.256,4.256,0,0,0-.4.783A9.386,9.386,0,0,0,39.775,103.418Z" transform="translate(-12.731 -92.199)" fill="#030404" stroke="#030404" stroke-width="0.195"/>
      <path id="패스_1279" data-name="패스 1279" d="M42.253,101.264c.126-.627.2-1.064.236-1.31s.081-.624.152-1.142a29.753,29.753,0,0,1,3.1-.576,20.605,20.605,0,0,1,2.591-.165,9.332,9.332,0,0,1,2.6.33,3.877,3.877,0,0,1,1.856,1.054,2.945,2.945,0,0,1,.669,2.08q0,.747-.191,3.765t-.233,6.239c-.657-.013-1.268-.019-1.824-.019-.527,0-1.151.006-1.866.019.113-1.035.2-2.248.272-3.619l.162-3.215c-.327.217-.572.353-.75.45a4.282,4.282,0,0,1-.579.239c-.21.068-.592.178-1.132.336s-.973.281-1.3.4a5.446,5.446,0,0,0-.883.378,2.628,2.628,0,0,0-.663.479,1.736,1.736,0,0,0-.4.556,1.546,1.546,0,0,0-.116.618,1.435,1.435,0,0,0,.317.941,1.505,1.505,0,0,0,.792.543,3.39,3.39,0,0,0,1.116.158,6.312,6.312,0,0,0,.867-.061,6.6,6.6,0,0,0,1.232-.33,21.268,21.268,0,0,0-.64,2.212c-.608.1-1.093.171-1.452.194s-.7.045-1.009.045a6.992,6.992,0,0,1-2.668-.437,3.065,3.065,0,0,1-1.539-1.4,4.285,4.285,0,0,1-.495-1.934,3.294,3.294,0,0,1,.194-1.106,3.517,3.517,0,0,1,.569-.99,5.009,5.009,0,0,1,.97-.88,7.482,7.482,0,0,1,1.714-.815,23.737,23.737,0,0,1,2.975-.789c.323-.078.66-.158,1.016-.259a5.061,5.061,0,0,0,.847-.291,2.071,2.071,0,0,0,.547-.365,1.531,1.531,0,0,0,.34-.482,1.125,1.125,0,0,0,.116-.5,1.241,1.241,0,0,0-.33-.86,1.755,1.755,0,0,0-.854-.5,5.041,5.041,0,0,0-1.148-.133A14.032,14.032,0,0,0,42.253,101.264Z" transform="translate(-2.751 -92.199)" fill="#030404" stroke="#030404" stroke-width="0.195"/>
      <path id="패스_1280" data-name="패스 1280" d="M45.331,111.539c.194-1.957.353-4.149.475-6.594s.207-4.628.23-6.556c.786.013,1.426.026,1.9.026.563,0,1.158-.013,1.785-.026l-.136,2.186a9.486,9.486,0,0,1,.705-.9,4.28,4.28,0,0,1,.776-.657,4.464,4.464,0,0,1,1.009-.524,6.933,6.933,0,0,1,1.21-.311,7.763,7.763,0,0,1,1.391-.113,8.257,8.257,0,0,1,2.209.291,3.979,3.979,0,0,1,1.708.922,3.2,3.2,0,0,1,.857,1.384,5.927,5.927,0,0,1,.2,1.591c0,.23-.016.6-.039,1.113l-.307,5.66q-.058,1.184-.074,2.506c-.679-.013-1.248-.019-1.73-.019-.65,0-1.31.006-1.966.019.071-.744.165-2.057.272-3.923s.165-3.115.165-3.713a3.524,3.524,0,0,0-.33-1.649,2.074,2.074,0,0,0-1-.948,3.367,3.367,0,0,0-1.478-.333,3.625,3.625,0,0,0-1.459.3,3.442,3.442,0,0,0-1.168.864,4.344,4.344,0,0,0-.805,1.446,13.485,13.485,0,0,0-.44,3c-.087,1.232-.149,2.882-.2,4.952q-.995-.019-1.795-.019C46.757,111.52,46.1,111.526,45.331,111.539Z" transform="translate(8.085 -92.199)" fill="#030404" stroke="#030404" stroke-width="0.195"/>
      <g id="그룹_765" data-name="그룹 765" transform="translate(0 0)">
        <path id="패스_1281" data-name="패스 1281" d="M34.045,106.039c0-4.195,2.781-7.833,7.849-9.783-7.487,1.016-13.079,5.01-13.079,9.783s5.592,8.748,13.079,9.78C36.826,113.866,34.045,110.215,34.045,106.039Z" transform="translate(-28.815 -96.256)" fill="#0091bb" stroke="#0091bb" stroke-width="0.391"/>
      </g>
    </g>
  </g>
</svg>
