<svg xmlns="http://www.w3.org/2000/svg" width="771" height="274" viewBox="0 0 771 274">
  <g id="그룹_1827" data-name="그룹 1827" transform="translate(-830 -587)">
    <g id="패스_1290" data-name="패스 1290" transform="translate(1197 631)" fill="#fff" opacity="0.3">
      <path d="M 33 60 C 18.11214256286621 60 6 47.88785552978516 6 33 C 6 18.11214256286621 18.11214256286621 6 33 6 C 47.88785552978516 6 60 18.11214256286621 60 33 C 60 47.88785552978516 47.88785552978516 60 33 60 Z" stroke="none"/>
      <path d="M 33 12 C 21.42055892944336 12 12 21.42055892944336 12 33 C 12 44.57943725585938 21.42055892944336 54 33 54 C 44.57943725585938 54 54 44.57943725585938 54 33 C 54 21.42055892944336 44.57943725585938 12 33 12 M 33 0 C 51.22539901733398 0 66 14.77460098266602 66 33 C 66 51.22539901733398 51.22539901733398 66 33 66 C 14.77460098266602 66 0 51.22539901733398 0 33 C 0 14.77460098266602 14.77460098266602 0 33 0 Z" stroke="none" fill="#d9af4d"/>
    </g>
    <circle id="타원_76" data-name="타원 76" cx="10" cy="10" r="10" transform="translate(1291 841)" fill="#6980d9" opacity="0.6"/>
    <circle id="타원_71" data-name="타원 71" cx="132" cy="132" r="132" transform="translate(1337 587)" fill="#34a0a4" opacity="0.2"/>
    <circle id="타원_70" data-name="타원 70" cx="41" cy="41" r="41" transform="translate(926 608)" fill="#006992" opacity="0.2"/>
    <circle id="타원_73" data-name="타원 73" cx="10.5" cy="10.5" r="10.5" transform="translate(1015 686)" fill="#40bcd8" opacity="0.5"/>
    <circle id="타원_75" data-name="타원 75" cx="28" cy="28" r="28" transform="translate(830 782)" fill="#36c28f" opacity="0.7"/>
  </g>
</svg>
