<svg xmlns="http://www.w3.org/2000/svg" width="16.777" height="24.072" viewBox="0 0 16.777 24.072">
  <g id="그룹_433" data-name="그룹 433" transform="translate(-10.465 -6.143)">
    <circle id="타원_4" data-name="타원 4" cx="7" cy="7" r="7" transform="translate(11 7)" fill="#fff"/>
    <path id="패스_16" data-name="패스 16" d="M272.277,136.059a8.4,8.4,0,0,0-16.777,0,7.766,7.766,0,0,0,.825,3.489h0a7.983,7.983,0,0,0,.648,1.072l6.916,11.451,7.206-11.885q.045-.073.089-.147h0a7.9,7.9,0,0,0,.542-1.1A7.761,7.761,0,0,0,272.277,136.059Zm-8.389,5.987a5.809,5.809,0,1,1,6.042-5.8A5.927,5.927,0,0,1,263.889,142.047Z" transform="translate(-245.035 -121.857)" fill="#1c98d1"/>
  </g>
</svg>
