<svg xmlns="http://www.w3.org/2000/svg" width="20" height="20" viewBox="0 0 20 20">
  <g id="그룹_1648" data-name="그룹 1648" transform="translate(0)">
    <g id="그룹_19" data-name="그룹 19" transform="translate(8.717)">
      <path id="패스_11" data-name="패스 11" d="M254.1,231.826a3.937,3.937,0,0,1,4.452,4.45H260.1a5.488,5.488,0,0,0-6.009-6.008Z" transform="translate(-254.095 -224.993)" fill="#fff"/>
      <path id="패스_12" data-name="패스 12" d="M259.733,214.765a5.9,5.9,0,0,1,6.424,6.422H267.7a7.436,7.436,0,0,0-7.97-7.969Z" transform="translate(-258.767 -210.87)" fill="#fff"/>
      <path id="패스_13" data-name="패스 13" d="M264.611,198.2a7.893,7.893,0,0,1,8.429,8.428h1.546a9.436,9.436,0,0,0-9.976-9.974Z" transform="translate(-263.319 -196.639)" fill="#fff"/>
    </g>
    <path id="패스_14" data-name="패스 14" d="M234.463,286.113l-.009.009C234.49,286.154,234.463,286.113,234.463,286.113Z" transform="translate(-228.604 -271.296)" fill="#fff"/>
    <path id="패스_15" data-name="패스 15" d="M205.228,227.725c-1.74-.975-2.8-.763-3.31,0a2,2,0,0,1-3.268.509,18.97,18.97,0,0,1-2.461-2.471,2,2,0,0,1,.509-3.265c.764-.509.976-1.569,0-3.308a2.3,2.3,0,0,0-2.589-1.272s-1.74.509-2.5,3.732c-.689,2.905,2.761,6.844,3.447,7.592,0,0,4.489,4.336,7.714,3.572s3.735-2.5,3.735-2.5A2.3,2.3,0,0,0,205.228,227.725Z" transform="translate(-191.514 -212.905)" fill="#fff"/>
  </g>
</svg>
