<svg xmlns="http://www.w3.org/2000/svg" width="28" height="20" viewBox="0 0 28 20">
  <g id="그룹_436" data-name="그룹 436" transform="translate(-6 -11)">
    <g id="사각형_14" data-name="사각형 14" transform="translate(6 11)" fill="#1c98d1" stroke="#000" stroke-width="2">
      <rect width="25" height="16" stroke="none"/>
      <rect x="1" y="1" width="23" height="14" fill="none"/>
    </g>
    <line id="선_48" data-name="선 48" x2="10.212" transform="translate(9.371 15.714)" fill="none" stroke="#fff" stroke-width="4"/>
    <text id="_" data-name="\" transform="translate(22 27)" stroke="#fff" stroke-linecap="round" stroke-width="2" font-size="10" font-family="NanumGothicBold, NanumGothic"><tspan x="0" y="0">\</tspan></text>
    <path id="패스_1215" data-name="패스 1215" d="M8.23-5.649,7.414-2.014a.182.182,0,0,1-.041.087.239.239,0,0,1-.112.015H6.454a.271.271,0,0,1-.128-.015.245.245,0,0,1-.036-.087L5.463-5.649H4.707L3.88-2.014a.245.245,0,0,1-.036.087.271.271,0,0,1-.128.015H2.91A.239.239,0,0,1,2.8-1.927a.182.182,0,0,1-.041-.087L1.94-5.649H.735a.136.136,0,0,1-.092-.036A.111.111,0,0,1,.6-5.772v-.7a.111.111,0,0,1,.041-.087A.136.136,0,0,1,.735-6.6h1L1.164-9.111a.142.142,0,0,1,0-.107q.02-.036.153-.036h.766a.246.246,0,0,1,.1.015.135.135,0,0,1,.051.087L2.8-6.6H3.931l.582-2.553a.152.152,0,0,1,.046-.087.209.209,0,0,1,.1-.015h.858a.209.209,0,0,1,.1.015.152.152,0,0,1,.046.087L6.239-6.6H7.373l.562-2.553a.135.135,0,0,1,.051-.087.246.246,0,0,1,.1-.015h.766q.133,0,.153.036a.142.142,0,0,1,0,.107L8.435-6.6h.991q.133,0,.133.123v.7a.111.111,0,0,1-.041.087.136.136,0,0,1-.092.036Zm-3.3-.95h.306l-.153-.694ZM6.821-4.066l.347-1.583h-.7Zm-3.472,0,.357-1.583H3Z" transform="translate(21.702 29.525)"/>
  </g>
</svg>
