<svg xmlns="http://www.w3.org/2000/svg" width="400" height="40" viewBox="0 0 400 40">
  <g id="검색창" fill="none">
    <path d="M2,0H398a2,2,0,0,1,2,2V38a2,2,0,0,1-2,2H2a2,2,0,0,1-2-2V2A2,2,0,0,1,2,0Z" stroke="none"/>
    <path d="M 2 1 C 1.4486083984375 1 1 1.448600769042969 1 2 L 1 38 C 1 38.55139923095703 1.4486083984375 39 2 39 L 398 39 C 398.5513916015625 39 399 38.55139923095703 399 38 L 399 2 C 399 1.448600769042969 398.5513916015625 1 398 1 L 2 1 M 2 0 L 398 0 C 399.1046142578125 0 400 0.8954505920410156 400 2 L 400 38 C 400 39.10454940795898 399.1046142578125 40 398 40 L 2 40 C 0.8953857421875 40 0 39.10454940795898 0 38 L 0 2 C 0 0.8954505920410156 0.8953857421875 0 2 0 Z" stroke="none" fill="#1c98d1"/>
  </g>
</svg>
