<svg xmlns="http://www.w3.org/2000/svg" width="178" height="19.5" viewBox="0 0 178 19.5">
  <g id="그룹_615" data-name="그룹 615" transform="translate(-320 -202)">
    <text id="개요" transform="translate(474 217)" fill="#2e2e2e" font-size="13" font-family="NotoSansKR-Regular, Noto Sans KR" letter-spacing="-0.01em"><tspan x="0" y="0">개요</tspan></text>
    <text id="_" data-name="&gt;" transform="translate(454 217)" fill="#2e2e2e" font-size="13" font-family="Helvetica" letter-spacing="-0.01em"><tspan x="0" y="0">&gt;</tspan></text>
    <path id="_Color" data-name=" ↳Color" d="M7,14a7,7,0,1,1,7-7A7.008,7.008,0,0,1,7,14ZM4.2,6.3,7,9.1,9.8,6.3Z" transform="translate(428 205.5)" fill="#aaa"/>
    <text id="회사소개" transform="translate(369 217.5)" fill="#2e2e2e" font-size="13" font-family="NotoSansKR-Regular, Noto Sans KR" letter-spacing="-0.01em"><tspan x="0" y="0">회사소개</tspan></text>
    <text id="_2" data-name="&gt;" transform="translate(349 217)" fill="#2e2e2e" font-size="13" font-family="Helvetica" letter-spacing="-0.01em"><tspan x="0" y="0">&gt;</tspan></text>
    <g id="그룹_491" data-name="그룹 491" transform="translate(-8)">
      <path id="빼기_3" data-name="빼기 3" d="M-1583,388h-3v-5h-4l8.5-9,8.5,9h-4v5h-3v-3h-3v3Z" transform="translate(1918 -170)" fill="#2e2e2e"/>
    </g>
  </g>
</svg>
