<svg xmlns="http://www.w3.org/2000/svg" width="184" height="110" viewBox="0 0 184 110">
  <g id="그룹_757" data-name="그룹 757" transform="translate(-34.082 -20.054)">
    <path id="패스_1274" data-name="패스 1274" d="M93.406,23.99c.809-1.509,2.084-2.14,4.7-2.237h42.621s4.105-.172,5.039,2.813c.374,1.2.633,2.841-1.908,5.3L121.823,47.751s-6.537,5.09-11.844-.445L94.268,28.877S92.082,26.5,93.406,23.99Z" transform="translate(72.074 1.732)" fill="#e60019"/>
    <path id="패스_1275" data-name="패스 1275" d="M66.455,75.065c0-23.546,17.2-44.075,48.539-55.011C68.66,25.808,34.082,48.245,34.082,75.065c0,26.8,34.578,49.247,80.912,54.989C83.657,119.128,66.455,98.591,66.455,75.065Z" transform="translate(0 0)" fill="#0091bb"/>
    <path id="패스_1276" data-name="패스 1276" d="M129.982,104.272c0,6.107,5.4,11.1,12.12,11.108,7.094.026,12.64-5,12.64-11.108l.007-33.077.031-.632c0-1-.038-1.972-.109-2.935-.013-.268-.045-.539-.067-.813-.069-.76-.163-1.5-.265-2.252-.029-.237-.062-.458-.094-.683-.145-.941-.339-1.881-.546-2.8a3.694,3.694,0,0,1-.111-.493c-.207-.786-.415-1.547-.653-2.307-.065-.247-.147-.472-.221-.726-.261-.837-.557-1.658-.885-2.471-.022-.073-.056-.134-.074-.193-.354-.9-.74-1.79-1.17-2.659a5.579,5.579,0,0,0-.263-.523c-.357-.734-.72-1.431-1.126-2.141-.1-.158-.185-.32-.276-.5-.506-.841-1.005-1.672-1.556-2.481v-.006c-.013-.016-.022-.016-.022-.038-.5-.73-1.027-1.447-1.576-2.169-.14-.176-.27-.347-.4-.511-.466-.588-.936-1.161-1.424-1.713a4.976,4.976,0,0,0-.4-.474,48.114,48.114,0,0,0-3.952-3.971c-.158-.138-.314-.276-.479-.414-.564-.478-1.13-.957-1.7-1.415-.194-.142-.379-.3-.566-.44-.675-.533-1.373-1.036-2.079-1.524-.056-.045-.129-.1-.189-.138-.789-.533-1.6-1.056-2.416-1.547-.181-.1-.37-.219-.544-.324-.644-.373-1.3-.754-1.961-1.1-.236-.114-.486-.251-.715-.367-.7-.359-1.382-.7-2.1-1.02-.172-.075-.332-.158-.513-.241-.88-.391-1.77-.754-2.67-1.1-.187-.073-.386-.132-.564-.2-.729-.27-1.449-.523-2.2-.76-.283-.081-.564-.18-.858-.264-.7-.215-1.4-.407-2.117-.588-.241-.067-.508-.142-.771-.2-.941-.219-1.9-.428-2.88-.616-.143-.022-.3-.039-.452-.061-.829-.154-1.66-.274-2.505-.391-.308-.043-.631-.077-.943-.116-.718-.081-1.46-.142-2.184-.2l-.929-.067c-1.012-.045-2.03-.077-3.056-.077-27.9,0-50.594,20.639-50.594,46.022,0,1.453.076,2.911.216,4.326.013.083.013.16.025.233a38.3,38.3,0,0,0,.664,4.06c.018.138.036.253.056.371.29,1.307.646,2.591,1.048,3.855.053.138.08.282.136.42.4,1.243.894,2.477,1.4,3.653.069.154.136.3.21.464.522,1.166,1.112,2.333,1.745,3.462.076.142.158.28.234.422.662,1.135,1.362,2.232,2.1,3.3.1.134.172.253.276.377.769,1.082,1.585,2.124,2.449,3.152.078.087.16.2.238.28.9,1.018,1.839,2.031,2.819,2.98a1.791,1.791,0,0,0,.194.186c1.016.987,2.079,1.922,3.181,2.816a1.157,1.157,0,0,0,.094.077,53.258,53.258,0,0,0,30,11.455h.033c1.143.071,2.3.116,3.475.116.045-.022,11.71-1.044,11.679-11.1-.033-11.262-11.679-11.4-11.679-11.4-14.262,0-25.87-10.545-25.87-23.512,0-12.985,11.608-23.536,25.87-23.536s25.854,10.551,25.854,23.627Z" transform="translate(23.826 4.583)" fill="#65aa31"/>
  </g>
</svg>
